STARTFONT 2.1
COMMENT
COMMENT Converted from OpenType font "ipaexm.ttf" by "..\otf2bdf.exe 3.0".
COMMENT
FONT -FreeType-IPAexMincho-Medium-R-Normal--16-160-72-72-P-140-ISO10646-1
SIZE 16 72 72
FONTBOUNDINGBOX 21 20 -4 -5
STARTPROPERTIES 19
FOUNDRY "FreeType"
FAMILY_NAME "IPAexMincho"
WEIGHT_NAME "Medium"
SLANT "R"
SETWIDTH_NAME "Normal"
ADD_STYLE_NAME ""
PIXEL_SIZE 16
POINT_SIZE 160
RESOLUTION_X 72
RESOLUTION_Y 72
SPACING "P"
AVERAGE_WIDTH 140
CHARSET_REGISTRY "ISO10646"
CHARSET_ENCODING "1"
FONT_ASCENT 14
FONT_DESCENT 1
COPYRIGHT "Copyright(c) Information-technology Promotion Agency, Japan (IPA), 2003-2019. You must accept "https://opensource.org/licenses/IPA/" to use this product."
_OTF_FONTFILE "ipaexm.ttf"
_OTF_PSNAME "IPAexMincho"
ENDPROPERTIES
CHARS 11691
STARTCHAR 0020
ENCODING 32
SWIDTH 312 0
DWIDTH 5 0
BBX 0 0 0 0
BITMAP
ENDCHAR
STARTCHAR 0021
ENCODING 33
SWIDTH 312 0
DWIDTH 5 0
BBX 2 11 1 0
BITMAP
40
40
40
40
40
40
40
40
00
C0
C0
ENDCHAR
STARTCHAR 0022
ENCODING 34
SWIDTH 375 0
DWIDTH 6 0
BBX 4 4 1 7
BITMAP
B0
B0
B0
A0
ENDCHAR
STARTCHAR 0023
ENCODING 35
SWIDTH 625 0
DWIDTH 10 0
BBX 8 11 1 0
BITMAP
12
12
24
FF
24
24
FF
48
48
48
48
ENDCHAR
STARTCHAR 0024
ENCODING 36
SWIDTH 625 0
DWIDTH 10 0
BBX 7 13 2 -2
BITMAP
10
7C
92
96
90
50
38
14
12
92
92
54
38
ENDCHAR
STARTCHAR 0025
ENCODING 37
SWIDTH 812 0
DWIDTH 13 0
BBX 11 11 1 0
BITMAP
6080
9080
9100
9200
9400
65C0
0A20
1220
2220
2220
41C0
ENDCHAR
STARTCHAR 0026
ENCODING 38
SWIDTH 750 0
DWIDTH 12 0
BBX 10 11 1 0
BITMAP
3C00
4200
4200
2400
39C0
4880
8C80
8700
8300
4300
3CC0
ENDCHAR
STARTCHAR 0027
ENCODING 39
SWIDTH 187 0
DWIDTH 3 0
BBX 1 4 1 7
BITMAP
80
80
80
80
ENDCHAR
STARTCHAR 0028
ENCODING 40
SWIDTH 375 0
DWIDTH 6 0
BBX 3 15 1 -3
BITMAP
20
20
40
40
80
80
80
80
80
80
80
40
40
20
20
ENDCHAR
STARTCHAR 0029
ENCODING 41
SWIDTH 375 0
DWIDTH 6 0
BBX 3 16 1 -3
BITMAP
80
40
40
40
20
20
20
20
20
20
20
40
40
40
80
80
ENDCHAR
STARTCHAR 002A
ENCODING 42
SWIDTH 250 0
DWIDTH 4 0
BBX 4 2 0 8
BITMAP
F0
D0
ENDCHAR
STARTCHAR 002B
ENCODING 43
SWIDTH 687 0
DWIDTH 11 0
BBX 9 9 1 -1
BITMAP
0800
0800
0800
0800
FF80
0800
0800
0800
0800
ENDCHAR
STARTCHAR 002C
ENCODING 44
SWIDTH 250 0
DWIDTH 4 0
BBX 2 4 1 -2
BITMAP
C0
C0
40
80
ENDCHAR
STARTCHAR 002D
ENCODING 45
SWIDTH 312 0
DWIDTH 5 0
BBX 3 1 1 4
BITMAP
E0
ENDCHAR
STARTCHAR 002E
ENCODING 46
SWIDTH 250 0
DWIDTH 4 0
BBX 2 2 1 0
BITMAP
C0
C0
ENDCHAR
STARTCHAR 002F
ENCODING 47
SWIDTH 500 0
DWIDTH 8 0
BBX 6 14 1 -3
BITMAP
04
08
08
08
10
10
10
20
20
40
40
40
80
80
ENDCHAR
STARTCHAR 0030
ENCODING 48
SWIDTH 625 0
DWIDTH 10 0
BBX 8 11 1 0
BITMAP
3C
42
C3
81
81
81
81
81
42
42
3C
ENDCHAR
STARTCHAR 0031
ENCODING 49
SWIDTH 625 0
DWIDTH 10 0
BBX 4 11 3 0
BITMAP
20
E0
60
60
60
60
60
60
60
60
F0
ENDCHAR
STARTCHAR 0032
ENCODING 50
SWIDTH 625 0
DWIDTH 10 0
BBX 8 11 1 0
BITMAP
3C
46
42
02
04
04
18
20
41
81
FE
ENDCHAR
STARTCHAR 0033
ENCODING 51
SWIDTH 625 0
DWIDTH 10 0
BBX 8 11 1 0
BITMAP
7C
86
C2
02
04
1C
02
01
C1
82
7C
ENDCHAR
STARTCHAR 0034
ENCODING 52
SWIDTH 625 0
DWIDTH 10 0
BBX 8 11 1 0
BITMAP
04
0C
14
24
44
44
84
FF
04
04
0E
ENDCHAR
STARTCHAR 0035
ENCODING 53
SWIDTH 625 0
DWIDTH 10 0
BBX 8 11 1 0
BITMAP
7E
40
40
40
7C
42
01
01
C1
C2
7C
ENDCHAR
STARTCHAR 0036
ENCODING 54
SWIDTH 625 0
DWIDTH 10 0
BBX 8 11 1 0
BITMAP
3C
62
40
C0
DC
E2
81
81
81
42
3C
ENDCHAR
STARTCHAR 0037
ENCODING 55
SWIDTH 625 0
DWIDTH 10 0
BBX 8 11 1 0
BITMAP
7F
41
82
04
04
08
08
08
18
10
10
ENDCHAR
STARTCHAR 0038
ENCODING 56
SWIDTH 625 0
DWIDTH 10 0
BBX 8 11 1 0
BITMAP
3C
66
42
42
24
5C
82
81
81
C3
3C
ENDCHAR
STARTCHAR 0039
ENCODING 57
SWIDTH 625 0
DWIDTH 10 0
BBX 8 11 1 0
BITMAP
3C
42
81
81
81
47
3B
03
02
46
3C
ENDCHAR
STARTCHAR 003A
ENCODING 58
SWIDTH 312 0
DWIDTH 5 0
BBX 2 8 1 0
BITMAP
C0
C0
00
00
00
00
C0
C0
ENDCHAR
STARTCHAR 003B
ENCODING 59
SWIDTH 312 0
DWIDTH 5 0
BBX 2 10 1 -2
BITMAP
C0
C0
00
00
00
00
C0
C0
40
80
ENDCHAR
STARTCHAR 003C
ENCODING 60
SWIDTH 687 0
DWIDTH 11 0
BBX 9 8 1 1
BITMAP
0100
0600
3800
C000
4000
3000
0E00
0180
ENDCHAR
STARTCHAR 003D
ENCODING 61
SWIDTH 687 0
DWIDTH 11 0
BBX 9 4 1 3
BITMAP
FF80
0000
0000
FF80
ENDCHAR
STARTCHAR 003E
ENCODING 62
SWIDTH 687 0
DWIDTH 11 0
BBX 9 8 1 1
BITMAP
C000
3000
0C00
0380
0100
0E00
3000
C000
ENDCHAR
STARTCHAR 003F
ENCODING 63
SWIDTH 500 0
DWIDTH 8 0
BBX 6 11 1 0
BITMAP
78
8C
84
04
08
10
20
20
00
30
30
ENDCHAR
STARTCHAR 0040
ENCODING 64
SWIDTH 875 0
DWIDTH 14 0
BBX 12 11 1 0
BITMAP
0F80
3060
47A0
CC90
8890
9110
9110
9320
5DC0
2000
1FC0
ENDCHAR
STARTCHAR 0041
ENCODING 65
SWIDTH 750 0
DWIDTH 12 0
BBX 10 11 1 0
BITMAP
0800
1400
1400
1200
2200
2200
3F00
4100
4180
8080
C1C0
ENDCHAR
STARTCHAR 0042
ENCODING 66
SWIDTH 687 0
DWIDTH 11 0
BBX 9 11 1 0
BITMAP
FE00
4100
4100
4100
4200
7C00
4300
4080
4080
4080
E700
ENDCHAR
STARTCHAR 0043
ENCODING 67
SWIDTH 750 0
DWIDTH 12 0
BBX 10 11 1 0
BITMAP
1F40
20C0
4040
8000
8000
8000
8000
8000
4040
2080
1F00
ENDCHAR
STARTCHAR 0044
ENCODING 68
SWIDTH 812 0
DWIDTH 13 0
BBX 10 11 1 0
BITMAP
FE00
4180
4080
4040
4040
4040
4040
4040
4080
4180
FE00
ENDCHAR
STARTCHAR 0045
ENCODING 69
SWIDTH 687 0
DWIDTH 11 0
BBX 9 11 1 0
BITMAP
FF00
4080
4080
4000
4400
7C00
4400
4000
4080
4080
E780
ENDCHAR
STARTCHAR 0046
ENCODING 70
SWIDTH 625 0
DWIDTH 10 0
BBX 9 11 1 0
BITMAP
FF00
4080
4080
4000
4400
7C00
4400
4000
4000
4000
E000
ENDCHAR
STARTCHAR 0047
ENCODING 71
SWIDTH 812 0
DWIDTH 13 0
BBX 11 11 1 0
BITMAP
1F40
20C0
4040
8000
8000
8000
80E0
8040
4040
20C0
1F40
ENDCHAR
STARTCHAR 0048
ENCODING 72
SWIDTH 812 0
DWIDTH 13 0
BBX 11 11 1 0
BITMAP
E0E0
4040
4040
4040
4040
7FC0
4040
4040
4040
4040
E0E0
ENDCHAR
STARTCHAR 0049
ENCODING 73
SWIDTH 375 0
DWIDTH 6 0
BBX 3 11 1 0
BITMAP
E0
40
40
40
40
40
40
40
40
40
E0
ENDCHAR
STARTCHAR 004A
ENCODING 74
SWIDTH 500 0
DWIDTH 8 0
BBX 6 11 0 0
BITMAP
1C
08
08
08
08
08
08
08
08
C8
70
ENDCHAR
STARTCHAR 004B
ENCODING 75
SWIDTH 750 0
DWIDTH 12 0
BBX 10 11 2 0
BITMAP
E380
4200
4400
4800
5000
7800
4800
4400
4200
4100
E1C0
ENDCHAR
STARTCHAR 004C
ENCODING 76
SWIDTH 625 0
DWIDTH 10 0
BBX 8 11 2 0
BITMAP
E0
40
40
40
40
40
40
40
41
41
FF
ENDCHAR
STARTCHAR 004D
ENCODING 77
SWIDTH 937 0
DWIDTH 15 0
BBX 13 11 1 0
BITMAP
E038
7030
5050
5050
4890
4890
4C90
4510
4510
4210
E238
ENDCHAR
STARTCHAR 004E
ENCODING 78
SWIDTH 812 0
DWIDTH 13 0
BBX 11 11 1 -1
BITMAP
E0E0
7040
5040
4840
4C40
4440
4240
4140
4140
40C0
E040
ENDCHAR
STARTCHAR 004F
ENCODING 79
SWIDTH 812 0
DWIDTH 13 0
BBX 11 11 1 0
BITMAP
1F00
2080
4040
8020
8020
8020
8020
8020
4040
2080
1F00
ENDCHAR
STARTCHAR 0050
ENCODING 80
SWIDTH 625 0
DWIDTH 10 0
BBX 9 11 1 0
BITMAP
FE00
4180
4080
4080
4180
7E00
4000
4000
4000
4000
E000
ENDCHAR
STARTCHAR 0051
ENCODING 81
SWIDTH 812 0
DWIDTH 13 0
BBX 12 13 1 -2
BITMAP
1F00
6080
4040
8020
8020
8020
8020
8020
4E40
5140
2F80
1090
0060
ENDCHAR
STARTCHAR 0052
ENCODING 82
SWIDTH 687 0
DWIDTH 11 0
BBX 9 11 1 0
BITMAP
FE00
4100
4100
4100
4300
7C00
4400
4200
4300
4100
E180
ENDCHAR
STARTCHAR 0053
ENCODING 83
SWIDTH 625 0
DWIDTH 10 0
BBX 7 11 1 1
BITMAP
7A
C6
82
80
40
38
04
02
82
C6
3C
ENDCHAR
STARTCHAR 0054
ENCODING 84
SWIDTH 625 0
DWIDTH 10 0
BBX 9 11 0 0
BITMAP
FF80
8880
0800
0800
0800
0800
0800
0800
0800
0800
1C00
ENDCHAR
STARTCHAR 0055
ENCODING 85
SWIDTH 812 0
DWIDTH 13 0
BBX 11 11 1 0
BITMAP
E0E0
4040
4040
4040
4040
4040
4040
4040
4040
2080
1F00
ENDCHAR
STARTCHAR 0056
ENCODING 86
SWIDTH 687 0
DWIDTH 11 0
BBX 11 11 0 0
BITMAP
F060
2040
2080
3080
1080
1900
0900
0A00
0600
0600
0400
ENDCHAR
STARTCHAR 0057
ENCODING 87
SWIDTH 937 0
DWIDTH 15 0
BBX 15 11 0 0
BITMAP
E18E
2104
2104
3188
1288
1288
1250
1C50
0C30
0C20
0820
ENDCHAR
STARTCHAR 0058
ENCODING 88
SWIDTH 750 0
DWIDTH 12 0
BBX 10 11 1 0
BITMAP
E1C0
4100
2100
1200
0C00
0C00
1400
2200
2100
4080
C1C0
ENDCHAR
STARTCHAR 0059
ENCODING 89
SWIDTH 687 0
DWIDTH 11 0
BBX 11 11 0 0
BITMAP
F1E0
2080
3180
1100
0A00
0A00
0400
0400
0400
0400
0E00
ENDCHAR
STARTCHAR 005A
ENCODING 90
SWIDTH 625 0
DWIDTH 10 0
BBX 8 12 1 -1
BITMAP
FF
83
82
04
0C
08
10
20
60
41
81
FF
ENDCHAR
STARTCHAR 005B
ENCODING 91
SWIDTH 312 0
DWIDTH 5 0
BBX 3 15 2 -3
BITMAP
E0
80
80
80
80
80
80
80
80
80
80
80
80
80
E0
ENDCHAR
STARTCHAR 005C
ENCODING 92
SWIDTH 500 0
DWIDTH 8 0
BBX 6 14 1 -3
BITMAP
80
80
40
40
20
20
20
10
10
10
08
08
04
04
ENDCHAR
STARTCHAR 005D
ENCODING 93
SWIDTH 312 0
DWIDTH 5 0
BBX 3 15 1 -3
BITMAP
E0
20
20
20
20
20
20
20
20
20
20
20
20
20
E0
ENDCHAR
STARTCHAR 005E
ENCODING 94
SWIDTH 500 0
DWIDTH 8 0
BBX 6 3 1 6
BITMAP
30
48
84
ENDCHAR
STARTCHAR 005F
ENCODING 95
SWIDTH 500 0
DWIDTH 8 0
BBX 8 1 0 -2
BITMAP
FF
ENDCHAR
STARTCHAR 0060
ENCODING 96
SWIDTH 500 0
DWIDTH 8 0
BBX 2 2 3 10
BITMAP
80
40
ENDCHAR
STARTCHAR 0061
ENCODING 97
SWIDTH 562 0
DWIDTH 9 0
BBX 7 8 1 0
BITMAP
78
C4
04
3C
C4
84
8C
76
ENDCHAR
STARTCHAR 0062
ENCODING 98
SWIDTH 625 0
DWIDTH 10 0
BBX 8 12 1 -1
BITMAP
C0
40
40
40
5C
62
41
41
41
41
62
5C
ENDCHAR
STARTCHAR 0063
ENCODING 99
SWIDTH 562 0
DWIDTH 9 0
BBX 7 8 1 0
BITMAP
3C
46
86
80
80
80
42
3C
ENDCHAR
STARTCHAR 0064
ENCODING 100
SWIDTH 625 0
DWIDTH 10 0
BBX 8 12 1 0
BITMAP
06
02
02
02
3A
46
82
82
82
82
46
3B
ENDCHAR
STARTCHAR 0065
ENCODING 101
SWIDTH 562 0
DWIDTH 9 0
BBX 7 8 1 0
BITMAP
3C
46
82
FE
80
80
42
3C
ENDCHAR
STARTCHAR 0066
ENCODING 102
SWIDTH 312 0
DWIDTH 5 0
BBX 5 11 1 0
BITMAP
38
40
40
F0
40
40
40
40
40
40
E0
ENDCHAR
STARTCHAR 0067
ENCODING 103
SWIDTH 562 0
DWIDTH 9 0
BBX 7 11 1 -3
BITMAP
7E
84
84
84
78
40
78
86
82
C6
7C
ENDCHAR
STARTCHAR 0068
ENCODING 104
SWIDTH 625 0
DWIDTH 10 0
BBX 8 12 1 0
BITMAP
C0
40
40
40
5C
62
42
42
42
42
42
E7
ENDCHAR
STARTCHAR 0069
ENCODING 105
SWIDTH 312 0
DWIDTH 5 0
BBX 3 11 1 0
BITMAP
60
60
00
C0
40
40
40
40
40
40
E0
ENDCHAR
STARTCHAR 006A
ENCODING 106
SWIDTH 312 0
DWIDTH 5 0
BBX 5 15 -1 -4
BITMAP
18
18
00
10
30
10
10
10
10
10
10
10
10
D0
E0
ENDCHAR
STARTCHAR 006B
ENCODING 107
SWIDTH 562 0
DWIDTH 9 0
BBX 8 12 1 0
BITMAP
C0
40
40
40
4F
44
48
70
48
44
44
E7
ENDCHAR
STARTCHAR 006C
ENCODING 108
SWIDTH 312 0
DWIDTH 5 0
BBX 3 11 1 1
BITMAP
C0
40
40
40
40
40
40
40
40
40
E0
ENDCHAR
STARTCHAR 006D
ENCODING 109
SWIDTH 875 0
DWIDTH 14 0
BBX 13 8 1 0
BITMAP
DCE0
6310
4210
4210
4210
4210
4210
E738
ENDCHAR
STARTCHAR 006E
ENCODING 110
SWIDTH 625 0
DWIDTH 10 0
BBX 8 8 1 0
BITMAP
DC
62
42
42
42
42
42
E7
ENDCHAR
STARTCHAR 006F
ENCODING 111
SWIDTH 562 0
DWIDTH 9 0
BBX 8 8 1 0
BITMAP
3C
42
81
81
81
81
42
3C
ENDCHAR
STARTCHAR 0070
ENCODING 112
SWIDTH 625 0
DWIDTH 10 0
BBX 8 11 1 -2
BITMAP
DC
62
41
41
41
41
62
5C
40
40
E0
ENDCHAR
STARTCHAR 0071
ENCODING 113
SWIDTH 625 0
DWIDTH 10 0
BBX 8 11 1 -2
BITMAP
3A
46
82
82
82
82
46
3A
02
02
07
ENDCHAR
STARTCHAR 0072
ENCODING 114
SWIDTH 375 0
DWIDTH 6 0
BBX 5 8 1 0
BITMAP
D8
60
40
40
40
40
40
E0
ENDCHAR
STARTCHAR 0073
ENCODING 115
SWIDTH 500 0
DWIDTH 8 0
BBX 5 8 1 0
BITMAP
78
88
80
40
30
88
88
70
ENDCHAR
STARTCHAR 0074
ENCODING 116
SWIDTH 312 0
DWIDTH 5 0
BBX 4 10 1 1
BITMAP
40
40
F0
40
40
40
40
40
40
70
ENDCHAR
STARTCHAR 0075
ENCODING 117
SWIDTH 625 0
DWIDTH 10 0
BBX 8 8 1 0
BITMAP
C6
42
42
42
42
42
46
3B
ENDCHAR
STARTCHAR 0076
ENCODING 118
SWIDTH 562 0
DWIDTH 9 0
BBX 8 8 0 0
BITMAP
E3
42
22
24
24
14
18
08
ENDCHAR
STARTCHAR 0077
ENCODING 119
SWIDTH 750 0
DWIDTH 12 0
BBX 12 8 0 0
BITMAP
E730
4220
4220
2540
2540
1940
1880
1080
ENDCHAR
STARTCHAR 0078
ENCODING 120
SWIDTH 500 0
DWIDTH 8 0
BBX 8 8 0 0
BITMAP
E7
22
14
18
18
24
42
E7
ENDCHAR
STARTCHAR 0079
ENCODING 121
SWIDTH 562 0
DWIDTH 9 0
BBX 8 11 0 -3
BITMAP
E3
42
22
24
14
14
18
08
10
10
60
ENDCHAR
STARTCHAR 007A
ENCODING 122
SWIDTH 437 0
DWIDTH 7 0
BBX 6 8 1 0
BITMAP
FC
88
10
30
20
44
84
FC
ENDCHAR
STARTCHAR 007B
ENCODING 123
SWIDTH 312 0
DWIDTH 5 0
BBX 3 16 1 -3
BITMAP
60
40
40
40
40
40
40
80
40
40
40
40
40
40
40
20
ENDCHAR
STARTCHAR 007C
ENCODING 124
SWIDTH 187 0
DWIDTH 3 0
BBX 1 15 1 -3
BITMAP
80
80
80
80
80
80
80
80
80
80
80
80
80
80
80
ENDCHAR
STARTCHAR 007D
ENCODING 125
SWIDTH 312 0
DWIDTH 5 0
BBX 3 16 2 -3
BITMAP
C0
40
40
40
40
40
40
20
40
40
40
40
40
40
40
80
ENDCHAR
STARTCHAR 007E
ENCODING 126
SWIDTH 500 0
DWIDTH 8 0
BBX 4 2 2 9
BITMAP
C0
30
ENDCHAR
STARTCHAR 00A0
ENCODING 160
SWIDTH 312 0
DWIDTH 5 0
BBX 0 0 0 0
BITMAP
ENDCHAR
STARTCHAR 00A1
ENCODING 161
SWIDTH 312 0
DWIDTH 5 0
BBX 2 11 1 0
BITMAP
C0
C0
00
40
40
40
40
40
40
40
40
ENDCHAR
STARTCHAR 00A2
ENCODING 162
SWIDTH 562 0
DWIDTH 9 0
BBX 7 11 1 1
BITMAP
08
38
4E
96
90
90
90
62
7C
20
40
ENDCHAR
STARTCHAR 00A3
ENCODING 163
SWIDTH 750 0
DWIDTH 12 0
BBX 10 12 1 0
BITMAP
0F00
1980
1180
1000
1000
7E00
0800
0800
0800
F840
8E80
7380
ENDCHAR
STARTCHAR 00A4
ENCODING 164
SWIDTH 625 0
DWIDTH 10 0
BBX 6 6 2 2
BITMAP
FC
CC
84
84
CC
FC
ENDCHAR
STARTCHAR 00A5
ENCODING 165
SWIDTH 625 0
DWIDTH 10 0
BBX 9 11 0 0
BITMAP
E180
4100
2200
1400
1400
7F00
0800
7F00
0800
0800
1C00
ENDCHAR
STARTCHAR 00A6
ENCODING 166
SWIDTH 187 0
DWIDTH 3 0
BBX 1 15 1 -3
BITMAP
80
80
80
80
80
80
00
00
00
80
80
80
80
80
80
ENDCHAR
STARTCHAR 00A7
ENCODING 167
SWIDTH 687 0
DWIDTH 11 0
BBX 7 15 2 -2
BITMAP
78
C6
86
80
60
58
84
82
62
1C
04
C2
C2
C6
3C
ENDCHAR
STARTCHAR 00A8
ENCODING 168
SWIDTH 500 0
DWIDTH 8 0
BBX 4 1 2 10
BITMAP
90
ENDCHAR
STARTCHAR 00A9
ENCODING 169
SWIDTH 1000 0
DWIDTH 16 0
BBX 13 13 1 -1
BITMAP
0F80
3060
67B0
4850
9048
9008
9008
9008
8848
4790
6030
3060
0F80
ENDCHAR
STARTCHAR 00AA
ENCODING 170
SWIDTH 437 0
DWIDTH 7 0
BBX 5 6 1 5
BITMAP
F0
10
F0
F8
00
F8
ENDCHAR
STARTCHAR 00AB
ENCODING 171
SWIDTH 500 0
DWIDTH 8 0
BBX 6 6 1 2
BITMAP
24
48
48
D8
48
24
ENDCHAR
STARTCHAR 00AC
ENCODING 172
SWIDTH 687 0
DWIDTH 11 0
BBX 8 4 1 2
BITMAP
FF
01
01
01
ENDCHAR
STARTCHAR 00AD
ENCODING 173
SWIDTH 687 0
DWIDTH 11 0
BBX 9 1 1 4
BITMAP
FF80
ENDCHAR
STARTCHAR 00AE
ENCODING 174
SWIDTH 1000 0
DWIDTH 16 0
BBX 13 13 2 -1
BITMAP
0F80
3060
7F30
4890
8888
8988
8F08
8988
8888
5CD0
6030
3060
0F80
ENDCHAR
STARTCHAR 00AF
ENCODING 175
SWIDTH 500 0
DWIDTH 8 0
BBX 4 1 2 10
BITMAP
F0
ENDCHAR
STARTCHAR 00B0
ENCODING 176
SWIDTH 312 0
DWIDTH 5 0
BBX 3 3 1 11
BITMAP
E0
A0
E0
ENDCHAR
STARTCHAR 00B1
ENCODING 177
SWIDTH 687 0
DWIDTH 11 0
BBX 9 9 1 2
BITMAP
0800
0800
0800
FF80
0800
0800
0800
0000
FF80
ENDCHAR
STARTCHAR 00B2
ENCODING 178
SWIDTH 375 0
DWIDTH 6 0
BBX 4 6 1 5
BITMAP
F0
90
10
60
90
F0
ENDCHAR
STARTCHAR 00B3
ENCODING 179
SWIDTH 375 0
DWIDTH 6 0
BBX 4 5 1 6
BITMAP
F0
90
60
90
F0
ENDCHAR
STARTCHAR 00B4
ENCODING 180
SWIDTH 500 0
DWIDTH 8 0
BBX 2 2 4 9
BITMAP
40
80
ENDCHAR
STARTCHAR 00B6
ENCODING 182
SWIDTH 1000 0
DWIDTH 16 0
BBX 6 15 4 -2
BITMAP
7C
F4
F4
F4
F4
74
14
14
14
14
14
14
14
14
14
ENDCHAR
STARTCHAR 00B7
ENCODING 183
SWIDTH 250 0
DWIDTH 4 0
BBX 2 2 1 4
BITMAP
C0
C0
ENDCHAR
STARTCHAR 00B8
ENCODING 184
SWIDTH 500 0
DWIDTH 8 0
BBX 4 4 2 -3
BITMAP
40
30
10
E0
ENDCHAR
STARTCHAR 00B9
ENCODING 185
SWIDTH 375 0
DWIDTH 6 0
BBX 3 6 2 6
BITMAP
C0
40
40
40
40
E0
ENDCHAR
STARTCHAR 00BA
ENCODING 186
SWIDTH 437 0
DWIDTH 7 0
BBX 5 6 1 5
BITMAP
70
88
88
70
00
F8
ENDCHAR
STARTCHAR 00BB
ENCODING 187
SWIDTH 500 0
DWIDTH 8 0
BBX 6 6 1 2
BITMAP
90
48
68
24
48
90
ENDCHAR
STARTCHAR 00BC
ENCODING 188
SWIDTH 750 0
DWIDTH 12 0
BBX 9 11 2 0
BITMAP
C100
4200
4200
4400
4800
0900
1700
2500
2780
4100
8380
ENDCHAR
STARTCHAR 00BD
ENCODING 189
SWIDTH 750 0
DWIDTH 12 0
BBX 10 11 2 0
BITMAP
C080
4100
4200
4400
4400
0BC0
1240
1040
2180
4240
83C0
ENDCHAR
STARTCHAR 00BE
ENCODING 190
SWIDTH 750 0
DWIDTH 12 0
BBX 11 11 0 0
BITMAP
7040
5080
3080
C900
F200
04C0
0940
0A40
13E0
2040
40E0
ENDCHAR
STARTCHAR 00BF
ENCODING 191
SWIDTH 500 0
DWIDTH 8 0
BBX 6 11 1 0
BITMAP
18
18
00
10
10
20
40
84
84
C4
78
ENDCHAR
STARTCHAR 00C0
ENCODING 192
SWIDTH 750 0
DWIDTH 12 0
BBX 11 14 0 1
BITMAP
0800
0400
0000
0400
0A00
0A00
0900
1100
1100
1F80
2080
2040
4040
E0E0
ENDCHAR
STARTCHAR 00C1
ENCODING 193
SWIDTH 750 0
DWIDTH 12 0
BBX 11 14 0 1
BITMAP
0300
0400
0000
0400
0A00
0A00
0900
1100
1100
1F80
2080
2040
4040
E0E0
ENDCHAR
STARTCHAR 00C2
ENCODING 194
SWIDTH 750 0
DWIDTH 12 0
BBX 11 15 0 0
BITMAP
0400
0A00
0000
0400
0600
0A00
0A00
0900
1100
1180
1F80
2080
2040
4040
E0E0
ENDCHAR
STARTCHAR 00C3
ENCODING 195
SWIDTH 750 0
DWIDTH 12 0
BBX 11 14 0 1
BITMAP
0F00
0000
0400
0600
0A00
0A00
0900
1100
1180
1F80
2080
2040
4040
E0E0
ENDCHAR
STARTCHAR 00C4
ENCODING 196
SWIDTH 750 0
DWIDTH 12 0
BBX 11 15 0 0
BITMAP
1980
1980
0000
0400
0600
0A00
0A00
0900
1100
1180
1F80
2080
2040
4040
E0E0
ENDCHAR
STARTCHAR 00C5
ENCODING 197
SWIDTH 750 0
DWIDTH 12 0
BBX 11 15 0 0
BITMAP
0600
0600
0600
0000
0400
0A00
0A00
0900
1100
1100
1F80
2080
2040
4040
E0E0
ENDCHAR
STARTCHAR 00C6
ENCODING 198
SWIDTH 1000 0
DWIDTH 16 0
BBX 15 11 0 0
BITMAP
07FC
0504
0504
0910
0910
0FF0
1110
2100
2102
4102
E39C
ENDCHAR
STARTCHAR 00C7
ENCODING 199
SWIDTH 750 0
DWIDTH 12 0
BBX 10 16 1 -5
BITMAP
1F40
20C0
4040
C000
8000
8000
8000
8000
4040
4040
2080
1F00
0800
0600
0200
0C00
ENDCHAR
STARTCHAR 00C8
ENCODING 200
SWIDTH 687 0
DWIDTH 11 0
BBX 9 15 1 0
BITMAP
2000
3000
0800
0000
FF00
4100
4080
4400
4400
7C00
4400
4400
4080
4080
E780
ENDCHAR
STARTCHAR 00C9
ENCODING 201
SWIDTH 687 0
DWIDTH 11 0
BBX 9 14 1 1
BITMAP
0400
0800
0000
FF00
4100
4080
4400
4400
7C00
4400
4400
4080
4080
E780
ENDCHAR
STARTCHAR 00CA
ENCODING 202
SWIDTH 687 0
DWIDTH 11 0
BBX 9 14 1 1
BITMAP
1800
2600
0000
FF00
4100
4080
4400
4400
7C00
4400
4400
4080
4080
E780
ENDCHAR
STARTCHAR 00CB
ENCODING 203
SWIDTH 687 0
DWIDTH 11 0
BBX 9 14 1 0
BITMAP
3600
3600
0000
FF00
4100
4080
4400
4400
7C00
4400
4400
4080
4080
E780
ENDCHAR
STARTCHAR 00CC
ENCODING 204
SWIDTH 375 0
DWIDTH 6 0
BBX 3 14 1 1
BITMAP
80
40
00
E0
40
40
40
40
40
40
40
40
40
E0
ENDCHAR
STARTCHAR 00CD
ENCODING 205
SWIDTH 375 0
DWIDTH 6 0
BBX 3 14 1 1
BITMAP
20
40
00
E0
40
40
40
40
40
40
40
40
40
E0
ENDCHAR
STARTCHAR 00CE
ENCODING 206
SWIDTH 375 0
DWIDTH 6 0
BBX 3 14 1 1
BITMAP
40
A0
00
E0
40
40
40
40
40
40
40
40
40
E0
ENDCHAR
STARTCHAR 00CF
ENCODING 207
SWIDTH 375 0
DWIDTH 6 0
BBX 5 14 0 0
BITMAP
D8
D8
00
70
20
20
20
20
20
20
20
20
20
70
ENDCHAR
STARTCHAR 00D0
ENCODING 208
SWIDTH 812 0
DWIDTH 13 0
BBX 11 11 0 0
BITMAP
7F00
20C0
2040
2020
2020
FC20
2020
2020
2040
20C0
7F00
ENDCHAR
STARTCHAR 00D1
ENCODING 209
SWIDTH 812 0
DWIDTH 13 0
BBX 11 14 1 -1
BITMAP
1800
0700
0000
E0E0
7040
5040
4840
4C40
4440
4240
4140
4140
40C0
E040
ENDCHAR
STARTCHAR 00D2
ENCODING 210
SWIDTH 812 0
DWIDTH 13 0
BBX 11 14 1 1
BITMAP
1800
0400
0000
1F00
2080
4040
8020
8020
8020
8020
8020
4040
2080
1F00
ENDCHAR
STARTCHAR 00D3
ENCODING 211
SWIDTH 812 0
DWIDTH 13 0
BBX 11 14 1 1
BITMAP
0200
0400
0000
1F00
2080
4040
8020
8020
8020
8020
8020
4040
2080
1F00
ENDCHAR
STARTCHAR 00D4
ENCODING 212
SWIDTH 812 0
DWIDTH 13 0
BBX 11 14 1 1
BITMAP
0400
1A00
0000
1F00
2080
4040
8020
8020
8020
8020
8020
4040
2080
1F00
ENDCHAR
STARTCHAR 00D5
ENCODING 213
SWIDTH 812 0
DWIDTH 13 0
BBX 11 14 1 0
BITMAP
0C00
1700
0000
1F00
2080
4040
8020
8020
8020
8020
8020
4040
2080
1F00
ENDCHAR
STARTCHAR 00D6
ENCODING 214
SWIDTH 812 0
DWIDTH 13 0
BBX 11 14 1 0
BITMAP
1B00
1B00
0000
1F00
2080
4040
8020
8020
8020
8020
8020
4040
2080
1F00
ENDCHAR
STARTCHAR 00D7
ENCODING 215
SWIDTH 687 0
DWIDTH 11 0
BBX 7 6 2 2
BITMAP
82
44
28
10
28
44
ENDCHAR
STARTCHAR 00D8
ENCODING 216
SWIDTH 812 0
DWIDTH 13 0
BBX 11 11 1 0
BITMAP
1F40
20C0
4140
8120
8220
8420
8820
9020
6040
6080
5F00
ENDCHAR
STARTCHAR 00D9
ENCODING 217
SWIDTH 812 0
DWIDTH 13 0
BBX 11 14 1 1
BITMAP
0800
0400
0000
E0E0
4040
4040
4040
4040
4040
4040
4040
4040
2080
1F00
ENDCHAR
STARTCHAR 00DA
ENCODING 218
SWIDTH 812 0
DWIDTH 13 0
BBX 11 14 1 1
BITMAP
0200
0400
0000
E0E0
4040
4040
4040
4040
4040
4040
4040
4040
2080
1F00
ENDCHAR
STARTCHAR 00DB
ENCODING 219
SWIDTH 812 0
DWIDTH 13 0
BBX 11 14 1 1
BITMAP
0400
1B00
0000
E0E0
4040
4040
4040
4040
4040
4040
4040
4040
2080
1F00
ENDCHAR
STARTCHAR 00DC
ENCODING 220
SWIDTH 812 0
DWIDTH 13 0
BBX 11 14 1 0
BITMAP
1B00
1B00
0000
E0E0
4040
4040
4040
4040
4040
4040
4040
4040
2080
1F00
ENDCHAR
STARTCHAR 00DD
ENCODING 221
SWIDTH 687 0
DWIDTH 11 0
BBX 11 15 0 0
BITMAP
0100
0300
0400
0000
F0E0
2080
3080
1100
0A00
0A00
0400
0400
0400
0400
0E00
ENDCHAR
STARTCHAR 00DE
ENCODING 222
SWIDTH 687 0
DWIDTH 11 0
BBX 9 11 1 0
BITMAP
E000
4000
7E00
4100
4080
4080
4080
4100
7E00
4000
E000
ENDCHAR
STARTCHAR 00DF
ENCODING 223
SWIDTH 562 0
DWIDTH 9 0
BBX 7 11 1 0
BITMAP
3C
46
42
42
44
4C
42
42
42
42
FC
ENDCHAR
STARTCHAR 00E0
ENCODING 224
SWIDTH 562 0
DWIDTH 9 0
BBX 7 11 1 1
BITMAP
20
10
00
78
C4
04
3C
C4
84
8C
76
ENDCHAR
STARTCHAR 00E1
ENCODING 225
SWIDTH 562 0
DWIDTH 9 0
BBX 7 12 1 0
BITMAP
08
10
00
00
78
C4
04
3C
C4
84
8C
76
ENDCHAR
STARTCHAR 00E2
ENCODING 226
SWIDTH 562 0
DWIDTH 9 0
BBX 7 11 1 1
BITMAP
30
08
00
78
C4
04
3C
C4
84
8C
76
ENDCHAR
STARTCHAR 00E3
ENCODING 227
SWIDTH 562 0
DWIDTH 9 0
BBX 7 11 1 0
BITMAP
78
00
00
78
C4
04
3C
C4
84
8C
76
ENDCHAR
STARTCHAR 00E4
ENCODING 228
SWIDTH 562 0
DWIDTH 9 0
BBX 7 11 1 0
BITMAP
48
00
00
78
C4
04
3C
C4
84
8C
76
ENDCHAR
STARTCHAR 00E5
ENCODING 229
SWIDTH 562 0
DWIDTH 9 0
BBX 7 11 1 0
BITMAP
30
30
00
78
C4
04
3C
C4
84
8C
76
ENDCHAR
STARTCHAR 00E6
ENCODING 230
SWIDTH 875 0
DWIDTH 14 0
BBX 12 8 1 0
BITMAP
7BC0
C620
0410
3FF0
C400
8400
8A10
71E0
ENDCHAR
STARTCHAR 00E7
ENCODING 231
SWIDTH 562 0
DWIDTH 9 0
BBX 7 12 1 -4
BITMAP
3C
46
80
80
80
80
42
3C
10
08
08
30
ENDCHAR
STARTCHAR 00E8
ENCODING 232
SWIDTH 562 0
DWIDTH 9 0
BBX 7 12 1 0
BITMAP
20
10
00
00
3C
46
82
FE
80
80
42
3C
ENDCHAR
STARTCHAR 00E9
ENCODING 233
SWIDTH 562 0
DWIDTH 9 0
BBX 7 11 1 1
BITMAP
08
10
00
3C
46
82
FE
80
80
42
3C
ENDCHAR
STARTCHAR 00EA
ENCODING 234
SWIDTH 562 0
DWIDTH 9 0
BBX 7 11 1 1
BITMAP
38
00
00
3C
46
82
FE
80
80
42
3C
ENDCHAR
STARTCHAR 00EB
ENCODING 235
SWIDTH 562 0
DWIDTH 9 0
BBX 7 11 1 0
BITMAP
28
00
00
3C
46
82
FE
80
80
42
3C
ENDCHAR
STARTCHAR 00EC
ENCODING 236
SWIDTH 312 0
DWIDTH 5 0
BBX 3 11 1 1
BITMAP
80
40
00
C0
40
40
40
40
40
40
E0
ENDCHAR
STARTCHAR 00ED
ENCODING 237
SWIDTH 312 0
DWIDTH 5 0
BBX 3 12 1 0
BITMAP
20
60
00
00
C0
40
40
40
40
40
40
E0
ENDCHAR
STARTCHAR 00EE
ENCODING 238
SWIDTH 312 0
DWIDTH 5 0
BBX 3 11 1 1
BITMAP
C0
20
00
C0
40
40
40
40
40
40
E0
ENDCHAR
STARTCHAR 00EF
ENCODING 239
SWIDTH 312 0
DWIDTH 5 0
BBX 4 11 0 0
BITMAP
90
00
00
60
20
20
20
20
20
20
70
ENDCHAR
STARTCHAR 00F0
ENCODING 240
SWIDTH 562 0
DWIDTH 9 0
BBX 7 11 1 1
BITMAP
78
28
04
3C
46
82
82
82
82
44
38
ENDCHAR
STARTCHAR 00F1
ENCODING 241
SWIDTH 625 0
DWIDTH 10 0
BBX 8 11 1 0
BITMAP
3C
00
00
DC
62
42
42
42
42
42
E7
ENDCHAR
STARTCHAR 00F2
ENCODING 242
SWIDTH 562 0
DWIDTH 9 0
BBX 7 12 1 0
BITMAP
20
10
00
00
38
44
82
82
82
82
44
38
ENDCHAR
STARTCHAR 00F3
ENCODING 243
SWIDTH 562 0
DWIDTH 9 0
BBX 7 11 1 1
BITMAP
08
10
00
38
44
82
82
82
82
44
38
ENDCHAR
STARTCHAR 00F4
ENCODING 244
SWIDTH 562 0
DWIDTH 9 0
BBX 7 11 1 1
BITMAP
38
00
00
38
44
82
82
82
82
44
38
ENDCHAR
STARTCHAR 00F5
ENCODING 245
SWIDTH 562 0
DWIDTH 9 0
BBX 7 11 1 0
BITMAP
3C
00
00
38
44
82
82
82
82
44
38
ENDCHAR
STARTCHAR 00F6
ENCODING 246
SWIDTH 562 0
DWIDTH 9 0
BBX 7 11 1 0
BITMAP
28
00
00
38
44
82
82
82
82
44
38
ENDCHAR
STARTCHAR 00F7
ENCODING 247
SWIDTH 687 0
DWIDTH 11 0
BBX 9 7 1 1
BITMAP
1800
1800
0000
FF80
0000
1800
1800
ENDCHAR
STARTCHAR 00F8
ENCODING 248
SWIDTH 562 0
DWIDTH 9 0
BBX 7 8 1 -1
BITMAP
3E
46
8A
92
92
A2
44
B8
ENDCHAR
STARTCHAR 00F9
ENCODING 249
SWIDTH 625 0
DWIDTH 10 0
BBX 8 11 1 1
BITMAP
10
00
00
C6
42
42
42
42
42
46
3B
ENDCHAR
STARTCHAR 00FA
ENCODING 250
SWIDTH 625 0
DWIDTH 10 0
BBX 8 11 1 1
BITMAP
08
10
00
C6
42
42
42
42
42
46
3B
ENDCHAR
STARTCHAR 00FB
ENCODING 251
SWIDTH 625 0
DWIDTH 10 0
BBX 8 11 1 1
BITMAP
18
24
00
C6
42
42
42
42
42
46
3B
ENDCHAR
STARTCHAR 00FC
ENCODING 252
SWIDTH 625 0
DWIDTH 10 0
BBX 8 11 1 0
BITMAP
28
00
00
C6
42
42
42
42
42
46
3B
ENDCHAR
STARTCHAR 00FD
ENCODING 253
SWIDTH 562 0
DWIDTH 9 0
BBX 8 15 0 -3
BITMAP
04
0C
00
00
E3
42
22
24
14
14
08
08
10
10
60
ENDCHAR
STARTCHAR 00FE
ENCODING 254
SWIDTH 625 0
DWIDTH 10 0
BBX 8 15 1 -3
BITMAP
C0
40
40
40
5C
62
41
41
41
41
62
5C
40
40
E0
ENDCHAR
STARTCHAR 00FF
ENCODING 255
SWIDTH 562 0
DWIDTH 9 0
BBX 8 14 0 -3
BITMAP
24
00
00
E3
42
22
24
14
14
08
08
10
10
60
ENDCHAR
STARTCHAR 0100
ENCODING 256
SWIDTH 750 0
DWIDTH 12 0
BBX 11 14 0 0
BITMAP
0F00
0000
0000
0400
0A00
0A00
0900
1100
1100
1F80
2080
2040
4040
E0E0
ENDCHAR
STARTCHAR 0101
ENCODING 257
SWIDTH 562 0
DWIDTH 9 0
BBX 7 11 1 0
BITMAP
78
00
00
78
C4
04
3C
C4
84
8C
76
ENDCHAR
STARTCHAR 0102
ENCODING 258
SWIDTH 750 0
DWIDTH 12 0
BBX 11 15 0 0
BITMAP
0100
0E00
0000
0400
0600
0A00
0A00
0900
1100
1180
1F80
2080
2040
4040
E0E0
ENDCHAR
STARTCHAR 0103
ENCODING 259
SWIDTH 562 0
DWIDTH 9 0
BBX 7 11 1 1
BITMAP
38
00
00
78
C4
04
3C
C4
84
8C
76
ENDCHAR
STARTCHAR 0104
ENCODING 260
SWIDTH 750 0
DWIDTH 12 0
BBX 11 16 0 -4
BITMAP
0400
0600
0A00
0A00
0900
1100
1180
1F80
2080
2040
4040
E0E0
0040
0180
0120
01C0
ENDCHAR
STARTCHAR 0105
ENCODING 261
SWIDTH 562 0
DWIDTH 9 0
BBX 7 12 1 -4
BITMAP
78
C4
04
3C
C4
84
8C
74
04
08
08
0E
ENDCHAR
STARTCHAR 0106
ENCODING 262
SWIDTH 750 0
DWIDTH 12 0
BBX 10 14 1 1
BITMAP
0200
0400
0000
1F40
20C0
4040
8000
8000
8000
8000
8000
4040
2080
1F00
ENDCHAR
STARTCHAR 0107
ENCODING 263
SWIDTH 562 0
DWIDTH 9 0
BBX 7 11 1 1
BITMAP
08
10
00
3C
46
80
80
80
80
42
3C
ENDCHAR
STARTCHAR 0108
ENCODING 264
SWIDTH 750 0
DWIDTH 12 0
BBX 10 14 1 1
BITMAP
0600
0900
0000
1F40
20C0
4040
8000
8000
8000
8000
8000
4040
2080
1F00
ENDCHAR
STARTCHAR 0109
ENCODING 265
SWIDTH 562 0
DWIDTH 9 0
BBX 7 11 1 1
BITMAP
38
00
00
3C
46
80
80
80
80
42
3C
ENDCHAR
STARTCHAR 010C
ENCODING 268
SWIDTH 750 0
DWIDTH 12 0
BBX 10 14 1 0
BITMAP
0900
0600
0000
1F40
20C0
4040
8000
8000
8000
8000
8000
4040
2080
1F00
ENDCHAR
STARTCHAR 010D
ENCODING 269
SWIDTH 562 0
DWIDTH 9 0
BBX 7 11 1 1
BITMAP
28
10
00
3C
46
80
80
80
80
42
3C
ENDCHAR
STARTCHAR 010E
ENCODING 270
SWIDTH 812 0
DWIDTH 13 0
BBX 10 14 1 0
BITMAP
0200
1C00
0000
FE00
4180
4080
4040
4040
4040
4040
4040
4080
4180
FE00
ENDCHAR
STARTCHAR 010F
ENCODING 271
SWIDTH 625 0
DWIDTH 10 0
BBX 10 12 1 0
BITMAP
02C0
06C0
0280
0200
3A00
4600
8200
8200
8200
8200
4600
3B00
ENDCHAR
STARTCHAR 0111
ENCODING 273
SWIDTH 625 0
DWIDTH 10 0
BBX 8 12 1 1
BITMAP
06
02
0F
02
3A
46
82
82
82
82
46
3B
ENDCHAR
STARTCHAR 0112
ENCODING 274
SWIDTH 687 0
DWIDTH 11 0
BBX 9 14 1 0
BITMAP
3C00
0000
0000
FF00
4100
4080
4400
4400
7C00
4400
4400
4080
4080
E780
ENDCHAR
STARTCHAR 0113
ENCODING 275
SWIDTH 562 0
DWIDTH 9 0
BBX 7 11 1 0
BITMAP
3C
00
00
3C
46
82
FE
80
80
42
3C
ENDCHAR
STARTCHAR 0118
ENCODING 280
SWIDTH 687 0
DWIDTH 11 0
BBX 9 15 1 -4
BITMAP
FF00
4100
4080
4400
4400
7C00
4400
4400
4080
4080
E780
1800
2000
2000
3800
ENDCHAR
STARTCHAR 0119
ENCODING 281
SWIDTH 562 0
DWIDTH 9 0
BBX 7 12 1 -4
BITMAP
3C
46
82
FE
80
80
42
44
38
20
20
38
ENDCHAR
STARTCHAR 011A
ENCODING 282
SWIDTH 687 0
DWIDTH 11 0
BBX 9 14 1 0
BITMAP
2200
1C00
0000
FF00
4100
4080
4400
4400
7C00
4400
4400
4080
4080
E780
ENDCHAR
STARTCHAR 011B
ENCODING 283
SWIDTH 562 0
DWIDTH 9 0
BBX 7 11 1 1
BITMAP
28
10
00
3C
46
82
FE
80
80
42
3C
ENDCHAR
STARTCHAR 011C
ENCODING 284
SWIDTH 812 0
DWIDTH 13 0
BBX 11 14 1 1
BITMAP
0600
0900
0000
1F40
20C0
4040
8000
8000
8000
80E0
8040
4040
20C0
1F40
ENDCHAR
STARTCHAR 011D
ENCODING 285
SWIDTH 562 0
DWIDTH 9 0
BBX 7 14 1 -3
BITMAP
10
28
00
7C
84
84
84
78
40
78
86
82
C6
7C
ENDCHAR
STARTCHAR 0124
ENCODING 292
SWIDTH 812 0
DWIDTH 13 0
BBX 11 14 1 1
BITMAP
0E00
1100
0000
E0E0
4040
4040
4040
4040
7FC0
4040
4040
4040
4040
E0E0
ENDCHAR
STARTCHAR 0125
ENCODING 293
SWIDTH 625 0
DWIDTH 10 0
BBX 8 14 1 1
BITMAP
60
90
40
C0
40
40
5C
62
42
42
42
42
42
E7
ENDCHAR
STARTCHAR 0127
ENCODING 295
SWIDTH 625 0
DWIDTH 10 0
BBX 8 12 1 1
BITMAP
C0
40
F0
40
5C
62
42
42
42
42
42
E7
ENDCHAR
STARTCHAR 012A
ENCODING 298
SWIDTH 375 0
DWIDTH 6 0
BBX 3 14 1 0
BITMAP
E0
00
00
E0
40
40
40
40
40
40
40
40
40
E0
ENDCHAR
STARTCHAR 012B
ENCODING 299
SWIDTH 312 0
DWIDTH 5 0
BBX 4 11 0 0
BITMAP
F0
00
00
60
20
20
20
20
20
20
70
ENDCHAR
STARTCHAR 0134
ENCODING 308
SWIDTH 500 0
DWIDTH 8 0
BBX 6 14 0 1
BITMAP
18
24
00
1C
08
08
08
08
08
08
08
08
C8
70
ENDCHAR
STARTCHAR 0135
ENCODING 309
SWIDTH 312 0
DWIDTH 5 0
BBX 5 14 -1 -2
BITMAP
30
08
00
30
10
10
10
10
10
10
10
10
D0
E0
ENDCHAR
STARTCHAR 0139
ENCODING 313
SWIDTH 625 0
DWIDTH 10 0
BBX 8 14 2 1
BITMAP
20
40
00
E0
40
40
40
40
40
40
40
41
41
FF
ENDCHAR
STARTCHAR 013A
ENCODING 314
SWIDTH 312 0
DWIDTH 5 0
BBX 3 15 1 0
BITMAP
20
60
00
40
C0
40
40
40
40
40
40
40
40
40
E0
ENDCHAR
STARTCHAR 013D
ENCODING 317
SWIDTH 625 0
DWIDTH 10 0
BBX 8 12 2 0
BITMAP
06
E6
42
44
40
40
40
40
40
41
41
FF
ENDCHAR
STARTCHAR 013E
ENCODING 318
SWIDTH 312 0
DWIDTH 5 0
BBX 5 12 1 0
BITMAP
58
D8
48
50
40
40
40
40
40
40
40
E0
ENDCHAR
STARTCHAR 0141
ENCODING 321
SWIDTH 625 0
DWIDTH 10 0
BBX 9 11 1 0
BITMAP
7000
2000
2000
2800
3000
2000
E000
2000
2080
2080
7F80
ENDCHAR
STARTCHAR 0142
ENCODING 322
SWIDTH 312 0
DWIDTH 5 0
BBX 4 12 1 0
BITMAP
C0
40
40
40
50
60
C0
40
40
40
40
E0
ENDCHAR
STARTCHAR 0143
ENCODING 323
SWIDTH 812 0
DWIDTH 13 0
BBX 11 14 1 1
BITMAP
0200
0400
0000
E0E0
7040
5040
4840
4C40
4440
4240
4140
4140
40C0
E040
ENDCHAR
STARTCHAR 0144
ENCODING 324
SWIDTH 625 0
DWIDTH 10 0
BBX 8 12 1 0
BITMAP
04
08
00
00
DC
62
42
42
42
42
42
E7
ENDCHAR
STARTCHAR 0147
ENCODING 327
SWIDTH 812 0
DWIDTH 13 0
BBX 11 14 1 0
BITMAP
1200
0C00
0000
E0E0
7040
5040
4840
4C40
4440
4240
4140
4140
40C0
E040
ENDCHAR
STARTCHAR 0148
ENCODING 328
SWIDTH 625 0
DWIDTH 10 0
BBX 8 11 1 1
BITMAP
24
18
00
DC
62
42
42
42
42
42
E7
ENDCHAR
STARTCHAR 014B
ENCODING 331
SWIDTH 625 0
DWIDTH 10 0
BBX 7 11 1 -2
BITMAP
DC
62
42
42
42
42
42
E2
02
1A
1C
ENDCHAR
STARTCHAR 014C
ENCODING 332
SWIDTH 812 0
DWIDTH 13 0
BBX 11 14 1 0
BITMAP
1E00
0000
0000
1F00
2080
4040
8020
8020
8020
8020
8020
4040
2080
1F00
ENDCHAR
STARTCHAR 014D
ENCODING 333
SWIDTH 562 0
DWIDTH 9 0
BBX 8 11 1 0
BITMAP
3C
00
00
3C
42
81
81
81
81
42
3C
ENDCHAR
STARTCHAR 0150
ENCODING 336
SWIDTH 812 0
DWIDTH 13 0
BBX 11 14 1 1
BITMAP
0B00
0000
0000
1F00
2080
4040
8020
8020
8020
8020
8020
4040
2080
1F00
ENDCHAR
STARTCHAR 0151
ENCODING 337
SWIDTH 562 0
DWIDTH 9 0
BBX 8 12 1 0
BITMAP
10
14
00
00
3C
42
81
81
81
81
42
3C
ENDCHAR
STARTCHAR 0152
ENCODING 338
SWIDTH 1062 0
DWIDTH 17 0
BBX 15 11 1 0
BITMAP
1FFC
6104
4104
8110
8110
81F0
8110
8110
4102
4102
3B9C
ENDCHAR
STARTCHAR 0153
ENCODING 339
SWIDTH 937 0
DWIDTH 15 0
BBX 13 8 1 0
BITMAP
39E0
4710
8208
83F8
8200
8200
C708
79F0
ENDCHAR
STARTCHAR 0154
ENCODING 340
SWIDTH 687 0
DWIDTH 11 0
BBX 9 15 1 0
BITMAP
0400
0C00
1000
0000
FE00
4100
4100
4100
4200
7C00
4400
4200
4300
4100
E180
ENDCHAR
STARTCHAR 0155
ENCODING 341
SWIDTH 375 0
DWIDTH 6 0
BBX 5 12 1 0
BITMAP
10
20
00
00
D8
60
40
40
40
40
40
E0
ENDCHAR
STARTCHAR 0158
ENCODING 344
SWIDTH 687 0
DWIDTH 11 0
BBX 9 14 1 0
BITMAP
2400
1800
0000
FE00
4100
4100
4100
4200
7C00
4400
4200
4300
4100
E180
ENDCHAR
STARTCHAR 0159
ENCODING 345
SWIDTH 375 0
DWIDTH 6 0
BBX 5 11 1 1
BITMAP
50
20
00
D8
60
40
40
40
40
40
E0
ENDCHAR
STARTCHAR 015A
ENCODING 346
SWIDTH 625 0
DWIDTH 10 0
BBX 7 14 1 1
BITMAP
08
10
00
78
C6
82
80
40
38
04
02
82
C6
BC
ENDCHAR
STARTCHAR 015B
ENCODING 347
SWIDTH 500 0
DWIDTH 8 0
BBX 5 12 1 0
BITMAP
10
30
00
00
78
88
80
40
30
88
88
70
ENDCHAR
STARTCHAR 015C
ENCODING 348
SWIDTH 625 0
DWIDTH 10 0
BBX 7 14 1 1
BITMAP
18
24
00
78
C6
82
80
40
38
04
02
82
C6
BC
ENDCHAR
STARTCHAR 015D
ENCODING 349
SWIDTH 500 0
DWIDTH 8 0
BBX 5 11 1 1
BITMAP
30
40
00
78
88
80
40
30
88
88
70
ENDCHAR
STARTCHAR 015E
ENCODING 350
SWIDTH 625 0
DWIDTH 10 0
BBX 7 14 1 -3
BITMAP
78
C6
82
80
40
38
04
02
82
C6
BC
00
10
10
ENDCHAR
STARTCHAR 015F
ENCODING 351
SWIDTH 500 0
DWIDTH 8 0
BBX 5 12 1 -3
BITMAP
78
88
80
40
30
88
88
70
00
30
10
20
ENDCHAR
STARTCHAR 0160
ENCODING 352
SWIDTH 625 0
DWIDTH 10 0
BBX 7 14 1 0
BITMAP
04
38
00
78
C6
82
80
40
38
04
02
82
C6
BC
ENDCHAR
STARTCHAR 0161
ENCODING 353
SWIDTH 500 0
DWIDTH 8 0
BBX 5 11 1 0
BITMAP
50
20
00
78
88
80
40
30
88
88
70
ENDCHAR
STARTCHAR 0162
ENCODING 354
SWIDTH 625 0
DWIDTH 10 0
BBX 9 14 0 -4
BITMAP
FF80
8880
0800
0800
0800
0800
0800
0800
0800
0800
1C00
0000
0800
0800
ENDCHAR
STARTCHAR 0163
ENCODING 355
SWIDTH 312 0
DWIDTH 5 0
BBX 4 13 1 -3
BITMAP
40
40
F0
40
40
40
40
40
40
70
00
20
20
ENDCHAR
STARTCHAR 0164
ENCODING 356
SWIDTH 625 0
DWIDTH 10 0
BBX 9 14 0 0
BITMAP
0200
1C00
0000
FF80
8880
0800
0800
0800
0800
0800
0800
0800
0800
1C00
ENDCHAR
STARTCHAR 0165
ENCODING 357
SWIDTH 312 0
DWIDTH 5 0
BBX 5 12 1 0
BITMAP
18
08
48
40
F0
40
40
40
40
40
40
70
ENDCHAR
STARTCHAR 016A
ENCODING 362
SWIDTH 812 0
DWIDTH 13 0
BBX 11 14 1 0
BITMAP
0F00
0000
0000
E0E0
4040
4040
4040
4040
4040
4040
4040
4040
2080
1F00
ENDCHAR
STARTCHAR 016B
ENCODING 363
SWIDTH 625 0
DWIDTH 10 0
BBX 8 11 1 0
BITMAP
3C
00
00
C6
42
42
42
42
42
46
3B
ENDCHAR
STARTCHAR 016C
ENCODING 364
SWIDTH 812 0
DWIDTH 13 0
BBX 11 14 1 0
BITMAP
1100
0E00
0000
E0E0
4040
4040
4040
4040
4040
4040
4040
4040
2080
1F00
ENDCHAR
STARTCHAR 016D
ENCODING 365
SWIDTH 625 0
DWIDTH 10 0
BBX 8 11 1 1
BITMAP
3C
00
00
C6
42
42
42
42
42
46
3B
ENDCHAR
STARTCHAR 016E
ENCODING 366
SWIDTH 812 0
DWIDTH 13 0
BBX 11 15 1 0
BITMAP
0C00
0A00
0E00
0000
E0E0
4040
4040
4040
4040
4040
4040
4040
4040
2080
1F00
ENDCHAR
STARTCHAR 016F
ENCODING 367
SWIDTH 625 0
DWIDTH 10 0
BBX 8 11 1 0
BITMAP
18
18
00
C6
42
42
42
42
42
46
3B
ENDCHAR
STARTCHAR 0170
ENCODING 368
SWIDTH 812 0
DWIDTH 13 0
BBX 11 14 1 1
BITMAP
0B00
0000
0000
E0E0
4040
4040
4040
4040
4040
4040
4040
4040
2080
1F00
ENDCHAR
STARTCHAR 0171
ENCODING 369
SWIDTH 625 0
DWIDTH 10 0
BBX 8 12 1 0
BITMAP
10
14
00
00
C6
42
42
42
42
42
46
3B
ENDCHAR
STARTCHAR 0179
ENCODING 377
SWIDTH 625 0
DWIDTH 10 0
BBX 9 15 0 0
BITMAP
0200
0600
0800
0000
7F80
4180
8100
0200
0400
0800
1800
3000
2080
4080
7F80
ENDCHAR
STARTCHAR 017A
ENCODING 378
SWIDTH 437 0
DWIDTH 7 0
BBX 6 12 1 0
BITMAP
08
10
00
00
FC
88
10
30
20
44
84
FC
ENDCHAR
STARTCHAR 017B
ENCODING 379
SWIDTH 625 0
DWIDTH 10 0
BBX 9 14 0 0
BITMAP
0C00
0C00
0000
7F80
4180
8100
0200
0400
0800
1800
3000
2080
4080
7F80
ENDCHAR
STARTCHAR 017C
ENCODING 380
SWIDTH 437 0
DWIDTH 7 0
BBX 6 11 1 0
BITMAP
30
30
00
FC
88
10
30
20
44
84
FC
ENDCHAR
STARTCHAR 017D
ENCODING 381
SWIDTH 625 0
DWIDTH 10 0
BBX 9 14 0 0
BITMAP
1200
0C00
0000
7F80
4180
8100
0200
0400
0800
1800
3000
2080
4080
7F80
ENDCHAR
STARTCHAR 017E
ENCODING 382
SWIDTH 437 0
DWIDTH 7 0
BBX 6 11 1 1
BITMAP
48
30
00
FC
88
10
30
20
44
84
FC
ENDCHAR
STARTCHAR 0193
ENCODING 403
SWIDTH 812 0
DWIDTH 13 0
BBX 13 14 1 0
BITMAP
0038
0048
0040
1F40
20C0
4040
8000
8000
8000
80E0
8040
4040
20C0
1F40
ENDCHAR
STARTCHAR 01C2
ENCODING 450
SWIDTH 500 0
DWIDTH 8 0
BBX 7 11 1 0
BITMAP
10
10
10
FE
10
10
FE
10
10
10
10
ENDCHAR
STARTCHAR 01CD
ENCODING 461
SWIDTH 750 0
DWIDTH 12 0
BBX 11 15 0 0
BITMAP
0100
0E00
0000
0400
0600
0A00
0A00
0900
1100
1180
1F80
2080
2040
4040
E0E0
ENDCHAR
STARTCHAR 01CE
ENCODING 462
SWIDTH 562 0
DWIDTH 9 0
BBX 7 11 1 1
BITMAP
28
10
00
78
C4
04
3C
C4
84
8C
76
ENDCHAR
STARTCHAR 01D0
ENCODING 464
SWIDTH 312 0
DWIDTH 5 0
BBX 3 11 1 1
BITMAP
A0
40
00
C0
40
40
40
40
40
40
E0
ENDCHAR
STARTCHAR 01D1
ENCODING 465
SWIDTH 812 0
DWIDTH 13 0
BBX 11 14 1 0
BITMAP
1100
0E00
0000
1F00
2080
4040
8020
8020
8020
8020
8020
4040
2080
1F00
ENDCHAR
STARTCHAR 01D2
ENCODING 466
SWIDTH 562 0
DWIDTH 9 0
BBX 8 11 1 1
BITMAP
28
10
00
3C
42
81
81
81
81
42
3C
ENDCHAR
STARTCHAR 01D4
ENCODING 468
SWIDTH 625 0
DWIDTH 10 0
BBX 8 11 1 1
BITMAP
24
18
00
C6
42
42
42
42
42
46
3B
ENDCHAR
STARTCHAR 01D6
ENCODING 470
SWIDTH 625 0
DWIDTH 10 0
BBX 8 13 1 0
BITMAP
3C
00
28
00
00
C6
42
42
42
42
42
46
3B
ENDCHAR
STARTCHAR 01D8
ENCODING 472
SWIDTH 625 0
DWIDTH 10 0
BBX 8 13 1 1
BITMAP
08
10
28
00
00
C6
42
42
42
42
42
46
3B
ENDCHAR
STARTCHAR 01DA
ENCODING 474
SWIDTH 625 0
DWIDTH 10 0
BBX 8 13 1 1
BITMAP
28
10
28
00
00
C6
42
42
42
42
42
46
3B
ENDCHAR
STARTCHAR 01DC
ENCODING 476
SWIDTH 625 0
DWIDTH 10 0
BBX 8 13 1 1
BITMAP
30
08
28
00
00
C6
42
42
42
42
42
46
3B
ENDCHAR
STARTCHAR 01F8
ENCODING 504
SWIDTH 812 0
DWIDTH 13 0
BBX 11 14 1 1
BITMAP
1800
0400
0000
E0E0
7040
5040
4840
4C40
4440
4240
4140
4140
40C0
E040
ENDCHAR
STARTCHAR 01F9
ENCODING 505
SWIDTH 625 0
DWIDTH 10 0
BBX 8 11 1 1
BITMAP
20
10
00
DC
62
42
42
42
42
42
E7
ENDCHAR
STARTCHAR 01FD
ENCODING 509
SWIDTH 875 0
DWIDTH 14 0
BBX 12 12 1 0
BITMAP
0100
0200
0000
0000
7BC0
C620
0410
3FF0
C400
8400
8A10
71E0
ENDCHAR
STARTCHAR 0250
ENCODING 592
SWIDTH 562 0
DWIDTH 9 0
BBX 7 8 1 0
BITMAP
DC
62
42
44
78
46
46
3C
ENDCHAR
STARTCHAR 0251
ENCODING 593
SWIDTH 562 0
DWIDTH 9 0
BBX 8 8 1 1
BITMAP
3A
46
82
82
82
82
46
3B
ENDCHAR
STARTCHAR 0252
ENCODING 594
SWIDTH 562 0
DWIDTH 9 0
BBX 8 8 1 0
BITMAP
DC
62
41
41
41
41
62
5C
ENDCHAR
STARTCHAR 0253
ENCODING 595
SWIDTH 625 0
DWIDTH 10 0
BBX 7 11 2 0
BITMAP
78
C4
80
B8
C4
82
82
82
82
C4
B8
ENDCHAR
STARTCHAR 0254
ENCODING 596
SWIDTH 562 0
DWIDTH 9 0
BBX 7 8 1 0
BITMAP
78
84
02
02
02
82
84
78
ENDCHAR
STARTCHAR 0255
ENCODING 597
SWIDTH 562 0
DWIDTH 9 0
BBX 7 9 1 -2
BITMAP
3C
46
80
80
80
8E
52
3C
20
ENDCHAR
STARTCHAR 0256
ENCODING 598
SWIDTH 625 0
DWIDTH 10 0
BBX 10 15 1 -3
BITMAP
0600
0200
0200
0200
3A00
4600
8200
8200
8200
8200
4600
3A00
0200
02C0
01C0
ENDCHAR
STARTCHAR 0257
ENCODING 599
SWIDTH 625 0
DWIDTH 10 0
BBX 10 11 1 0
BITMAP
01C0
0200
0200
3A00
4600
8200
8200
8200
8200
4600
3B00
ENDCHAR
STARTCHAR 0258
ENCODING 600
SWIDTH 562 0
DWIDTH 9 0
BBX 7 8 1 0
BITMAP
78
C4
82
FE
02
02
84
78
ENDCHAR
STARTCHAR 0259
ENCODING 601
SWIDTH 562 0
DWIDTH 9 0
BBX 7 8 1 0
BITMAP
78
84
02
02
FE
82
C4
78
ENDCHAR
STARTCHAR 025A
ENCODING 602
SWIDTH 750 0
DWIDTH 12 0
BBX 11 8 1 0
BITMAP
3C00
4680
8380
8540
1960
6100
6200
3C00
ENDCHAR
STARTCHAR 025C
ENCODING 604
SWIDTH 500 0
DWIDTH 8 0
BBX 6 8 1 0
BITMAP
F8
04
04
78
04
04
0C
F8
ENDCHAR
STARTCHAR 025E
ENCODING 606
SWIDTH 562 0
DWIDTH 9 0
BBX 7 8 1 0
BITMAP
3C
42
82
BC
82
82
46
3C
ENDCHAR
STARTCHAR 025F
ENCODING 607
SWIDTH 312 0
DWIDTH 5 0
BBX 5 11 -1 -3
BITMAP
38
10
10
10
10
10
10
78
10
90
E0
ENDCHAR
STARTCHAR 0260
ENCODING 608
SWIDTH 625 0
DWIDTH 10 0
BBX 10 14 1 -3
BITMAP
01C0
0200
0200
3A00
4600
8200
8200
8200
8200
4600
3A00
C200
C600
7C00
ENDCHAR
STARTCHAR 0261
ENCODING 609
SWIDTH 625 0
DWIDTH 10 0
BBX 7 11 1 -2
BITMAP
3A
46
82
82
82
82
46
3A
C2
C6
7C
ENDCHAR
STARTCHAR 0264
ENCODING 612
SWIDTH 562 0
DWIDTH 9 0
BBX 8 8 1 0
BITMAP
C3
2C
10
28
24
24
24
18
ENDCHAR
STARTCHAR 0265
ENCODING 613
SWIDTH 625 0
DWIDTH 10 0
BBX 8 11 1 -4
BITMAP
E7
42
42
42
42
42
46
3A
02
02
03
ENDCHAR
STARTCHAR 0266
ENCODING 614
SWIDTH 625 0
DWIDTH 10 0
BBX 8 11 1 0
BITMAP
3C
42
40
5C
62
42
42
42
42
42
E7
ENDCHAR
STARTCHAR 0267
ENCODING 615
SWIDTH 625 0
DWIDTH 10 0
BBX 7 14 1 -3
BITMAP
3C
42
40
5C
62
42
42
42
42
42
E2
02
1A
1C
ENDCHAR
STARTCHAR 0268
ENCODING 616
SWIDTH 312 0
DWIDTH 5 0
BBX 5 11 0 0
BITMAP
30
30
00
60
20
20
F8
20
20
20
70
ENDCHAR
STARTCHAR 026C
ENCODING 620
SWIDTH 375 0
DWIDTH 6 0
BBX 5 11 1 1
BITMAP
30
10
D0
B0
90
78
10
10
10
10
38
ENDCHAR
STARTCHAR 026D
ENCODING 621
SWIDTH 312 0
DWIDTH 5 0
BBX 5 15 1 -3
BITMAP
40
C0
40
40
40
40
40
40
40
40
40
40
40
58
38
ENDCHAR
STARTCHAR 026E
ENCODING 622
SWIDTH 625 0
DWIDTH 10 0
BBX 8 16 1 -4
BITMAP
C0
40
40
40
7F
43
46
4C
48
4E
43
E1
01
21
23
1E
ENDCHAR
STARTCHAR 026F
ENCODING 623
SWIDTH 875 0
DWIDTH 14 0
BBX 13 8 1 -1
BITMAP
E738
4210
4210
4210
4210
4210
4630
39D8
ENDCHAR
STARTCHAR 0270
ENCODING 624
SWIDTH 875 0
DWIDTH 14 0
BBX 13 12 1 -4
BITMAP
E738
4210
4210
4210
4210
4210
4630
39D0
0010
0010
0010
0008
ENDCHAR
STARTCHAR 0271
ENCODING 625
SWIDTH 875 0
DWIDTH 14 0
BBX 12 11 1 -2
BITMAP
DCE0
6310
4210
4210
4210
4210
4210
E710
0010
0090
00E0
ENDCHAR
STARTCHAR 0272
ENCODING 626
SWIDTH 625 0
DWIDTH 10 0
BBX 10 11 -1 -2
BITMAP
3700
1880
1080
1080
1080
1080
1080
11C0
1000
D000
E000
ENDCHAR
STARTCHAR 0273
ENCODING 627
SWIDTH 625 0
DWIDTH 10 0
BBX 10 11 1 -2
BITMAP
DC00
6200
4200
4200
4200
4200
4200
E200
0200
02C0
01C0
ENDCHAR
STARTCHAR 0275
ENCODING 629
SWIDTH 562 0
DWIDTH 9 0
BBX 8 8 1 0
BITMAP
3C
46
83
FF
83
83
46
3C
ENDCHAR
STARTCHAR 0279
ENCODING 633
SWIDTH 437 0
DWIDTH 7 0
BBX 5 8 1 -1
BITMAP
38
10
10
10
10
10
30
D8
ENDCHAR
STARTCHAR 027A
ENCODING 634
SWIDTH 437 0
DWIDTH 7 0
BBX 5 11 1 -1
BITMAP
38
10
10
10
10
10
10
10
10
30
D8
ENDCHAR
STARTCHAR 027B
ENCODING 635
SWIDTH 437 0
DWIDTH 7 0
BBX 7 11 0 -3
BITMAP
38
10
10
10
10
10
30
D0
10
16
0E
ENDCHAR
STARTCHAR 027D
ENCODING 637
SWIDTH 375 0
DWIDTH 6 0
BBX 5 11 1 -2
BITMAP
D8
60
40
40
40
40
40
40
40
58
38
ENDCHAR
STARTCHAR 027E
ENCODING 638
SWIDTH 375 0
DWIDTH 6 0
BBX 5 8 1 0
BITMAP
38
58
40
40
40
40
40
E0
ENDCHAR
STARTCHAR 0281
ENCODING 641
SWIDTH 500 0
DWIDTH 8 0
BBX 7 8 1 0
BITMAP
E2
44
44
48
74
42
42
FC
ENDCHAR
STARTCHAR 0282
ENCODING 642
SWIDTH 500 0
DWIDTH 8 0
BBX 5 11 1 -2
BITMAP
78
88
80
40
30
88
88
F0
80
A0
E0
ENDCHAR
STARTCHAR 0283
ENCODING 643
SWIDTH 437 0
DWIDTH 7 0
BBX 7 14 0 -3
BITMAP
0E
10
10
10
10
10
10
10
10
10
10
10
10
E0
ENDCHAR
STARTCHAR 0284
ENCODING 644
SWIDTH 312 0
DWIDTH 5 0
BBX 7 14 -1 -3
BITMAP
0E
10
10
10
10
10
10
10
10
10
7C
10
D0
E0
ENDCHAR
STARTCHAR 0288
ENCODING 648
SWIDTH 312 0
DWIDTH 5 0
BBX 5 13 1 -2
BITMAP
40
40
F0
40
40
40
40
40
40
40
40
58
38
ENDCHAR
STARTCHAR 0289
ENCODING 649
SWIDTH 625 0
DWIDTH 10 0
BBX 8 8 1 1
BITMAP
C6
42
42
FF
42
42
46
3B
ENDCHAR
STARTCHAR 028A
ENCODING 650
SWIDTH 625 0
DWIDTH 10 0
BBX 8 8 1 0
BITMAP
E7
44
82
82
82
82
44
3C
ENDCHAR
STARTCHAR 028B
ENCODING 651
SWIDTH 562 0
DWIDTH 9 0
BBX 7 8 1 0
BITMAP
C2
42
42
42
42
42
44
38
ENDCHAR
STARTCHAR 028C
ENCODING 652
SWIDTH 562 0
DWIDTH 9 0
BBX 8 8 0 1
BITMAP
08
18
14
24
24
22
42
E3
ENDCHAR
STARTCHAR 028D
ENCODING 653
SWIDTH 750 0
DWIDTH 12 0
BBX 12 8 0 1
BITMAP
1080
1880
2940
2540
2660
4620
4220
E730
ENDCHAR
STARTCHAR 028E
ENCODING 654
SWIDTH 562 0
DWIDTH 9 0
BBX 8 11 0 0
BITMAP
06
0A
08
08
18
18
24
24
22
42
C3
ENDCHAR
STARTCHAR 0290
ENCODING 656
SWIDTH 562 0
DWIDTH 9 0
BBX 9 11 1 -3
BITMAP
FC00
8800
1800
1000
2000
4000
8400
FC00
0400
0580
0380
ENDCHAR
STARTCHAR 0291
ENCODING 657
SWIDTH 500 0
DWIDTH 8 0
BBX 7 9 1 -2
BITMAP
FC
88
10
30
20
4E
92
FE
20
ENDCHAR
STARTCHAR 0292
ENCODING 658
SWIDTH 500 0
DWIDTH 8 0
BBX 6 12 1 -4
BITMAP
FC
8C
18
30
78
08
04
04
04
84
88
70
ENDCHAR
STARTCHAR 0294
ENCODING 660
SWIDTH 500 0
DWIDTH 8 0
BBX 7 11 0 0
BITMAP
7C
86
C2
02
04
18
10
10
10
10
38
ENDCHAR
STARTCHAR 0295
ENCODING 661
SWIDTH 500 0
DWIDTH 8 0
BBX 7 11 1 0
BITMAP
7C
C2
86
80
40
30
10
10
10
10
38
ENDCHAR
STARTCHAR 0298
ENCODING 664
SWIDTH 625 0
DWIDTH 10 0
BBX 8 8 1 0
BITMAP
3C
42
81
99
99
81
42
3C
ENDCHAR
STARTCHAR 029D
ENCODING 669
SWIDTH 312 0
DWIDTH 5 0
BBX 5 14 -1 -3
BITMAP
18
18
00
30
10
10
10
10
10
10
10
F0
98
F0
ENDCHAR
STARTCHAR 02A1
ENCODING 673
SWIDTH 500 0
DWIDTH 8 0
BBX 7 11 0 0
BITMAP
7C
86
C2
02
04
18
7C
10
10
10
38
ENDCHAR
STARTCHAR 02A2
ENCODING 674
SWIDTH 500 0
DWIDTH 8 0
BBX 7 11 1 0
BITMAP
7C
C2
86
80
40
30
7C
10
10
10
38
ENDCHAR
STARTCHAR 02BB
ENCODING 699
SWIDTH 1000 0
DWIDTH 16 0
BBX 3 4 12 10
BITMAP
40
C0
E0
E0
ENDCHAR
STARTCHAR 02BC
ENCODING 700
SWIDTH 1000 0
DWIDTH 16 0
BBX 3 4 1 8
BITMAP
E0
E0
40
40
ENDCHAR
STARTCHAR 02C6
ENCODING 710
SWIDTH 500 0
DWIDTH 8 0
BBX 4 2 2 10
BITMAP
60
90
ENDCHAR
STARTCHAR 02C7
ENCODING 711
SWIDTH 500 0
DWIDTH 8 0
BBX 4 2 2 10
BITMAP
90
60
ENDCHAR
STARTCHAR 02C8
ENCODING 712
SWIDTH 187 0
DWIDTH 3 0
BBX 1 6 1 5
BITMAP
80
80
80
80
80
80
ENDCHAR
STARTCHAR 02CC
ENCODING 716
SWIDTH 187 0
DWIDTH 3 0
BBX 1 6 1 -2
BITMAP
80
80
80
80
80
80
ENDCHAR
STARTCHAR 02D0
ENCODING 720
SWIDTH 312 0
DWIDTH 5 0
BBX 1 8 2 0
BITMAP
80
80
00
00
00
00
80
80
ENDCHAR
STARTCHAR 02D1
ENCODING 721
SWIDTH 312 0
DWIDTH 5 0
BBX 1 2 2 6
BITMAP
80
80
ENDCHAR
STARTCHAR 02D8
ENCODING 728
SWIDTH 500 0
DWIDTH 8 0
BBX 4 1 2 11
BITMAP
F0
ENDCHAR
STARTCHAR 02D9
ENCODING 729
SWIDTH 500 0
DWIDTH 8 0
BBX 2 2 3 9
BITMAP
C0
C0
ENDCHAR
STARTCHAR 02DB
ENCODING 731
SWIDTH 500 0
DWIDTH 8 0
BBX 3 4 3 -3
BITMAP
40
80
80
E0
ENDCHAR
STARTCHAR 02DC
ENCODING 732
SWIDTH 500 0
DWIDTH 8 0
BBX 4 2 2 9
BITMAP
C0
30
ENDCHAR
STARTCHAR 02DD
ENCODING 733
SWIDTH 500 0
DWIDTH 8 0
BBX 4 3 2 9
BITMAP
50
90
20
ENDCHAR
STARTCHAR 02DE
ENCODING 734
SWIDTH 500 0
DWIDTH 8 0
BBX 4 4 2 0
BITMAP
E0
20
20
30
ENDCHAR
STARTCHAR 02E5
ENCODING 741
SWIDTH 500 0
DWIDTH 8 0
BBX 4 12 0 -1
BITMAP
F0
10
10
10
10
10
10
10
10
10
10
10
ENDCHAR
STARTCHAR 02E6
ENCODING 742
SWIDTH 500 0
DWIDTH 8 0
BBX 4 12 0 0
BITMAP
10
10
10
F0
10
10
10
10
10
10
10
10
ENDCHAR
STARTCHAR 02E7
ENCODING 743
SWIDTH 500 0
DWIDTH 8 0
BBX 4 11 0 0
BITMAP
10
10
10
10
10
F0
10
10
10
10
10
ENDCHAR
STARTCHAR 02E8
ENCODING 744
SWIDTH 500 0
DWIDTH 8 0
BBX 4 12 0 0
BITMAP
10
10
10
10
10
10
10
10
F0
10
10
10
ENDCHAR
STARTCHAR 02E9
ENCODING 745
SWIDTH 500 0
DWIDTH 8 0
BBX 4 12 0 0
BITMAP
10
10
10
10
10
10
10
10
10
10
10
F0
ENDCHAR
STARTCHAR 0300
ENCODING 768
SWIDTH 500 0
DWIDTH 8 0
BBX 2 2 3 10
BITMAP
80
40
ENDCHAR
STARTCHAR 0301
ENCODING 769
SWIDTH 500 0
DWIDTH 8 0
BBX 2 2 4 9
BITMAP
40
80
ENDCHAR
STARTCHAR 0302
ENCODING 770
SWIDTH 500 0
DWIDTH 8 0
BBX 4 2 2 10
BITMAP
60
90
ENDCHAR
STARTCHAR 0303
ENCODING 771
SWIDTH 500 0
DWIDTH 8 0
BBX 4 2 2 9
BITMAP
C0
30
ENDCHAR
STARTCHAR 0304
ENCODING 772
SWIDTH 500 0
DWIDTH 8 0
BBX 4 1 2 10
BITMAP
F0
ENDCHAR
STARTCHAR 0305
ENCODING 773
SWIDTH 500 0
DWIDTH 8 0
BBX 4 1 2 10
BITMAP
F0
ENDCHAR
STARTCHAR 0306
ENCODING 774
SWIDTH 500 0
DWIDTH 8 0
BBX 4 1 2 11
BITMAP
F0
ENDCHAR
STARTCHAR 0308
ENCODING 776
SWIDTH 500 0
DWIDTH 8 0
BBX 4 1 2 10
BITMAP
90
ENDCHAR
STARTCHAR 030B
ENCODING 779
SWIDTH 500 0
DWIDTH 8 0
BBX 4 3 2 9
BITMAP
50
90
20
ENDCHAR
STARTCHAR 030C
ENCODING 780
SWIDTH 500 0
DWIDTH 8 0
BBX 4 2 2 10
BITMAP
90
60
ENDCHAR
STARTCHAR 030F
ENCODING 783
SWIDTH 500 0
DWIDTH 8 0
BBX 4 3 2 9
BITMAP
A0
A0
10
ENDCHAR
STARTCHAR 0318
ENCODING 792
SWIDTH 500 0
DWIDTH 8 0
BBX 3 5 2 -5
BITMAP
20
20
E0
20
20
ENDCHAR
STARTCHAR 0319
ENCODING 793
SWIDTH 500 0
DWIDTH 8 0
BBX 3 5 3 -5
BITMAP
80
80
E0
80
80
ENDCHAR
STARTCHAR 031A
ENCODING 794
SWIDTH 500 0
DWIDTH 8 0
BBX 4 4 0 6
BITMAP
F0
10
10
10
ENDCHAR
STARTCHAR 031C
ENCODING 796
SWIDTH 500 0
DWIDTH 8 0
BBX 1 3 3 -4
BITMAP
80
80
80
ENDCHAR
STARTCHAR 031D
ENCODING 797
SWIDTH 500 0
DWIDTH 8 0
BBX 5 3 2 -3
BITMAP
20
20
F8
ENDCHAR
STARTCHAR 031E
ENCODING 798
SWIDTH 500 0
DWIDTH 8 0
BBX 5 3 2 -4
BITMAP
F8
20
20
ENDCHAR
STARTCHAR 031F
ENCODING 799
SWIDTH 500 0
DWIDTH 8 0
BBX 5 5 2 -5
BITMAP
20
20
F8
20
20
ENDCHAR
STARTCHAR 0320
ENCODING 800
SWIDTH 500 0
DWIDTH 8 0
BBX 4 1 2 -2
BITMAP
F0
ENDCHAR
STARTCHAR 0324
ENCODING 804
SWIDTH 500 0
DWIDTH 8 0
BBX 4 1 2 -2
BITMAP
90
ENDCHAR
STARTCHAR 0325
ENCODING 805
SWIDTH 500 0
DWIDTH 8 0
BBX 2 2 3 -3
BITMAP
C0
C0
ENDCHAR
STARTCHAR 0327
ENCODING 807
SWIDTH 500 0
DWIDTH 8 0
BBX 4 4 2 -3
BITMAP
40
30
10
E0
ENDCHAR
STARTCHAR 0329
ENCODING 809
SWIDTH 500 0
DWIDTH 8 0
BBX 1 4 4 -5
BITMAP
80
80
80
80
ENDCHAR
STARTCHAR 032A
ENCODING 810
SWIDTH 500 0
DWIDTH 8 0
BBX 4 3 2 -4
BITMAP
F0
90
90
ENDCHAR
STARTCHAR 032C
ENCODING 812
SWIDTH 500 0
DWIDTH 8 0
BBX 3 1 2 -2
BITMAP
E0
ENDCHAR
STARTCHAR 032F
ENCODING 815
SWIDTH 500 0
DWIDTH 8 0
BBX 4 1 2 -3
BITMAP
F0
ENDCHAR
STARTCHAR 0330
ENCODING 816
SWIDTH 500 0
DWIDTH 8 0
BBX 4 1 2 -3
BITMAP
F0
ENDCHAR
STARTCHAR 0332
ENCODING 818
SWIDTH 500 0
DWIDTH 8 0
BBX 8 1 0 -2
BITMAP
FF
ENDCHAR
STARTCHAR 0334
ENCODING 820
SWIDTH 500 0
DWIDTH 8 0
BBX 4 1 2 5
BITMAP
F0
ENDCHAR
STARTCHAR 0336
ENCODING 822
SWIDTH 875 0
DWIDTH 14 0
BBX 14 1 0 5
BITMAP
FFFC
ENDCHAR
STARTCHAR 0339
ENCODING 825
SWIDTH 500 0
DWIDTH 8 0
BBX 1 3 4 -4
BITMAP
80
80
80
ENDCHAR
STARTCHAR 033A
ENCODING 826
SWIDTH 500 0
DWIDTH 8 0
BBX 4 3 2 -4
BITMAP
90
90
F0
ENDCHAR
STARTCHAR 033B
ENCODING 827
SWIDTH 500 0
DWIDTH 8 0
BBX 4 3 2 -4
BITMAP
F0
90
F0
ENDCHAR
STARTCHAR 033C
ENCODING 828
SWIDTH 500 0
DWIDTH 8 0
BBX 4 1 2 -3
BITMAP
F0
ENDCHAR
STARTCHAR 033D
ENCODING 829
SWIDTH 500 0
DWIDTH 8 0
BBX 4 3 2 9
BITMAP
90
60
60
ENDCHAR
STARTCHAR 0361
ENCODING 865
SWIDTH 0 0
DWIDTH 0 0
BBX 8 2 -4 12
BITMAP
7E
81
ENDCHAR
STARTCHAR 0391
ENCODING 913
SWIDTH 1000 0
DWIDTH 16 0
BBX 10 10 3 2
BITMAP
0C00
1400
1600
1200
2300
2100
7F80
4180
8080
80C0
ENDCHAR
STARTCHAR 0392
ENCODING 914
SWIDTH 1000 0
DWIDTH 16 0
BBX 9 11 4 1
BITMAP
FE00
4100
4100
4100
4200
7C00
4300
4080
4080
4080
4300
ENDCHAR
STARTCHAR 0393
ENCODING 915
SWIDTH 1000 0
DWIDTH 16 0
BBX 10 11 3 1
BITMAP
FFC0
2040
2040
2000
2000
2000
2000
2000
2000
2000
7000
ENDCHAR
STARTCHAR 0394
ENCODING 916
SWIDTH 1000 0
DWIDTH 16 0
BBX 10 11 3 2
BITMAP
0C00
0C00
1600
1200
2200
2100
4100
4080
8080
8040
FFC0
ENDCHAR
STARTCHAR 0395
ENCODING 917
SWIDTH 1000 0
DWIDTH 16 0
BBX 10 11 3 1
BITMAP
FF80
4080
4000
4000
4200
7E00
4200
4000
4040
40C0
FFC0
ENDCHAR
STARTCHAR 0396
ENCODING 918
SWIDTH 1000 0
DWIDTH 16 0
BBX 9 11 3 1
BITMAP
7F80
4100
4300
0200
0400
0800
1000
3000
2080
4080
FF80
ENDCHAR
STARTCHAR 0397
ENCODING 919
SWIDTH 1000 0
DWIDTH 16 0
BBX 10 11 3 1
BITMAP
E1C0
4080
4080
4080
4080
7F80
4080
4080
4080
4080
4080
ENDCHAR
STARTCHAR 0398
ENCODING 920
SWIDTH 1000 0
DWIDTH 16 0
BBX 10 12 3 0
BITMAP
1E00
2100
4080
8040
8040
BF40
8040
8040
8040
4080
6180
1E00
ENDCHAR
STARTCHAR 0399
ENCODING 921
SWIDTH 1000 0
DWIDTH 16 0
BBX 3 11 6 1
BITMAP
E0
40
40
40
40
40
40
40
40
40
E0
ENDCHAR
STARTCHAR 039A
ENCODING 922
SWIDTH 1000 0
DWIDTH 16 0
BBX 10 11 3 1
BITMAP
E180
4200
4400
4800
4800
7C00
4400
4200
4100
4080
E0C0
ENDCHAR
STARTCHAR 039B
ENCODING 923
SWIDTH 1000 0
DWIDTH 16 0
BBX 10 11 3 2
BITMAP
0C00
0C00
1400
1200
2200
2300
4100
4100
8180
8080
C1C0
ENDCHAR
STARTCHAR 039C
ENCODING 924
SWIDTH 1000 0
DWIDTH 16 0
BBX 12 11 2 1
BITMAP
E030
6060
50A0
50A0
50A0
4920
4920
4520
4620
4620
C430
ENDCHAR
STARTCHAR 039D
ENCODING 925
SWIDTH 1000 0
DWIDTH 16 0
BBX 10 11 3 0
BITMAP
E0C0
6080
5080
4880
4880
4480
4480
4280
4180
4180
C080
ENDCHAR
STARTCHAR 039E
ENCODING 926
SWIDTH 1000 0
DWIDTH 16 0
BBX 10 11 3 1
BITMAP
7F80
0000
0000
0000
0000
3F00
0000
0000
0000
8040
FFC0
ENDCHAR
STARTCHAR 039F
ENCODING 927
SWIDTH 1000 0
DWIDTH 16 0
BBX 10 12 3 0
BITMAP
1E00
2100
4080
8040
8040
8040
8040
8040
8040
4080
6180
1E00
ENDCHAR
STARTCHAR 03A0
ENCODING 928
SWIDTH 1000 0
DWIDTH 16 0
BBX 10 11 3 1
BITMAP
FFC0
4080
4080
4080
4080
4080
4080
4080
4080
4080
4080
ENDCHAR
STARTCHAR 03A1
ENCODING 929
SWIDTH 1000 0
DWIDTH 16 0
BBX 9 11 4 1
BITMAP
7E00
4180
4080
4080
4180
7E00
4000
4000
4000
4000
E000
ENDCHAR
STARTCHAR 03A3
ENCODING 931
SWIDTH 1000 0
DWIDTH 16 0
BBX 9 11 4 1
BITMAP
FF80
C080
6000
1000
0800
0400
0800
3000
4000
8080
FF80
ENDCHAR
STARTCHAR 03A4
ENCODING 932
SWIDTH 1000 0
DWIDTH 16 0
BBX 10 11 3 1
BITMAP
FFC0
8840
0840
0800
0800
0800
0800
0800
0800
0800
0800
ENDCHAR
STARTCHAR 03A5
ENCODING 933
SWIDTH 1000 0
DWIDTH 16 0
BBX 11 11 2 1
BITMAP
3B80
4A40
8440
8420
0400
0400
0400
0400
0400
0400
0400
ENDCHAR
STARTCHAR 03A6
ENCODING 934
SWIDTH 1000 0
DWIDTH 16 0
BBX 11 11 2 1
BITMAP
0600
0400
3F80
4440
8420
8420
8420
4440
2480
1F00
0C00
ENDCHAR
STARTCHAR 03A7
ENCODING 935
SWIDTH 1000 0
DWIDTH 16 0
BBX 10 11 3 1
BITMAP
E1C0
4100
2200
1200
0C00
0C00
1600
1200
2100
4080
C0C0
ENDCHAR
STARTCHAR 03A8
ENCODING 936
SWIDTH 1000 0
DWIDTH 16 0
BBX 13 11 1 1
BITMAP
6330
A228
2220
2220
2220
1240
1240
0A80
0700
0200
0200
ENDCHAR
STARTCHAR 03A9
ENCODING 937
SWIDTH 1000 0
DWIDTH 16 0
BBX 10 11 3 1
BITMAP
1E00
6180
4080
8040
8040
8040
8040
4080
2100
9600
F3C0
ENDCHAR
STARTCHAR 03B1
ENCODING 945
SWIDTH 1000 0
DWIDTH 16 0
BBX 8 8 4 0
BITMAP
19
26
46
44
84
8C
95
63
ENDCHAR
STARTCHAR 03B2
ENCODING 946
SWIDTH 1000 0
DWIDTH 16 0
BBX 8 14 3 -2
BITMAP
0E
11
11
21
22
3C
42
41
41
41
62
5C
40
C0
ENDCHAR
STARTCHAR 03B3
ENCODING 947
SWIDTH 1000 0
DWIDTH 16 0
BBX 9 10 3 -2
BITMAP
7080
9100
1200
0A00
0C00
0C00
0800
0800
0800
0800
ENDCHAR
STARTCHAR 03B4
ENCODING 948
SWIDTH 1000 0
DWIDTH 16 0
BBX 8 12 4 0
BITMAP
3C
23
20
10
2C
42
82
82
82
84
CC
78
ENDCHAR
STARTCHAR 03B5
ENCODING 949
SWIDTH 1000 0
DWIDTH 16 0
BBX 6 8 4 0
BITMAP
3C
40
40
38
C0
80
C4
78
ENDCHAR
STARTCHAR 03B6
ENCODING 950
SWIDTH 1000 0
DWIDTH 16 0
BBX 7 14 4 -1
BITMAP
26
2C
10
20
40
40
80
80
80
80
70
0C
24
1C
ENDCHAR
STARTCHAR 03B7
ENCODING 951
SWIDTH 1000 0
DWIDTH 16 0
BBX 7 10 4 -2
BITMAP
FE
32
22
22
44
44
44
84
0C
08
ENDCHAR
STARTCHAR 03B8
ENCODING 952
SWIDTH 1000 0
DWIDTH 16 0
BBX 7 12 4 0
BITMAP
1C
32
62
42
42
FE
82
84
84
84
C8
70
ENDCHAR
STARTCHAR 03B9
ENCODING 953
SWIDTH 1000 0
DWIDTH 16 0
BBX 5 8 5 1
BITMAP
20
20
40
40
80
88
90
60
ENDCHAR
STARTCHAR 03BA
ENCODING 954
SWIDTH 1000 0
DWIDTH 16 0
BBX 8 8 4 0
BITMAP
23
2C
50
70
48
88
8A
0C
ENDCHAR
STARTCHAR 03BB
ENCODING 955
SWIDTH 1000 0
DWIDTH 16 0
BBX 8 12 4 0
BITMAP
38
48
08
08
08
18
38
28
48
C8
89
06
ENDCHAR
STARTCHAR 03BC
ENCODING 956
SWIDTH 1000 0
DWIDTH 16 0
BBX 9 11 3 -2
BITMAP
0100
1100
2100
2100
4200
4200
4200
A680
B900
8000
8000
ENDCHAR
STARTCHAR 03BD
ENCODING 957
SWIDTH 1000 0
DWIDTH 16 0
BBX 8 7 4 0
BITMAP
E3
21
21
22
26
2C
30
ENDCHAR
STARTCHAR 03BE
ENCODING 958
SWIDTH 1000 0
DWIDTH 16 0
BBX 6 14 5 -1
BITMAP
4C
30
20
40
40
3C
40
80
80
80
70
08
48
70
ENDCHAR
STARTCHAR 03BF
ENCODING 959
SWIDTH 1000 0
DWIDTH 16 0
BBX 6 8 5 0
BITMAP
38
4C
84
84
84
84
C8
70
ENDCHAR
STARTCHAR 03C0
ENCODING 960
SWIDTH 1000 0
DWIDTH 16 0
BBX 8 8 4 1
BITMAP
7F
A4
28
28
48
49
4A
86
ENDCHAR
STARTCHAR 03C1
ENCODING 961
SWIDTH 1000 0
DWIDTH 16 0
BBX 8 10 3 -2
BITMAP
0E
13
21
21
61
62
5C
40
40
C0
ENDCHAR
STARTCHAR 03C2
ENCODING 962
SWIDTH 500 0
DWIDTH 8 0
BBX 7 11 1 -3
BITMAP
3C
C6
86
80
80
40
30
08
08
88
70
ENDCHAR
STARTCHAR 03C3
ENCODING 963
SWIDTH 1000 0
DWIDTH 16 0
BBX 8 9 5 0
BITMAP
3F
4C
C4
84
84
84
8C
48
70
ENDCHAR
STARTCHAR 03C4
ENCODING 964
SWIDTH 1000 0
DWIDTH 16 0
BBX 8 8 4 1
BITMAP
7F
90
10
20
20
20
24
38
ENDCHAR
STARTCHAR 03C5
ENCODING 965
SWIDTH 1000 0
DWIDTH 16 0
BBX 8 8 4 0
BITMAP
E2
23
21
21
41
42
46
3C
ENDCHAR
STARTCHAR 03C6
ENCODING 966
SWIDTH 1000 0
DWIDTH 16 0
BBX 8 12 4 -1
BITMAP
04
04
08
3E
49
91
91
91
92
6C
30
20
ENDCHAR
STARTCHAR 03C7
ENCODING 967
SWIDTH 1000 0
DWIDTH 16 0
BBX 8 10 4 -2
BITMAP
63
12
14
18
08
10
30
49
4A
86
ENDCHAR
STARTCHAR 03C8
ENCODING 968
SWIDTH 1000 0
DWIDTH 16 0
BBX 9 13 4 -1
BITMAP
0400
0400
2400
4900
4880
8880
9080
9080
9100
7600
2800
2000
2000
ENDCHAR
STARTCHAR 03C9
ENCODING 969
SWIDTH 1000 0
DWIDTH 16 0
BBX 10 9 3 0
BITMAP
1080
2080
4040
8440
8440
8440
88C0
D480
7700
ENDCHAR
STARTCHAR 0401
ENCODING 1025
SWIDTH 1000 0
DWIDTH 16 0
BBX 10 13 3 1
BITMAP
3300
3300
FF80
4080
4000
4000
4200
7E00
4200
4000
4040
40C0
FFC0
ENDCHAR
STARTCHAR 0410
ENCODING 1040
SWIDTH 1000 0
DWIDTH 16 0
BBX 10 10 3 2
BITMAP
0C00
1400
1600
1200
2300
2100
7F80
4180
8080
80C0
ENDCHAR
STARTCHAR 0411
ENCODING 1041
SWIDTH 1000 0
DWIDTH 16 0
BBX 9 11 4 1
BITMAP
FF00
4100
4000
4000
4000
7E00
4180
4080
4080
4080
4300
ENDCHAR
STARTCHAR 0412
ENCODING 1042
SWIDTH 1000 0
DWIDTH 16 0
BBX 9 11 4 1
BITMAP
FE00
4100
4100
4100
4200
7C00
4300
4080
4080
4080
4300
ENDCHAR
STARTCHAR 0413
ENCODING 1043
SWIDTH 1000 0
DWIDTH 16 0
BBX 10 11 3 1
BITMAP
FFC0
2040
2040
2000
2000
2000
2000
2000
2000
2000
7000
ENDCHAR
STARTCHAR 0414
ENCODING 1044
SWIDTH 1000 0
DWIDTH 16 0
BBX 12 13 2 -2
BITMAP
3FF0
1040
1040
1040
1040
1040
2040
2040
2040
4040
FFF0
8010
8010
ENDCHAR
STARTCHAR 0415
ENCODING 1045
SWIDTH 1000 0
DWIDTH 16 0
BBX 10 11 3 1
BITMAP
FF80
4080
4000
4000
4200
7E00
4200
4000
4040
40C0
FFC0
ENDCHAR
STARTCHAR 0416
ENCODING 1046
SWIDTH 1000 0
DWIDTH 16 0
BBX 13 11 1 1
BITMAP
C318
A228
2220
2240
1240
0F80
1240
3260
2220
4210
C218
ENDCHAR
STARTCHAR 0417
ENCODING 1047
SWIDTH 1000 0
DWIDTH 16 0
BBX 8 12 4 0
BITMAP
7C
C6
82
02
04
38
06
01
01
81
C2
3C
ENDCHAR
STARTCHAR 0418
ENCODING 1048
SWIDTH 1000 0
DWIDTH 16 0
BBX 10 11 3 1
BITMAP
E1C0
4080
4080
4380
4480
4880
5080
6080
4080
4080
E1C0
ENDCHAR
STARTCHAR 0419
ENCODING 1049
SWIDTH 1000 0
DWIDTH 16 0
BBX 10 13 3 1
BITMAP
1200
1C00
E1C0
4080
4080
4380
4480
4880
5080
6080
4080
4080
E1C0
ENDCHAR
STARTCHAR 041A
ENCODING 1050
SWIDTH 1000 0
DWIDTH 16 0
BBX 10 11 3 2
BITMAP
E1C0
42C0
4200
4400
4800
7C00
4400
4200
4100
4080
E0C0
ENDCHAR
STARTCHAR 041B
ENCODING 1051
SWIDTH 1000 0
DWIDTH 16 0
BBX 11 12 2 0
BITMAP
0FE0
0840
0840
0840
0840
0840
0840
0840
C840
8840
90E0
7000
ENDCHAR
STARTCHAR 041C
ENCODING 1052
SWIDTH 1000 0
DWIDTH 16 0
BBX 12 11 2 1
BITMAP
E070
60A0
70A0
50A0
5920
8920
8A20
8620
8420
8420
C030
ENDCHAR
STARTCHAR 041D
ENCODING 1053
SWIDTH 1000 0
DWIDTH 16 0
BBX 10 11 3 1
BITMAP
E1C0
4080
4080
4080
4080
7F80
4080
4080
4080
4080
4080
ENDCHAR
STARTCHAR 041E
ENCODING 1054
SWIDTH 1000 0
DWIDTH 16 0
BBX 10 12 3 0
BITMAP
1E00
2100
4080
8040
8040
8040
8040
8040
8040
4080
6180
1E00
ENDCHAR
STARTCHAR 041F
ENCODING 1055
SWIDTH 1000 0
DWIDTH 16 0
BBX 10 11 3 1
BITMAP
FFC0
4080
4080
4080
4080
4080
4080
4080
4080
4080
4080
ENDCHAR
STARTCHAR 0420
ENCODING 1056
SWIDTH 1000 0
DWIDTH 16 0
BBX 9 11 4 1
BITMAP
7E00
4180
4080
4080
4180
7E00
4000
4000
4000
4000
E000
ENDCHAR
STARTCHAR 0421
ENCODING 1057
SWIDTH 1000 0
DWIDTH 16 0
BBX 10 12 3 0
BITMAP
1F80
20C0
4040
8000
8000
8000
8000
8000
C040
4040
30C0
1F00
ENDCHAR
STARTCHAR 0422
ENCODING 1058
SWIDTH 1000 0
DWIDTH 16 0
BBX 10 11 3 1
BITMAP
FFC0
8840
0840
0800
0800
0800
0800
0800
0800
0800
0800
ENDCHAR
STARTCHAR 0423
ENCODING 1059
SWIDTH 1000 0
DWIDTH 16 0
BBX 10 12 3 0
BITMAP
E1C0
2080
3100
1100
1A00
0A00
0C00
0400
0800
C800
9000
6000
ENDCHAR
STARTCHAR 0424
ENCODING 1060
SWIDTH 1000 0
DWIDTH 16 0
BBX 11 11 2 1
BITMAP
0600
0400
3F80
4440
8420
8420
8420
4440
2480
1F00
0C00
ENDCHAR
STARTCHAR 0425
ENCODING 1061
SWIDTH 1000 0
DWIDTH 16 0
BBX 10 11 3 1
BITMAP
E1C0
4100
2200
1200
0C00
0C00
1600
1200
2100
4080
C0C0
ENDCHAR
STARTCHAR 0426
ENCODING 1062
SWIDTH 1000 0
DWIDTH 16 0
BBX 11 13 3 -2
BITMAP
40C0
4080
4080
4080
4080
4080
4080
4080
4080
4080
FFE0
0020
0020
ENDCHAR
STARTCHAR 0427
ENCODING 1063
SWIDTH 1000 0
DWIDTH 16 0
BBX 9 11 4 1
BITMAP
C380
8100
8100
8100
8100
C100
7F00
0100
0100
0100
0380
ENDCHAR
STARTCHAR 0428
ENCODING 1064
SWIDTH 1000 0
DWIDTH 16 0
BBX 12 11 2 1
BITMAP
C670
4420
4420
4420
4420
4420
4420
4420
4420
4420
C670
ENDCHAR
STARTCHAR 0429
ENCODING 1065
SWIDTH 1000 0
DWIDTH 16 0
BBX 13 13 2 -2
BITMAP
C670
4420
4420
4420
4420
4420
4420
4420
4420
4420
C670
3988
0008
ENDCHAR
STARTCHAR 042A
ENCODING 1066
SWIDTH 1000 0
DWIDTH 16 0
BBX 12 11 2 1
BITMAP
FC00
8800
0800
0800
0800
0FC0
0830
0810
0810
0810
0860
ENDCHAR
STARTCHAR 042B
ENCODING 1067
SWIDTH 1000 0
DWIDTH 16 0
BBX 11 11 3 1
BITMAP
C060
8040
8040
8040
8040
FC40
8340
8140
8140
8140
8640
ENDCHAR
STARTCHAR 042C
ENCODING 1068
SWIDTH 1000 0
DWIDTH 16 0
BBX 9 11 4 1
BITMAP
E000
4000
4000
4000
4000
7E00
4180
4080
4080
4080
4300
ENDCHAR
STARTCHAR 042D
ENCODING 1069
SWIDTH 1000 0
DWIDTH 16 0
BBX 10 12 3 0
BITMAP
7E00
C380
8080
00C0
3840
47C0
0040
00C0
00C0
8180
C300
3E00
ENDCHAR
STARTCHAR 042E
ENCODING 1070
SWIDTH 1000 0
DWIDTH 16 0
BBX 13 12 2 0
BITMAP
E3C0
4430
4410
4808
4808
7808
4808
4808
4808
4410
4630
03E0
ENDCHAR
STARTCHAR 042F
ENCODING 1071
SWIDTH 1000 0
DWIDTH 16 0
BBX 10 12 3 0
BITMAP
1FC0
6080
4080
4080
6080
1F80
0C80
0880
1080
2080
4080
8100
ENDCHAR
STARTCHAR 0430
ENCODING 1072
SWIDTH 1000 0
DWIDTH 16 0
BBX 8 8 5 0
BITMAP
78
C4
04
3C
C4
84
8D
76
ENDCHAR
STARTCHAR 0431
ENCODING 1073
SWIDTH 1000 0
DWIDTH 16 0
BBX 8 12 4 1
BITMAP
01
1E
60
40
BC
C2
81
81
81
C3
42
3C
ENDCHAR
STARTCHAR 0432
ENCODING 1074
SWIDTH 1000 0
DWIDTH 16 0
BBX 7 7 5 1
BITMAP
F8
84
84
F8
86
82
84
ENDCHAR
STARTCHAR 0433
ENCODING 1075
SWIDTH 1000 0
DWIDTH 16 0
BBX 7 7 5 1
BITMAP
FE
42
40
40
40
40
40
ENDCHAR
STARTCHAR 0434
ENCODING 1076
SWIDTH 1000 0
DWIDTH 16 0
BBX 10 9 3 -2
BITMAP
1F80
1100
2100
2100
2100
4100
FFC0
8040
0040
ENDCHAR
STARTCHAR 0435
ENCODING 1077
SWIDTH 1000 0
DWIDTH 16 0
BBX 8 8 4 0
BITMAP
3C
42
C2
FF
80
C0
62
3C
ENDCHAR
STARTCHAR 0436
ENCODING 1078
SWIDTH 1000 0
DWIDTH 16 0
BBX 11 7 3 1
BITMAP
C460
2480
2500
3E80
2480
4440
C460
ENDCHAR
STARTCHAR 0437
ENCODING 1079
SWIDTH 1000 0
DWIDTH 16 0
BBX 6 8 5 0
BITMAP
F8
84
04
78
0C
04
84
78
ENDCHAR
STARTCHAR 0438
ENCODING 1080
SWIDTH 1000 0
DWIDTH 16 0
BBX 6 7 5 1
BITMAP
84
84
9C
A4
C4
84
84
ENDCHAR
STARTCHAR 0439
ENCODING 1081
SWIDTH 1000 0
DWIDTH 16 0
BBX 6 10 5 1
BITMAP
48
78
00
84
84
9C
A4
C4
84
84
ENDCHAR
STARTCHAR 043A
ENCODING 1082
SWIDTH 1000 0
DWIDTH 16 0
BBX 7 7 5 1
BITMAP
8E
88
B0
D8
88
84
86
ENDCHAR
STARTCHAR 043B
ENCODING 1083
SWIDTH 1000 0
DWIDTH 16 0
BBX 8 8 3 0
BITMAP
1F
11
11
11
11
91
91
60
ENDCHAR
STARTCHAR 043C
ENCODING 1084
SWIDTH 1000 0
DWIDTH 16 0
BBX 8 7 4 1
BITMAP
C3
C3
A5
A5
99
99
91
ENDCHAR
STARTCHAR 043D
ENCODING 1085
SWIDTH 1000 0
DWIDTH 16 0
BBX 6 7 5 1
BITMAP
84
84
84
FC
84
84
84
ENDCHAR
STARTCHAR 043E
ENCODING 1086
SWIDTH 1000 0
DWIDTH 16 0
BBX 8 8 4 0
BITMAP
3C
42
81
81
81
83
42
3C
ENDCHAR
STARTCHAR 043F
ENCODING 1087
SWIDTH 1000 0
DWIDTH 16 0
BBX 8 7 4 1
BITMAP
FF
42
42
42
42
42
42
ENDCHAR
STARTCHAR 0440
ENCODING 1088
SWIDTH 1000 0
DWIDTH 16 0
BBX 8 10 4 -1
BITMAP
FC
42
41
41
41
42
7C
40
40
E0
ENDCHAR
STARTCHAR 0441
ENCODING 1089
SWIDTH 1000 0
DWIDTH 16 0
BBX 7 8 4 0
BITMAP
3C
42
80
80
80
C2
62
3C
ENDCHAR
STARTCHAR 0442
ENCODING 1090
SWIDTH 1000 0
DWIDTH 16 0
BBX 8 7 4 1
BITMAP
FF
88
08
08
08
08
08
ENDCHAR
STARTCHAR 0443
ENCODING 1091
SWIDTH 1000 0
DWIDTH 16 0
BBX 8 10 4 -2
BITMAP
C3
42
22
24
14
08
08
10
50
60
ENDCHAR
STARTCHAR 0444
ENCODING 1092
SWIDTH 1000 0
DWIDTH 16 0
BBX 9 14 4 -2
BITMAP
1800
0800
0800
0800
7F00
8980
8880
8880
8880
C980
7F00
0800
0800
1C00
ENDCHAR
STARTCHAR 0445
ENCODING 1093
SWIDTH 1000 0
DWIDTH 16 0
BBX 8 7 4 1
BITMAP
C2
24
18
18
24
46
C3
ENDCHAR
STARTCHAR 0446
ENCODING 1094
SWIDTH 1000 0
DWIDTH 16 0
BBX 8 8 4 -2
BITMAP
42
42
42
42
42
42
FF
01
ENDCHAR
STARTCHAR 0447
ENCODING 1095
SWIDTH 1000 0
DWIDTH 16 0
BBX 7 7 4 1
BITMAP
C2
42
42
42
3E
02
02
ENDCHAR
STARTCHAR 0448
ENCODING 1096
SWIDTH 1000 0
DWIDTH 16 0
BBX 10 7 3 1
BITMAP
8440
8440
8440
8440
8440
8440
CC40
ENDCHAR
STARTCHAR 0449
ENCODING 1097
SWIDTH 1000 0
DWIDTH 16 0
BBX 11 8 3 -2
BITMAP
8440
8440
8440
8440
8440
8440
CC40
33A0
ENDCHAR
STARTCHAR 044A
ENCODING 1098
SWIDTH 1000 0
DWIDTH 16 0
BBX 8 7 4 1
BITMAP
E0
20
20
3E
21
21
22
ENDCHAR
STARTCHAR 044B
ENCODING 1099
SWIDTH 1000 0
DWIDTH 16 0
BBX 8 7 4 1
BITMAP
81
81
81
F9
85
85
89
ENDCHAR
STARTCHAR 044C
ENCODING 1100
SWIDTH 1000 0
DWIDTH 16 0
BBX 6 7 5 1
BITMAP
80
80
80
F8
84
84
88
ENDCHAR
STARTCHAR 044D
ENCODING 1101
SWIDTH 1000 0
DWIDTH 16 0
BBX 7 8 5 0
BITMAP
FC
86
02
7E
02
02
84
78
ENDCHAR
STARTCHAR 044E
ENCODING 1102
SWIDTH 1000 0
DWIDTH 16 0
BBX 10 8 4 0
BITMAP
8F00
9880
9040
F040
9040
9040
9880
0F00
ENDCHAR
STARTCHAR 044F
ENCODING 1103
SWIDTH 1000 0
DWIDTH 16 0
BBX 7 8 4 0
BITMAP
3E
42
42
3E
12
22
42
80
ENDCHAR
STARTCHAR 0451
ENCODING 1105
SWIDTH 1000 0
DWIDTH 16 0
BBX 8 11 4 0
BITMAP
66
66
00
3C
42
C2
FF
80
C0
62
3C
ENDCHAR
STARTCHAR 1E3E
ENCODING 7742
SWIDTH 937 0
DWIDTH 15 0
BBX 13 14 1 1
BITMAP
0100
0200
0000
E038
7030
5050
5050
4890
4890
4C90
4510
4510
4210
E238
ENDCHAR
STARTCHAR 1E3F
ENCODING 7743
SWIDTH 875 0
DWIDTH 14 0
BBX 13 12 1 0
BITMAP
0100
0300
0000
0000
DCE0
6310
4210
4210
4210
4210
4210
E738
ENDCHAR
STARTCHAR 1F70
ENCODING 8048
SWIDTH 562 0
DWIDTH 9 0
BBX 8 12 1 0
BITMAP
20
30
00
00
3A
46
82
82
82
82
46
3B
ENDCHAR
STARTCHAR 1F71
ENCODING 8049
SWIDTH 562 0
DWIDTH 9 0
BBX 8 12 1 0
BITMAP
04
08
00
00
3A
46
82
82
82
82
46
3B
ENDCHAR
STARTCHAR 1F72
ENCODING 8050
SWIDTH 500 0
DWIDTH 8 0
BBX 6 11 1 1
BITMAP
20
10
00
7C
80
80
78
80
80
80
7C
ENDCHAR
STARTCHAR 1F73
ENCODING 8051
SWIDTH 500 0
DWIDTH 8 0
BBX 6 11 1 1
BITMAP
08
10
00
7C
80
80
78
80
80
80
7C
ENDCHAR
STARTCHAR 2002
ENCODING 8194
SWIDTH 500 0
DWIDTH 8 0
BBX 0 0 0 0
BITMAP
ENDCHAR
STARTCHAR 2003
ENCODING 8195
SWIDTH 1000 0
DWIDTH 16 0
BBX 0 0 0 0
BITMAP
ENDCHAR
STARTCHAR 2010
ENCODING 8208
SWIDTH 312 0
DWIDTH 5 0
BBX 3 1 1 4
BITMAP
E0
ENDCHAR
STARTCHAR 2011
ENCODING 8209
SWIDTH 312 0
DWIDTH 5 0
BBX 3 1 1 4
BITMAP
E0
ENDCHAR
STARTCHAR 2012
ENCODING 8210
SWIDTH 312 0
DWIDTH 5 0
BBX 3 1 1 4
BITMAP
E0
ENDCHAR
STARTCHAR 2013
ENCODING 8211
SWIDTH 562 0
DWIDTH 9 0
BBX 7 1 1 4
BITMAP
FE
ENDCHAR
STARTCHAR 2014
ENCODING 8212
SWIDTH 875 0
DWIDTH 14 0
BBX 14 1 0 5
BITMAP
FFFC
ENDCHAR
STARTCHAR 2015
ENCODING 8213
SWIDTH 1000 0
DWIDTH 16 0
BBX 14 1 1 5
BITMAP
FFFC
ENDCHAR
STARTCHAR 2016
ENCODING 8214
SWIDTH 1000 0
DWIDTH 16 0
BBX 4 16 6 -1
BITMAP
90
90
90
90
90
90
90
90
90
90
90
90
90
90
90
90
ENDCHAR
STARTCHAR 2018
ENCODING 8216
SWIDTH 1000 0
DWIDTH 16 0
BBX 3 4 12 10
BITMAP
40
C0
E0
E0
ENDCHAR
STARTCHAR 2019
ENCODING 8217
SWIDTH 1000 0
DWIDTH 16 0
BBX 3 4 1 8
BITMAP
E0
E0
40
40
ENDCHAR
STARTCHAR 201C
ENCODING 8220
SWIDTH 1000 0
DWIDTH 16 0
BBX 6 4 9 10
BITMAP
48
98
DC
DC
ENDCHAR
STARTCHAR 201D
ENCODING 8221
SWIDTH 1000 0
DWIDTH 16 0
BBX 6 4 1 8
BITMAP
EC
EC
4C
48
ENDCHAR
STARTCHAR 2020
ENCODING 8224
SWIDTH 1000 0
DWIDTH 16 0
BBX 7 14 5 -2
BITMAP
38
38
D6
FE
10
38
10
10
10
10
10
10
10
10
ENDCHAR
STARTCHAR 2021
ENCODING 8225
SWIDTH 1000 0
DWIDTH 16 0
BBX 6 15 5 -1
BITMAP
30
30
30
FC
30
20
20
20
20
20
30
EC
FC
30
30
ENDCHAR
STARTCHAR 2022
ENCODING 8226
SWIDTH 375 0
DWIDTH 6 0
BBX 3 3 2 4
BITMAP
E0
E0
E0
ENDCHAR
STARTCHAR 2025
ENCODING 8229
SWIDTH 1000 0
DWIDTH 16 0
BBX 10 2 3 5
BITMAP
C0C0
C0C0
ENDCHAR
STARTCHAR 2026
ENCODING 8230
SWIDTH 1000 0
DWIDTH 16 0
BBX 12 2 2 5
BITMAP
C630
C630
ENDCHAR
STARTCHAR 2030
ENCODING 8240
SWIDTH 1000 0
DWIDTH 16 0
BBX 14 14 1 -1
BITMAP
6100
9200
9200
9400
9400
6800
0800
0B18
14A4
14A4
24A4
24A4
44A4
4318
ENDCHAR
STARTCHAR 2032
ENCODING 8242
SWIDTH 250 0
DWIDTH 4 0
BBX 3 4 0 9
BITMAP
20
40
40
80
ENDCHAR
STARTCHAR 2033
ENCODING 8243
SWIDTH 437 0
DWIDTH 7 0
BBX 5 4 0 9
BITMAP
28
48
50
90
ENDCHAR
STARTCHAR 203B
ENCODING 8251
SWIDTH 1000 0
DWIDTH 16 0
BBX 12 12 2 0
BITMAP
8610
4620
2040
1080
0900
C630
C630
0900
1080
2040
4620
8610
ENDCHAR
STARTCHAR 203C
ENCODING 8252
SWIDTH 437 0
DWIDTH 7 0
BBX 5 12 1 0
BITMAP
48
48
48
48
48
48
48
50
40
00
D8
D8
ENDCHAR
STARTCHAR 203E
ENCODING 8254
SWIDTH 500 0
DWIDTH 8 0
BBX 4 1 2 10
BITMAP
F0
ENDCHAR
STARTCHAR 203F
ENCODING 8255
SWIDTH 437 0
DWIDTH 7 0
BBX 7 1 0 -1
BITMAP
FE
ENDCHAR
STARTCHAR 2042
ENCODING 8258
SWIDTH 1000 0
DWIDTH 16 0
BBX 12 11 2 1
BITMAP
0D00
0600
0F00
0000
0000
0000
2040
E9F0
70E0
A950
2040
ENDCHAR
STARTCHAR 2047
ENCODING 8263
SWIDTH 937 0
DWIDTH 15 0
BBX 13 12 1 0
BITMAP
78F0
8D18
8508
8588
0408
0810
1020
2040
2040
0000
3060
3060
ENDCHAR
STARTCHAR 2048
ENCODING 8264
SWIDTH 687 0
DWIDTH 11 0
BBX 9 12 1 0
BITMAP
7880
8C80
8480
8480
0480
0880
1080
2100
2000
0000
3180
3180
ENDCHAR
STARTCHAR 2049
ENCODING 8265
SWIDTH 687 0
DWIDTH 11 0
BBX 10 12 1 0
BITMAP
4780
48C0
5040
5840
4040
4080
4300
4400
4000
0000
C600
C600
ENDCHAR
STARTCHAR 2051
ENCODING 8273
SWIDTH 1000 0
DWIDTH 16 0
BBX 4 10 6 1
BITMAP
D0
60
D0
00
00
00
00
D0
60
F0
ENDCHAR
STARTCHAR 205A
ENCODING 8282
SWIDTH 1000 0
DWIDTH 16 0
BBX 2 10 7 1
BITMAP
C0
C0
00
00
00
00
00
00
C0
C0
ENDCHAR
STARTCHAR 205D
ENCODING 8285
SWIDTH 1000 0
DWIDTH 16 0
BBX 2 12 7 0
BITMAP
C0
C0
00
00
00
C0
C0
00
00
00
C0
C0
ENDCHAR
STARTCHAR 20AC
ENCODING 8364
SWIDTH 625 0
DWIDTH 10 0
BBX 9 11 0 1
BITMAP
0F00
1080
2080
2000
FE00
6000
FE00
6000
2000
3080
1F00
ENDCHAR
STARTCHAR 2103
ENCODING 8451
SWIDTH 1000 0
DWIDTH 16 0
BBX 14 12 0 2
BITMAP
F000
93E0
E418
0808
1000
1000
1000
1000
1004
0808
0410
03E0
ENDCHAR
STARTCHAR 210F
ENCODING 8463
SWIDTH 562 0
DWIDTH 9 0
BBX 7 12 1 0
BITMAP
60
20
F8
40
4C
74
44
44
88
88
8A
8C
ENDCHAR
STARTCHAR 2113
ENCODING 8467
SWIDTH 1000 0
DWIDTH 16 0
BBX 7 12 4 0
BITMAP
06
0A
12
12
22
24
24
28
30
22
E2
1C
ENDCHAR
STARTCHAR 2116
ENCODING 8470
SWIDTH 1000 0
DWIDTH 16 0
BBX 13 11 2 0
BITMAP
8800
C800
C800
C9C0
AB60
AA20
AA20
9A20
9A20
8B78
89D8
ENDCHAR
STARTCHAR 2121
ENCODING 8481
SWIDTH 1000 0
DWIDTH 16 0
BBX 14 11 1 1
BITMAP
F800
2800
2000
2390
2210
2210
2290
2310
2210
2214
2294
ENDCHAR
STARTCHAR 2127
ENCODING 8487
SWIDTH 812 0
DWIDTH 13 0
BBX 11 11 1 0
BITMAP
FBE0
9120
A0A0
2040
4020
4020
4020
4020
6060
30C0
0F00
ENDCHAR
STARTCHAR 212B
ENCODING 8491
SWIDTH 1000 0
DWIDTH 16 0
BBX 10 13 3 1
BITMAP
0C00
1400
1400
0800
0C00
1400
1200
2200
2300
3F00
4100
8080
80C0
ENDCHAR
STARTCHAR 2135
ENCODING 8501
SWIDTH 687 0
DWIDTH 11 0
BBX 9 11 1 0
BITMAP
4200
8300
8180
C280
3400
5C00
4600
4100
4080
4080
8100
ENDCHAR
STARTCHAR 2153
ENCODING 8531
SWIDTH 750 0
DWIDTH 12 0
BBX 10 11 2 0
BITMAP
C080
4100
4200
4400
4400
0BC0
1240
1180
2040
4240
83C0
ENDCHAR
STARTCHAR 2154
ENCODING 8532
SWIDTH 750 0
DWIDTH 12 0
BBX 10 11 1 0
BITMAP
F080
9080
1100
6200
9400
F580
0B40
1040
20C0
2240
43C0
ENDCHAR
STARTCHAR 2155
ENCODING 8533
SWIDTH 750 0
DWIDTH 12 0
BBX 10 11 2 0
BITMAP
C080
4100
4200
4200
4400
0BC0
1200
1380
2040
4240
8380
ENDCHAR
STARTCHAR 2160
ENCODING 8544
SWIDTH 1000 0
DWIDTH 16 0
BBX 3 11 6 1
BITMAP
E0
40
40
40
40
40
40
40
40
40
E0
ENDCHAR
STARTCHAR 2161
ENCODING 8545
SWIDTH 1000 0
DWIDTH 16 0
BBX 10 11 3 1
BITMAP
FFC0
2100
2100
2100
2100
2100
2100
2100
2100
2100
FFC0
ENDCHAR
STARTCHAR 2162
ENCODING 8546
SWIDTH 1000 0
DWIDTH 16 0
BBX 12 11 2 1
BITMAP
FFF0
4420
4420
4420
4420
4420
4420
4420
4420
4420
CE70
ENDCHAR
STARTCHAR 2163
ENCODING 8547
SWIDTH 1000 0
DWIDTH 16 0
BBX 13 11 2 0
BITMAP
FC18
4810
4420
4420
4420
4240
4240
4240
4180
4180
E100
ENDCHAR
STARTCHAR 2164
ENCODING 8548
SWIDTH 1000 0
DWIDTH 16 0
BBX 10 11 3 0
BITMAP
E0C0
4080
6080
2100
2100
3100
1200
1A00
0C00
0C00
0400
ENDCHAR
STARTCHAR 2165
ENCODING 8549
SWIDTH 1000 0
DWIDTH 16 0
BBX 12 11 2 0
BITMAP
C1F0
8120
4220
4220
4220
2420
2420
2420
1820
1820
1070
ENDCHAR
STARTCHAR 2166
ENCODING 8550
SWIDTH 1000 0
DWIDTH 16 0
BBX 13 11 1 0
BITMAP
C3F8
4248
4248
6248
2448
2448
2448
1848
1848
1848
10F8
ENDCHAR
STARTCHAR 2167
ENCODING 8551
SWIDTH 1000 0
DWIDTH 16 0
BBX 13 12 1 0
BITMAP
C7F8
44A8
44A8
64A8
24A8
28A8
28A8
28A8
18A8
10A8
10A8
0050
ENDCHAR
STARTCHAR 2168
ENCODING 8552
SWIDTH 1000 0
DWIDTH 16 0
BBX 12 11 2 1
BITMAP
FE30
4420
4240
4180
4180
4080
41C0
4240
4260
4420
EC30
ENDCHAR
STARTCHAR 2169
ENCODING 8553
SWIDTH 1000 0
DWIDTH 16 0
BBX 10 11 3 1
BITMAP
E1C0
4100
2200
1200
0C00
0C00
1600
1200
2100
4080
C0C0
ENDCHAR
STARTCHAR 216A
ENCODING 8554
SWIDTH 1000 0
DWIDTH 16 0
BBX 12 11 2 1
BITMAP
E3F0
4420
2420
2820
1820
1820
2820
2420
4420
8220
C370
ENDCHAR
STARTCHAR 216B
ENCODING 8555
SWIDTH 1000 0
DWIDTH 16 0
BBX 14 11 1 1
BITMAP
E3FC
4248
2448
1848
1848
0848
1848
2448
2448
4248
C34C
ENDCHAR
STARTCHAR 2170
ENCODING 8560
SWIDTH 1000 0
DWIDTH 16 0
BBX 3 12 7 1
BITMAP
40
60
00
00
C0
40
40
40
40
40
40
C0
ENDCHAR
STARTCHAR 2171
ENCODING 8561
SWIDTH 1000 0
DWIDTH 16 0
BBX 8 12 4 1
BITMAP
42
63
00
00
C6
42
42
42
42
42
42
C6
ENDCHAR
STARTCHAR 2172
ENCODING 8562
SWIDTH 1000 0
DWIDTH 16 0
BBX 11 12 3 1
BITMAP
4440
6660
0000
0000
CCC0
4440
4440
4440
4440
4440
4440
EEC0
ENDCHAR
STARTCHAR 2173
ENCODING 8563
SWIDTH 1000 0
DWIDTH 16 0
BBX 11 11 3 0
BITMAP
6000
6000
0000
0000
CC60
4840
4440
4480
4280
4300
4100
ENDCHAR
STARTCHAR 2174
ENCODING 8564
SWIDTH 1000 0
DWIDTH 16 0
BBX 8 7 4 0
BITMAP
C3
42
62
24
24
18
18
ENDCHAR
STARTCHAR 2175
ENCODING 8565
SWIDTH 1000 0
DWIDTH 16 0
BBX 11 11 3 0
BITMAP
0060
0060
0000
0000
C7C0
8440
4440
4840
2840
3040
1040
ENDCHAR
STARTCHAR 2176
ENCODING 8566
SWIDTH 1000 0
DWIDTH 16 0
BBX 13 12 2 0
BITMAP
00D8
00D8
0000
0000
C7B0
8490
4490
4890
2890
3090
1090
0060
ENDCHAR
STARTCHAR 2177
ENCODING 8567
SWIDTH 1000 0
DWIDTH 16 0
BBX 13 12 2 0
BITMAP
01F8
01F8
0000
0000
8750
8550
4950
4950
3150
3150
2150
00A0
ENDCHAR
STARTCHAR 2178
ENCODING 8568
SWIDTH 1000 0
DWIDTH 16 0
BBX 11 11 3 1
BITMAP
6000
6000
0000
0000
C460
4280
4300
4100
4280
4440
4860
ENDCHAR
STARTCHAR 2179
ENCODING 8569
SWIDTH 1000 0
DWIDTH 16 0
BBX 8 7 4 1
BITMAP
C2
24
18
18
24
46
C3
ENDCHAR
STARTCHAR 217A
ENCODING 8570
SWIDTH 1000 0
DWIDTH 16 0
BBX 11 11 3 1
BITMAP
0060
0060
0000
0000
C4C0
4840
3040
1040
6840
4C40
8640
ENDCHAR
STARTCHAR 217B
ENCODING 8571
SWIDTH 1000 0
DWIDTH 16 0
BBX 13 11 2 1
BITMAP
00D8
00D8
0000
0000
C7B0
4890
3090
1090
6890
4890
8490
ENDCHAR
STARTCHAR 2190
ENCODING 8592
SWIDTH 1000 0
DWIDTH 16 0
BBX 14 6 1 3
BITMAP
3000
4000
FFFC
4000
2000
1000
ENDCHAR
STARTCHAR 2191
ENCODING 8593
SWIDTH 1000 0
DWIDTH 16 0
BBX 6 14 5 0
BITMAP
10
38
54
94
10
10
10
10
10
10
10
10
10
10
ENDCHAR
STARTCHAR 2192
ENCODING 8594
SWIDTH 1000 0
DWIDTH 16 0
BBX 14 6 1 3
BITMAP
0030
0008
FFFC
0008
0010
0020
ENDCHAR
STARTCHAR 2193
ENCODING 8595
SWIDTH 1000 0
DWIDTH 16 0
BBX 6 14 5 -1
BITMAP
10
10
10
10
10
10
10
10
10
10
94
54
38
10
ENDCHAR
STARTCHAR 2194
ENCODING 8596
SWIDTH 750 0
DWIDTH 12 0
BBX 10 7 1 1
BITMAP
2200
2100
4080
FFC0
4080
2100
2200
ENDCHAR
STARTCHAR 2196
ENCODING 8598
SWIDTH 1000 0
DWIDTH 16 0
BBX 11 11 2 0
BITMAP
4000
7C00
A000
5000
4800
0400
0200
0100
0080
0040
0020
ENDCHAR
STARTCHAR 2197
ENCODING 8599
SWIDTH 1000 0
DWIDTH 16 0
BBX 11 11 3 0
BITMAP
0060
07C0
00C0
0140
0240
0400
0800
1000
2000
4000
8000
ENDCHAR
STARTCHAR 2198
ENCODING 8600
SWIDTH 1000 0
DWIDTH 16 0
BBX 12 12 2 0
BITMAP
8000
4000
2000
1000
0800
0400
0200
0120
00A0
0060
01A0
0050
ENDCHAR
STARTCHAR 2199
ENCODING 8601
SWIDTH 1000 0
DWIDTH 16 0
BBX 12 12 2 0
BITMAP
0010
0020
0040
0080
0100
0200
0400
4800
5000
A000
5800
A000
ENDCHAR
STARTCHAR 21C4
ENCODING 8644
SWIDTH 1000 0
DWIDTH 16 0
BBX 14 12 1 1
BITMAP
0030
0008
FFFC
0008
0030
0000
3000
4000
FFFC
4000
2000
1000
ENDCHAR
STARTCHAR 21D2
ENCODING 8658
SWIDTH 750 0
DWIDTH 12 0
BBX 10 7 1 2
BITMAP
0200
FF00
0080
0040
FF80
0100
0200
ENDCHAR
STARTCHAR 21D4
ENCODING 8660
SWIDTH 750 0
DWIDTH 12 0
BBX 10 7 1 2
BITMAP
2200
7F00
8080
8040
7F80
2100
1200
ENDCHAR
STARTCHAR 21E6
ENCODING 8678
SWIDTH 1000 0
DWIDTH 16 0
BBX 13 6 1 3
BITMAP
0800
3800
C7F8
4FF8
2800
1800
ENDCHAR
STARTCHAR 21E7
ENCODING 8679
SWIDTH 1000 0
DWIDTH 16 0
BBX 6 13 5 1
BITMAP
10
30
48
88
EC
30
30
30
30
30
30
30
30
ENDCHAR
STARTCHAR 21E8
ENCODING 8680
SWIDTH 1000 0
DWIDTH 16 0
BBX 13 6 2 3
BITMAP
0080
00E0
FF18
FF90
00E0
0080
ENDCHAR
STARTCHAR 21E9
ENCODING 8681
SWIDTH 1000 0
DWIDTH 16 0
BBX 6 13 5 -1
BITMAP
30
30
30
30
30
30
30
30
CC
48
28
30
10
ENDCHAR
STARTCHAR 2200
ENCODING 8704
SWIDTH 750 0
DWIDTH 12 0
BBX 10 11 1 0
BITMAP
8040
8040
4080
7F80
2100
2100
1200
1200
1400
0C00
0800
ENDCHAR
STARTCHAR 2202
ENCODING 8706
SWIDTH 562 0
DWIDTH 9 0
BBX 7 12 1 0
BITMAP
1C
64
02
02
02
3A
46
82
84
84
C8
70
ENDCHAR
STARTCHAR 2203
ENCODING 8707
SWIDTH 750 0
DWIDTH 12 0
BBX 8 11 2 0
BITMAP
FF
01
01
01
01
FF
01
01
01
01
FF
ENDCHAR
STARTCHAR 2205
ENCODING 8709
SWIDTH 750 0
DWIDTH 12 0
BBX 10 11 1 0
BITMAP
1E00
2140
4080
8140
8240
8440
8840
9040
6080
6180
1E00
ENDCHAR
STARTCHAR 2207
ENCODING 8711
SWIDTH 750 0
DWIDTH 12 0
BBX 10 11 1 -1
BITMAP
FFC0
C080
4080
6080
2100
3100
1200
1200
0C00
0C00
0800
ENDCHAR
STARTCHAR 2208
ENCODING 8712
SWIDTH 687 0
DWIDTH 11 0
BBX 9 8 1 1
BITMAP
3F80
4000
8000
8000
FF80
8000
4000
3F80
ENDCHAR
STARTCHAR 2209
ENCODING 8713
SWIDTH 687 0
DWIDTH 11 0
BBX 9 10 1 0
BITMAP
0200
3F80
4400
8400
8800
FF80
8800
5000
3F80
2000
ENDCHAR
STARTCHAR 220B
ENCODING 8715
SWIDTH 687 0
DWIDTH 11 0
BBX 9 8 1 1
BITMAP
FE00
0300
0080
0080
FF80
0080
0100
FE00
ENDCHAR
STARTCHAR 2212
ENCODING 8722
SWIDTH 687 0
DWIDTH 11 0
BBX 9 1 1 4
BITMAP
FF80
ENDCHAR
STARTCHAR 2213
ENCODING 8723
SWIDTH 687 0
DWIDTH 11 0
BBX 9 8 1 0
BITMAP
FF80
0000
0800
0800
FF80
0800
0800
0800
ENDCHAR
STARTCHAR 2219
ENCODING 8729
SWIDTH 250 0
DWIDTH 4 0
BBX 2 2 1 4
BITMAP
C0
C0
ENDCHAR
STARTCHAR 221A
ENCODING 8730
SWIDTH 562 0
DWIDTH 9 0
BBX 9 15 0 0
BITMAP
0080
0100
0100
0200
0200
0200
0400
0400
4400
6800
A800
2800
1000
1000
1000
ENDCHAR
STARTCHAR 221D
ENCODING 8733
SWIDTH 687 0
DWIDTH 11 0
BBX 8 5 1 2
BITMAP
73
8C
8C
8C
73
ENDCHAR
STARTCHAR 221E
ENCODING 8734
SWIDTH 687 0
DWIDTH 11 0
BBX 9 5 1 3
BITMAP
6300
9480
8880
9880
7700
ENDCHAR
STARTCHAR 221F
ENCODING 8735
SWIDTH 687 0
DWIDTH 11 0
BBX 8 10 1 1
BITMAP
80
80
80
80
80
80
80
80
80
FF
ENDCHAR
STARTCHAR 2220
ENCODING 8736
SWIDTH 687 0
DWIDTH 11 0
BBX 9 10 1 2
BITMAP
0400
0800
1000
1000
2000
2000
4000
4000
8000
FF80
ENDCHAR
STARTCHAR 2225
ENCODING 8741
SWIDTH 687 0
DWIDTH 11 0
BBX 8 14 1 -1
BITMAP
05
09
0A
0A
12
14
14
24
28
28
48
50
50
90
ENDCHAR
STARTCHAR 2226
ENCODING 8742
SWIDTH 687 0
DWIDTH 11 0
BBX 7 14 2 0
BITMAP
0A
12
14
94
64
28
38
48
58
54
92
A0
A0
20
ENDCHAR
STARTCHAR 2227
ENCODING 8743
SWIDTH 687 0
DWIDTH 11 0
BBX 8 8 1 0
BITMAP
08
18
14
24
22
42
41
81
ENDCHAR
STARTCHAR 2228
ENCODING 8744
SWIDTH 687 0
DWIDTH 11 0
BBX 8 8 1 1
BITMAP
81
41
41
22
22
14
14
08
ENDCHAR
STARTCHAR 2229
ENCODING 8745
SWIDTH 687 0
DWIDTH 11 0
BBX 7 9 2 0
BITMAP
38
44
82
82
82
82
82
82
82
ENDCHAR
STARTCHAR 222A
ENCODING 8746
SWIDTH 687 0
DWIDTH 11 0
BBX 7 10 2 0
BITMAP
82
82
82
82
82
82
82
82
44
38
ENDCHAR
STARTCHAR 222B
ENCODING 8747
SWIDTH 562 0
DWIDTH 9 0
BBX 9 14 0 -3
BITMAP
0380
0580
0800
0800
0800
0800
0800
0800
0800
0800
0800
1000
D000
E000
ENDCHAR
STARTCHAR 222C
ENCODING 8748
SWIDTH 875 0
DWIDTH 14 0
BBX 14 14 0 -3
BITMAP
039C
05AC
0820
0820
0840
0840
0840
0840
0840
0840
0840
1040
D2C0
E380
ENDCHAR
STARTCHAR 222E
ENCODING 8750
SWIDTH 562 0
DWIDTH 9 0
BBX 9 14 0 -3
BITMAP
0380
0580
0400
0800
0800
3E00
2A00
2A00
1C00
0800
0800
1000
D000
E000
ENDCHAR
STARTCHAR 2234
ENCODING 8756
SWIDTH 687 0
DWIDTH 11 0
BBX 9 8 1 1
BITMAP
1800
1800
0000
0000
0000
0000
C180
C180
ENDCHAR
STARTCHAR 2235
ENCODING 8757
SWIDTH 687 0
DWIDTH 11 0
BBX 9 8 1 1
BITMAP
C180
C180
0000
0000
0000
0000
1800
1800
ENDCHAR
STARTCHAR 223C
ENCODING 8764
SWIDTH 500 0
DWIDTH 8 0
BBX 4 2 2 9
BITMAP
C0
30
ENDCHAR
STARTCHAR 223D
ENCODING 8765
SWIDTH 687 0
DWIDTH 11 0
BBX 9 5 1 2
BITMAP
6700
8480
8880
9080
7300
ENDCHAR
STARTCHAR 2243
ENCODING 8771
SWIDTH 687 0
DWIDTH 11 0
BBX 9 5 1 3
BITMAP
7080
8F00
0000
0000
FF80
ENDCHAR
STARTCHAR 2245
ENCODING 8773
SWIDTH 687 0
DWIDTH 11 0
BBX 9 6 1 3
BITMAP
7880
8F00
0000
FF80
0000
FF80
ENDCHAR
STARTCHAR 2248
ENCODING 8776
SWIDTH 687 0
DWIDTH 11 0
BBX 9 5 1 3
BITMAP
7880
8F00
0000
7880
0700
ENDCHAR
STARTCHAR 2252
ENCODING 8786
SWIDTH 687 0
DWIDTH 11 0
BBX 9 10 1 0
BITMAP
6000
6000
0000
FF80
0000
0000
FF80
0000
0300
0300
ENDCHAR
STARTCHAR 2260
ENCODING 8800
SWIDTH 687 0
DWIDTH 11 0
BBX 9 9 1 1
BITMAP
0400
0400
FF80
0800
0800
FF80
1000
1000
2000
ENDCHAR
STARTCHAR 2261
ENCODING 8801
SWIDTH 687 0
DWIDTH 11 0
BBX 9 6 1 2
BITMAP
FF80
0000
0000
FF80
0000
FF80
ENDCHAR
STARTCHAR 2262
ENCODING 8802
SWIDTH 687 0
DWIDTH 11 0
BBX 9 9 1 1
BITMAP
0400
FF80
0800
0800
FF80
1000
FF80
1000
2000
ENDCHAR
STARTCHAR 2266
ENCODING 8806
SWIDTH 687 0
DWIDTH 11 0
BBX 9 11 1 1
BITMAP
0180
0E00
7000
C000
3800
0780
0000
FF80
0000
0000
FF80
ENDCHAR
STARTCHAR 2267
ENCODING 8807
SWIDTH 687 0
DWIDTH 11 0
BBX 9 11 1 1
BITMAP
C000
3800
0700
0180
0E00
F000
0000
FF80
0000
0000
FF80
ENDCHAR
STARTCHAR 226A
ENCODING 8810
SWIDTH 687 0
DWIDTH 11 0
BBX 9 8 1 1
BITMAP
0980
1200
6400
9800
C800
2400
1200
0980
ENDCHAR
STARTCHAR 226B
ENCODING 8811
SWIDTH 687 0
DWIDTH 11 0
BBX 9 8 1 1
BITMAP
C800
2400
1200
0D80
0980
1200
6400
9800
ENDCHAR
STARTCHAR 2276
ENCODING 8822
SWIDTH 687 0
DWIDTH 11 0
BBX 9 11 1 0
BITMAP
0080
0700
7800
C000
3C00
C380
3800
0780
0300
3C00
C000
ENDCHAR
STARTCHAR 2277
ENCODING 8823
SWIDTH 687 0
DWIDTH 11 0
BBX 9 11 1 0
BITMAP
8000
7000
0F00
0180
1E00
E180
0E00
F000
6000
1E00
0180
ENDCHAR
STARTCHAR 2282
ENCODING 8834
SWIDTH 687 0
DWIDTH 11 0
BBX 9 8 1 1
BITMAP
3F80
4000
8000
8000
8000
8000
4000
3F80
ENDCHAR
STARTCHAR 2283
ENCODING 8835
SWIDTH 687 0
DWIDTH 11 0
BBX 9 8 1 1
BITMAP
FE00
0100
0080
0080
0080
0080
0100
FE00
ENDCHAR
STARTCHAR 2284
ENCODING 8836
SWIDTH 687 0
DWIDTH 11 0
BBX 9 10 1 0
BITMAP
0200
3F80
4200
8400
8400
8800
8800
5000
3F80
1000
ENDCHAR
STARTCHAR 2285
ENCODING 8837
SWIDTH 687 0
DWIDTH 11 0
BBX 9 10 1 0
BITMAP
0400
FE00
0900
0880
1080
1080
2080
2100
FE00
4000
ENDCHAR
STARTCHAR 2286
ENCODING 8838
SWIDTH 687 0
DWIDTH 11 0
BBX 9 9 1 1
BITMAP
3F80
4000
8000
8000
8000
C000
7F80
0000
FF80
ENDCHAR
STARTCHAR 2287
ENCODING 8839
SWIDTH 687 0
DWIDTH 11 0
BBX 9 9 1 1
BITMAP
FE00
0100
0080
0080
0080
0100
FE00
0000
FF80
ENDCHAR
STARTCHAR 228A
ENCODING 8842
SWIDTH 687 0
DWIDTH 11 0
BBX 9 11 1 -1
BITMAP
3F80
4000
8000
8000
8000
8000
4000
3F80
0000
FF80
1000
ENDCHAR
STARTCHAR 228B
ENCODING 8843
SWIDTH 687 0
DWIDTH 11 0
BBX 9 11 1 -1
BITMAP
FE00
0100
0080
0080
0080
0080
0100
FE00
0000
FF80
1000
ENDCHAR
STARTCHAR 2295
ENCODING 8853
SWIDTH 875 0
DWIDTH 14 0
BBX 13 11 0 0
BITMAP
0F80
3260
4210
C208
8208
BFE8
8208
C208
4210
3260
0F80
ENDCHAR
STARTCHAR 2296
ENCODING 8854
SWIDTH 875 0
DWIDTH 14 0
BBX 12 11 1 0
BITMAP
0F00
30C0
4020
C010
8010
BFD0
8010
C010
4020
3040
1F80
ENDCHAR
STARTCHAR 2297
ENCODING 8855
SWIDTH 875 0
DWIDTH 14 0
BBX 12 11 1 0
BITMAP
0F00
30C0
40A0
D110
8A10
8410
8B10
D190
4020
30C0
1F00
ENDCHAR
STARTCHAR 22A5
ENCODING 8869
SWIDTH 687 0
DWIDTH 11 0
BBX 9 10 1 1
BITMAP
0800
0800
0800
0800
0800
0800
0800
0800
0800
FF80
ENDCHAR
STARTCHAR 22BF
ENCODING 8895
SWIDTH 687 0
DWIDTH 11 0
BBX 9 10 1 2
BITMAP
0080
0080
0380
0480
0880
1080
2080
4080
8080
FF80
ENDCHAR
STARTCHAR 22DA
ENCODING 8922
SWIDTH 687 0
DWIDTH 11 0
BBX 9 11 1 0
BITMAP
0180
3E00
C000
3F00
0080
FF80
0000
F000
0F80
0E00
F000
ENDCHAR
STARTCHAR 22DB
ENCODING 8923
SWIDTH 687 0
DWIDTH 11 0
BBX 9 11 1 0
BITMAP
C000
3E00
0180
7E00
8000
FF80
0000
0700
F800
3800
0780
ENDCHAR
STARTCHAR 2305
ENCODING 8965
SWIDTH 687 0
DWIDTH 11 0
BBX 9 7 1 0
BITMAP
FF80
0800
1400
1400
2400
2200
4200
ENDCHAR
STARTCHAR 2306
ENCODING 8966
SWIDTH 687 0
DWIDTH 11 0
BBX 9 10 1 0
BITMAP
FF80
0000
0000
FF80
0800
1400
1400
2200
2200
4100
ENDCHAR
STARTCHAR 2312
ENCODING 8978
SWIDTH 1000 0
DWIDTH 16 0
BBX 16 4 0 9
BITMAP
07E0
381C
4002
8001
ENDCHAR
STARTCHAR 2318
ENCODING 8984
SWIDTH 1000 0
DWIDTH 16 0
BBX 16 15 0 -1
BITMAP
700E
8811
8811
8811
7FFE
0810
0810
0810
0810
0810
7FFE
8811
8811
8811
700E
ENDCHAR
STARTCHAR 23BE
ENCODING 9150
SWIDTH 1000 0
DWIDTH 16 0
BBX 9 16 8 -3
BITMAP
FF80
8000
8000
8000
8000
8000
8000
8000
8000
8000
8000
8000
8000
8000
8000
8000
ENDCHAR
STARTCHAR 23BF
ENCODING 9151
SWIDTH 1000 0
DWIDTH 16 0
BBX 9 16 8 -1
BITMAP
8000
8000
8000
8000
8000
8000
8000
8000
8000
8000
8000
8000
8000
8000
8000
FF80
ENDCHAR
STARTCHAR 23C0
ENCODING 9152
SWIDTH 1000 0
DWIDTH 16 0
BBX 13 16 2 -1
BITMAP
0200
0200
0F80
3260
4210
4210
8208
8208
8208
8208
4210
4210
2220
1FC0
0200
0200
ENDCHAR
STARTCHAR 23C1
ENCODING 9153
SWIDTH 1000 0
DWIDTH 16 0
BBX 17 16 0 -3
BITMAP
FFFF80
008000
01C000
06B000
088C00
108400
208200
208200
208200
208200
208200
108400
088800
04B000
03C000
008000
ENDCHAR
STARTCHAR 23C2
ENCODING 9154
SWIDTH 1000 0
DWIDTH 16 0
BBX 17 16 0 -1
BITMAP
008000
008000
07F000
088800
108400
208200
208200
208200
208200
208200
108400
188400
049800
03E000
008000
FFFF80
ENDCHAR
STARTCHAR 23C3
ENCODING 9155
SWIDTH 1000 0
DWIDTH 16 0
BBX 13 17 2 -2
BITMAP
0200
0200
0200
0700
0700
0A80
1280
1240
2240
2220
4210
8210
8208
FFF8
0200
0200
0200
ENDCHAR
STARTCHAR 23C4
ENCODING 9156
SWIDTH 1000 0
DWIDTH 16 0
BBX 17 16 0 -2
BITMAP
FFFF80
008000
008000
01C000
02C000
02A000
049000
049000
088800
108800
108400
208200
3FFE00
008000
008000
008000
ENDCHAR
STARTCHAR 23C5
ENCODING 9157
SWIDTH 1000 0
DWIDTH 16 0
BBX 17 17 0 -2
BITMAP
008000
008000
008000
01C000
01C000
02A000
04A000
049000
089000
088800
108400
208400
208200
3FFE00
008000
008000
FFFF80
ENDCHAR
STARTCHAR 23C6
ENCODING 9158
SWIDTH 1000 0
DWIDTH 16 0
BBX 15 16 1 -1
BITMAP
0100
0100
0100
0100
0100
0100
7900
8700
01C2
013C
0100
0100
0100
0100
0100
0100
ENDCHAR
STARTCHAR 23C7
ENCODING 9159
SWIDTH 1000 0
DWIDTH 16 0
BBX 17 16 0 -3
BITMAP
FFFF80
008000
008000
008000
008000
008000
1C8000
638000
00C000
00BE00
008000
008000
008000
008000
008000
008000
ENDCHAR
STARTCHAR 23C8
ENCODING 9160
SWIDTH 1000 0
DWIDTH 16 0
BBX 17 16 0 -1
BITMAP
008000
008000
008000
008000
008000
008000
3E8000
018000
00E300
009C00
008000
008000
008000
008000
008000
FFFF80
ENDCHAR
STARTCHAR 23C9
ENCODING 9161
SWIDTH 1000 0
DWIDTH 16 0
BBX 17 16 0 -3
BITMAP
FFFF80
008000
008000
008000
008000
008000
008000
008000
008000
008000
008000
008000
008000
008000
008000
008000
ENDCHAR
STARTCHAR 23CA
ENCODING 9162
SWIDTH 1000 0
DWIDTH 16 0
BBX 17 16 0 -1
BITMAP
008000
008000
008000
008000
008000
008000
008000
008000
008000
008000
008000
008000
008000
008000
008000
FFFF80
ENDCHAR
STARTCHAR 23CB
ENCODING 9163
SWIDTH 1000 0
DWIDTH 16 0
BBX 9 16 -1 -3
BITMAP
FF80
0080
0080
0080
0080
0080
0080
0080
0080
0080
0080
0080
0080
0080
0080
0080
ENDCHAR
STARTCHAR 23CC
ENCODING 9164
SWIDTH 1000 0
DWIDTH 16 0
BBX 9 16 -1 -1
BITMAP
0080
0080
0080
0080
0080
0080
0080
0080
0080
0080
0080
0080
0080
0080
0080
FF80
ENDCHAR
STARTCHAR 23CE
ENCODING 9166
SWIDTH 1000 0
DWIDTH 16 0
BBX 12 12 2 -1
BITMAP
01F0
0110
0110
0110
0910
3910
4F10
8010
8030
4FE0
2800
1800
ENDCHAR
STARTCHAR 2423
ENCODING 9251
SWIDTH 1000 0
DWIDTH 16 0
BBX 12 4 2 0
BITMAP
8010
8010
8010
FFF0
ENDCHAR
STARTCHAR 2460
ENCODING 9312
SWIDTH 1000 0
DWIDTH 16 0
BBX 15 14 1 -1
BITMAP
07C0
1830
2108
4304
C104
8102
8102
8102
8102
8104
4104
2388
1010
0FE0
ENDCHAR
STARTCHAR 2461
ENCODING 9313
SWIDTH 1000 0
DWIDTH 16 0
BBX 15 14 0 -1
BITMAP
07E0
1830
23C8
4464
C426
8022
8042
8082
8102
8204
4424
27E8
1810
07E0
ENDCHAR
STARTCHAR 2462
ENCODING 9314
SWIDTH 1000 0
DWIDTH 16 0
BBX 14 14 1 -1
BITMAP
0FC0
3070
4798
48C8
8C4C
8044
8384
8084
8044
8848
88C8
4790
3020
0FC0
ENDCHAR
STARTCHAR 2463
ENCODING 9315
SWIDTH 1000 0
DWIDTH 16 0
BBX 15 16 1 -2
BITMAP
07C0
0820
3018
4088
4184
8282
8482
8882
9082
9FE2
8082
4084
41C4
2008
1830
07C0
ENDCHAR
STARTCHAR 2464
ENCODING 9316
SWIDTH 1000 0
DWIDTH 16 0
BBX 14 14 1 -1
BITMAP
0FC0
3070
47D8
4808
880C
8B84
8CC4
8044
8044
8848
8888
4790
3020
0FC0
ENDCHAR
STARTCHAR 2465
ENCODING 9317
SWIDTH 1000 0
DWIDTH 16 0
BBX 14 14 1 -1
BITMAP
0FC0
3070
4398
44C8
880C
8804
8F84
8CC4
8844
8848
84C8
4390
3020
0FC0
ENDCHAR
STARTCHAR 2466
ENCODING 9318
SWIDTH 1000 0
DWIDTH 16 0
BBX 14 15 1 -1
BITMAP
0780
1860
2010
4FC8
4848
8884
8084
8104
8104
8104
8208
8208
4210
3020
0FC0
ENDCHAR
STARTCHAR 2467
ENCODING 9319
SWIDTH 1000 0
DWIDTH 16 0
BBX 14 14 1 -1
BITMAP
0FC0
3070
4798
48C8
884C
8C84
8304
8484
8844
8848
8848
4790
3020
0FC0
ENDCHAR
STARTCHAR 2468
ENCODING 9320
SWIDTH 1000 0
DWIDTH 16 0
BBX 14 14 1 -1
BITMAP
0FC0
3070
4798
4C88
884C
8844
8C44
87C4
8044
8C48
8888
4710
3020
0FC0
ENDCHAR
STARTCHAR 2469
ENCODING 9321
SWIDTH 1000 0
DWIDTH 16 0
BBX 15 15 1 -2
BITMAP
07C0
1830
2018
58E4
48A4
8912
8912
8912
8912
8912
88A4
48E4
2008
1830
07C0
ENDCHAR
STARTCHAR 246A
ENCODING 9322
SWIDTH 1000 0
DWIDTH 16 0
BBX 14 15 1 -2
BITMAP
0780
1860
2010
58C8
4848
8844
8844
8844
8844
8844
8848
4848
2010
1060
0F80
ENDCHAR
STARTCHAR 246B
ENCODING 9323
SWIDTH 1000 0
DWIDTH 16 0
BBX 14 15 1 -2
BITMAP
0F80
1060
20D0
5928
8928
8824
8844
8844
8884
8904
8928
5DE8
2010
1860
0780
ENDCHAR
STARTCHAR 246C
ENCODING 9324
SWIDTH 1000 0
DWIDTH 16 0
BBX 15 15 1 -2
BITMAP
07C0
1830
2018
59C4
4924
8822
8822
8862
8812
8912
8914
48E4
2008
1830
07C0
ENDCHAR
STARTCHAR 246D
ENCODING 9325
SWIDTH 1000 0
DWIDTH 16 0
BBX 14 16 1 -2
BITMAP
0780
1860
2010
5848
48C8
8944
8944
8A44
8A44
8BF4
8844
8848
5CE8
2010
1820
07C0
ENDCHAR
STARTCHAR 246E
ENCODING 9326
SWIDTH 1000 0
DWIDTH 16 0
BBX 15 16 1 -2
BITMAP
07C0
1820
2010
59E8
4904
8902
8902
89E2
8812
8812
8912
8934
5CE4
2008
1830
07C0
ENDCHAR
STARTCHAR 246F
ENCODING 9327
SWIDTH 1000 0
DWIDTH 16 0
BBX 15 15 1 -2
BITMAP
07C0
1830
2018
5874
48B4
8902
89E2
8912
8912
8912
8994
48E4
2008
1830
07C0
ENDCHAR
STARTCHAR 2470
ENCODING 9328
SWIDTH 1000 0
DWIDTH 16 0
BBX 15 16 1 -2
BITMAP
07C0
1820
2018
59F8
4914
8822
8822
8822
8842
8842
8842
8844
5C44
2008
1830
07C0
ENDCHAR
STARTCHAR 2471
ENCODING 9329
SWIDTH 1000 0
DWIDTH 16 0
BBX 15 15 1 -2
BITMAP
07C0
1830
2018
58E4
4914
8912
88A2
88E2
8932
8912
8914
48E4
2008
1830
07C0
ENDCHAR
STARTCHAR 2472
ENCODING 9330
SWIDTH 1000 0
DWIDTH 16 0
BBX 15 15 1 -2
BITMAP
07C0
1830
2018
58E4
4914
8912
8912
88F2
8812
8832
8924
49E4
2008
1830
07C0
ENDCHAR
STARTCHAR 2473
ENCODING 9331
SWIDTH 1000 0
DWIDTH 16 0
BBX 15 15 1 -2
BITMAP
07C0
1830
2C68
5294
5294
8292
8492
8492
8892
9092
5294
5E64
2008
1830
07C0
ENDCHAR
STARTCHAR 24D0
ENCODING 9424
SWIDTH 1000 0
DWIDTH 16 0
BBX 15 14 0 -1
BITMAP
07E0
1838
200C
4004
8786
8442
81C2
8642
8442
47E4
4004
2008
1810
07E0
ENDCHAR
STARTCHAR 24D1
ENCODING 9425
SWIDTH 1000 0
DWIDTH 16 0
BBX 15 14 1 -1
BITMAP
0FC0
3030
4C08
4404
8406
87C2
8462
8422
8422
8464
47C4
2008
1010
0FE0
ENDCHAR
STARTCHAR 24D2
ENCODING 9426
SWIDTH 1000 0
DWIDTH 16 0
BBX 14 14 1 -1
BITMAP
0FC0
3070
4018
4008
870C
8C84
8804
8804
8C44
8788
8008
4010
3020
0FC0
ENDCHAR
STARTCHAR 24D3
ENCODING 9427
SWIDTH 1000 0
DWIDTH 16 0
BBX 14 14 1 -1
BITMAP
0FC0
3070
4198
4088
808C
8F84
9884
9084
9084
9888
8F88
4010
3020
0FC0
ENDCHAR
STARTCHAR 24D4
ENCODING 9428
SWIDTH 1000 0
DWIDTH 16 0
BBX 14 15 1 -1
BITMAP
0780
1860
2010
4008
4788
8484
8844
8FC4
8804
8804
8488
8388
4010
3020
0FC0
ENDCHAR
STARTCHAR 24D5
ENCODING 9429
SWIDTH 1000 0
DWIDTH 16 0
BBX 14 15 1 -1
BITMAP
0780
1860
2010
43C8
42C8
8204
8784
8204
8204
8204
8208
8208
4010
3020
0FC0
ENDCHAR
STARTCHAR 24D6
ENCODING 9430
SWIDTH 1000 0
DWIDTH 16 0
BBX 14 14 1 -1
BITMAP
0FC0
3070
4018
4FE8
888C
8884
8704
8404
8BC4
8848
8788
4010
3020
0FC0
ENDCHAR
STARTCHAR 24D7
ENCODING 9431
SWIDTH 1000 0
DWIDTH 16 0
BBX 14 15 1 -1
BITMAP
0780
1860
2010
4C08
4408
8404
8784
8444
8444
8444
8448
4448
2010
1820
07C0
ENDCHAR
STARTCHAR 24D8
ENCODING 9432
SWIDTH 1000 0
DWIDTH 16 0
BBX 15 15 1 -1
BITMAP
07C0
1820
2018
4104
4004
8002
8102
8102
8102
8102
8104
4104
2008
1830
07C0
ENDCHAR
STARTCHAR 24D9
ENCODING 9433
SWIDTH 1000 0
DWIDTH 16 0
BBX 14 14 1 -1
BITMAP
0FC0
3070
4118
4008
830C
8104
8104
8104
8104
8108
8D08
4E10
3020
0FC0
ENDCHAR
STARTCHAR 24DA
ENCODING 9434
SWIDTH 1000 0
DWIDTH 16 0
BBX 14 14 1 -1
BITMAP
0FC0
3070
4C18
4408
840C
8444
8484
8504
8684
8488
4468
2010
1020
0FC0
ENDCHAR
STARTCHAR 24DB
ENCODING 9435
SWIDTH 1000 0
DWIDTH 16 0
BBX 15 15 1 -1
BITMAP
07C0
1820
2018
4304
4104
8102
8102
8102
8102
8102
8104
4104
2008
1830
07C0
ENDCHAR
STARTCHAR 24DC
ENCODING 9436
SWIDTH 1000 0
DWIDTH 16 0
BBX 14 14 1 -1
BITMAP
0FC0
3060
4010
4008
9FEC
9124
9124
9124
9124
9128
8008
4010
3020
0FC0
ENDCHAR
STARTCHAR 24DD
ENCODING 9437
SWIDTH 1000 0
DWIDTH 16 0
BBX 14 14 1 -1
BITMAP
0FC0
3070
4018
4008
878C
8444
8444
8444
8444
8448
4008
2010
1020
0FC0
ENDCHAR
STARTCHAR 24DE
ENCODING 9438
SWIDTH 1000 0
DWIDTH 16 0
BBX 14 14 1 -1
BITMAP
0FC0
3070
4018
4008
878C
8844
8844
8844
8C44
8788
8008
4010
3020
0FC0
ENDCHAR
STARTCHAR 24DF
ENCODING 9439
SWIDTH 1000 0
DWIDTH 16 0
BBX 14 15 1 -1
BITMAP
07C0
1860
2010
4008
47C8
8464
8424
8424
8464
87C4
8408
4408
2010
1820
07C0
ENDCHAR
STARTCHAR 24E0
ENCODING 9440
SWIDTH 1000 0
DWIDTH 16 0
BBX 14 15 1 -1
BITMAP
0F80
1060
2010
4008
4F88
9884
9084
9084
9884
8F84
8088
8088
4010
3020
0FC0
ENDCHAR
STARTCHAR 24E1
ENCODING 9441
SWIDTH 1000 0
DWIDTH 16 0
BBX 15 14 1 -1
BITMAP
0FC0
3030
4008
4004
82C6
8302
8202
8202
8202
8204
4004
2008
1010
0FE0
ENDCHAR
STARTCHAR 24E2
ENCODING 9442
SWIDTH 1000 0
DWIDTH 16 0
BBX 15 14 0 -1
BITMAP
07E0
1830
2008
4004
87C6
8402
8702
81C2
8442
8484
4304
2008
1810
07E0
ENDCHAR
STARTCHAR 24E3
ENCODING 9443
SWIDTH 1000 0
DWIDTH 16 0
BBX 15 15 1 -1
BITMAP
07C0
1820
2018
400C
4204
8782
8202
8202
8202
8202
8204
8384
4008
3010
0FE0
ENDCHAR
STARTCHAR 24E4
ENCODING 9444
SWIDTH 1000 0
DWIDTH 16 0
BBX 16 14 0 -1
BITMAP
07E0
1818
200C
4002
8423
8421
8421
8421
8421
83E2
4002
2004
1808
07F0
ENDCHAR
STARTCHAR 24E5
ENCODING 9445
SWIDTH 1000 0
DWIDTH 16 0
BBX 14 14 1 -1
BITMAP
0FC0
3070
4018
4008
884C
8884
8484
8484
8304
8308
8008
6010
1020
0FC0
ENDCHAR
STARTCHAR 24E6
ENCODING 9446
SWIDTH 1000 0
DWIDTH 16 0
BBX 14 15 1 -1
BITMAP
0780
1860
2010
4008
4008
9134
9124
8B44
8AC4
8CC4
8488
8008
6010
1020
0FC0
ENDCHAR
STARTCHAR 24E7
ENCODING 9447
SWIDTH 1000 0
DWIDTH 16 0
BBX 14 14 1 -1
BITMAP
0FC0
3070
4010
4008
8C4C
8684
8304
8304
8484
8844
8008
4010
3020
0FC0
ENDCHAR
STARTCHAR 24E8
ENCODING 9448
SWIDTH 1000 0
DWIDTH 16 0
BBX 14 15 1 -1
BITMAP
0780
1860
2010
4008
4C68
8444
8284
8284
8104
8104
8E08
4E08
2010
1020
0FC0
ENDCHAR
STARTCHAR 24E9
ENCODING 9449
SWIDTH 1000 0
DWIDTH 16 0
BBX 15 14 0 -1
BITMAP
07E0
1838
200C
4004
87C6
80C2
8182
8102
8222
8424
43C4
2008
1810
07E0
ENDCHAR
STARTCHAR 24EB
ENCODING 9451
SWIDTH 1000 0
DWIDTH 16 0
BBX 14 15 1 -2
BITMAP
0780
1FE0
3FF0
6738
77B8
F7BC
F7BC
F7BC
F7BC
F7BC
77B8
77B8
3FF0
1FE0
0780
ENDCHAR
STARTCHAR 24EC
ENCODING 9452
SWIDTH 1000 0
DWIDTH 16 0
BBX 15 15 1 -2
BITMAP
07C0
1FF0
3F18
76EC
766C
F7EE
F7DE
F7DE
F7BE
F77E
77EC
620C
3FF8
1FF0
07C0
ENDCHAR
STARTCHAR 24ED
ENCODING 9453
SWIDTH 1000 0
DWIDTH 16 0
BBX 15 15 1 -2
BITMAP
07C0
1FF0
3FF8
67FC
766C
F7EE
F7DE
F7DE
F7EE
F6EE
76EC
73DC
3FF8
1FF0
07C0
ENDCHAR
STARTCHAR 24EE
ENCODING 9454
SWIDTH 1000 0
DWIDTH 16 0
BBX 14 16 1 -2
BITMAP
0780
1FC0
3FF0
67B8
7738
F7BC
F7BC
F6BC
F7BC
F40C
F7BC
77B8
6318
3FF0
1FE0
0780
ENDCHAR
STARTCHAR 24EF
ENCODING 9455
SWIDTH 1000 0
DWIDTH 16 0
BBX 15 16 1 -2
BITMAP
07C0
0FE0
3FF8
6708
77FC
F7FE
F6FE
F65E
F7EE
F7EE
F66E
766C
63DC
3FF8
1FF0
07C0
ENDCHAR
STARTCHAR 24F0
ENCODING 9456
SWIDTH 1000 0
DWIDTH 16 0
BBX 15 15 1 -2
BITMAP
07C0
1FF0
3FF8
67EC
776C
F6FE
F69E
F66E
F6EE
F6EE
76EC
775C
3FF8
1FF0
07C0
ENDCHAR
STARTCHAR 24F1
ENCODING 9457
SWIDTH 1000 0
DWIDTH 16 0
BBX 14 16 1 -2
BITMAP
07C0
1FE0
3FF0
6608
76E8
F7FC
F7DC
F7DC
F7FC
F7BC
F7BC
77B8
63B8
3FF0
1FE0
0780
ENDCHAR
STARTCHAR 24F2
ENCODING 9458
SWIDTH 1000 0
DWIDTH 16 0
BBX 15 15 1 -2
BITMAP
07C0
1FF0
3FF8
67FC
76EC
F6EE
F75E
F71E
F6CE
F6EE
76EC
777C
3FF8
1FF0
07C0
ENDCHAR
STARTCHAR 24F3
ENCODING 9459
SWIDTH 1000 0
DWIDTH 16 0
BBX 15 15 1 -2
BITMAP
07C0
1FF0
3FF8
675C
76EC
F6EE
F6EE
F76E
F7EE
F7EE
767C
76DC
3FF8
1FF0
07C0
ENDCHAR
STARTCHAR 24F4
ENCODING 9460
SWIDTH 1000 0
DWIDTH 16 0
BBX 15 15 0 -2
BITMAP
07C0
1FF0
3388
6DAC
6D74
FD76
FB76
FB76
F776
FF76
6DFC
61AC
3FF8
1FF0
07C0
ENDCHAR
STARTCHAR 24F5
ENCODING 9461
SWIDTH 1000 0
DWIDTH 16 0
BBX 15 14 1 -1
BITMAP
0FC0
3FF0
7038
C30C
C10A
8106
8106
8106
8106
C10A
C10C
6114
3878
1FE0
ENDCHAR
STARTCHAR 24F6
ENCODING 9462
SWIDTH 1000 0
DWIDTH 16 0
BBX 15 14 0 -1
BITMAP
0FE0
17D0
3BF8
646C
A42A
C426
C046
C086
C106
A20A
642C
37F4
1C48
0BB0
ENDCHAR
STARTCHAR 24F7
ENCODING 9463
SWIDTH 1000 0
DWIDTH 16 0
BBX 16 15 0 -1
BITMAP
07E0
1BD8
3C3C
73CE
646A
A625
C025
C1C5
C045
C025
A42A
646A
33D4
1C68
0BB0
ENDCHAR
STARTCHAR 24F8
ENCODING 9464
SWIDTH 1000 0
DWIDTH 16 0
BBX 15 15 1 -1
BITMAP
07C0
1FF0
3838
608C
C18C
C286
8486
8886
8886
9FE6
C08C
C08C
6018
3870
1FE0
ENDCHAR
STARTCHAR 24F9
ENCODING 9465
SWIDTH 1000 0
DWIDTH 16 0
BBX 16 15 0 -1
BITMAP
07E0
1BD8
2C34
53EA
640A
A405
C5C5
C665
C025
C025
642A
644A
3394
1C68
0FB0
ENDCHAR
STARTCHAR 24FA
ENCODING 9466
SWIDTH 1000 0
DWIDTH 16 0
BBX 16 15 0 -1
BITMAP
07E0
1BD8
3C3C
71CE
626A
A405
C405
C7C5
C665
C425
A42A
626A
31D4
1C68
0BB0
ENDCHAR
STARTCHAR 24FB
ENCODING 9467
SWIDTH 1000 0
DWIDTH 16 0
BBX 15 15 0 -1
BITMAP
07C0
1FF0
3838
67EC
644C
C046
C086
C086
C086
C086
610A
610C
3114
1C78
0FE0
ENDCHAR
STARTCHAR 24FC
ENCODING 9468
SWIDTH 1000 0
DWIDTH 16 0
BBX 16 15 0 -1
BITMAP
07E0
1BD8
3C3C
73CE
642A
A425
C645
C185
C245
C425
A42A
666A
33D4
1C68
0BB0
ENDCHAR
STARTCHAR 24FD
ENCODING 9469
SWIDTH 1000 0
DWIDTH 16 0
BBX 16 15 0 -1
BITMAP
07E0
1BD8
3C3C
73CE
664A
A425
C425
C665
C3A5
C025
A62A
644A
3394
1C68
0BB0
ENDCHAR
STARTCHAR 24FE
ENCODING 9470
SWIDTH 1000 0
DWIDTH 16 0
BBX 16 15 0 -1
BITMAP
07E0
1FD8
3834
6C6A
649A
C495
C495
C495
C495
C495
649A
646C
3014
1C78
0FA0
ENDCHAR
STARTCHAR 2500
ENCODING 9472
SWIDTH 1000 0
DWIDTH 16 0
BBX 16 1 0 5
BITMAP
FFFF
ENDCHAR
STARTCHAR 2501
ENCODING 9473
SWIDTH 1000 0
DWIDTH 16 0
BBX 16 2 0 5
BITMAP
FFFF
FFFF
ENDCHAR
STARTCHAR 2502
ENCODING 9474
SWIDTH 1000 0
DWIDTH 16 0
BBX 1 16 8 -1
BITMAP
80
80
80
80
80
80
80
80
80
80
80
80
80
80
80
80
ENDCHAR
STARTCHAR 2503
ENCODING 9475
SWIDTH 1000 0
DWIDTH 16 0
BBX 2 16 7 -2
BITMAP
C0
C0
C0
C0
C0
C0
C0
C0
C0
C0
C0
C0
C0
C0
C0
C0
ENDCHAR
STARTCHAR 250C
ENCODING 9484
SWIDTH 1000 0
DWIDTH 16 0
BBX 9 9 8 -3
BITMAP
FF80
8000
8000
8000
8000
8000
8000
8000
8000
ENDCHAR
STARTCHAR 250F
ENCODING 9487
SWIDTH 1000 0
DWIDTH 16 0
BBX 9 9 7 -2
BITMAP
FF80
FF80
C000
C000
C000
C000
C000
C000
C000
ENDCHAR
STARTCHAR 2510
ENCODING 9488
SWIDTH 1000 0
DWIDTH 16 0
BBX 9 9 -1 -3
BITMAP
FF80
0080
0080
0080
0080
0080
0080
0080
0080
ENDCHAR
STARTCHAR 2513
ENCODING 9491
SWIDTH 1000 0
DWIDTH 16 0
BBX 9 9 0 -2
BITMAP
FF80
FF80
0180
0180
0180
0180
0180
0180
0180
ENDCHAR
STARTCHAR 2514
ENCODING 9492
SWIDTH 1000 0
DWIDTH 16 0
BBX 9 9 8 5
BITMAP
8000
8000
8000
8000
8000
8000
8000
8000
FF80
ENDCHAR
STARTCHAR 2517
ENCODING 9495
SWIDTH 1000 0
DWIDTH 16 0
BBX 9 9 7 5
BITMAP
C000
C000
C000
C000
C000
C000
C000
FF80
FF80
ENDCHAR
STARTCHAR 2518
ENCODING 9496
SWIDTH 1000 0
DWIDTH 16 0
BBX 9 9 -1 5
BITMAP
0080
0080
0080
0080
0080
0080
0080
0080
FF80
ENDCHAR
STARTCHAR 251B
ENCODING 9499
SWIDTH 1000 0
DWIDTH 16 0
BBX 9 9 0 5
BITMAP
0180
0180
0180
0180
0180
0180
0180
FF80
FF80
ENDCHAR
STARTCHAR 251C
ENCODING 9500
SWIDTH 1000 0
DWIDTH 16 0
BBX 9 17 8 -3
BITMAP
8000
8000
8000
8000
8000
8000
8000
8000
FF80
8000
8000
8000
8000
8000
8000
8000
8000
ENDCHAR
STARTCHAR 251D
ENCODING 9501
SWIDTH 1000 0
DWIDTH 16 0
BBX 8 16 8 -2
BITMAP
80
80
80
80
80
80
80
FF
FF
80
80
80
80
80
80
80
ENDCHAR
STARTCHAR 2520
ENCODING 9504
SWIDTH 1000 0
DWIDTH 16 0
BBX 9 16 7 -2
BITMAP
C000
C000
C000
C000
C000
C000
C000
C000
FF80
C000
C000
C000
C000
C000
C000
C000
ENDCHAR
STARTCHAR 2523
ENCODING 9507
SWIDTH 1000 0
DWIDTH 16 0
BBX 9 16 7 -2
BITMAP
C000
C000
C000
C000
C000
C000
C000
FF80
FF80
C000
C000
C000
C000
C000
C000
C000
ENDCHAR
STARTCHAR 2524
ENCODING 9508
SWIDTH 1000 0
DWIDTH 16 0
BBX 9 17 -1 -3
BITMAP
0080
0080
0080
0080
0080
0080
0080
0080
FF80
0080
0080
0080
0080
0080
0080
0080
0080
ENDCHAR
STARTCHAR 2525
ENCODING 9509
SWIDTH 1000 0
DWIDTH 16 0
BBX 8 16 0 -2
BITMAP
01
01
01
01
01
01
01
FF
FF
01
01
01
01
01
01
01
ENDCHAR
STARTCHAR 2528
ENCODING 9512
SWIDTH 1000 0
DWIDTH 16 0
BBX 9 16 0 -2
BITMAP
0180
0180
0180
0180
0180
0180
0180
0180
FF80
0180
0180
0180
0180
0180
0180
0180
ENDCHAR
STARTCHAR 252B
ENCODING 9515
SWIDTH 1000 0
DWIDTH 16 0
BBX 9 16 0 -2
BITMAP
0180
0180
0180
0180
0180
0180
0180
FF80
FF80
0180
0180
0180
0180
0180
0180
0180
ENDCHAR
STARTCHAR 252C
ENCODING 9516
SWIDTH 1000 0
DWIDTH 16 0
BBX 17 9 0 -3
BITMAP
FFFF80
008000
008000
008000
008000
008000
008000
008000
008000
ENDCHAR
STARTCHAR 252F
ENCODING 9519
SWIDTH 1000 0
DWIDTH 16 0
BBX 16 9 0 -3
BITMAP
FFFF
FFFF
0080
0080
0080
0080
0080
0080
0080
ENDCHAR
STARTCHAR 2530
ENCODING 9520
SWIDTH 1000 0
DWIDTH 16 0
BBX 16 8 0 -2
BITMAP
FFFF
0180
0180
0180
0180
0180
0180
0180
ENDCHAR
STARTCHAR 2533
ENCODING 9523
SWIDTH 1000 0
DWIDTH 16 0
BBX 16 9 0 -2
BITMAP
FFFF
FFFF
0180
0180
0180
0180
0180
0180
0180
ENDCHAR
STARTCHAR 2534
ENCODING 9524
SWIDTH 1000 0
DWIDTH 16 0
BBX 17 9 0 5
BITMAP
008000
008000
008000
008000
008000
008000
008000
008000
FFFF80
ENDCHAR
STARTCHAR 2537
ENCODING 9527
SWIDTH 1000 0
DWIDTH 16 0
BBX 16 9 0 6
BITMAP
0080
0080
0080
0080
0080
0080
0080
FFFF
FFFF
ENDCHAR
STARTCHAR 2538
ENCODING 9528
SWIDTH 1000 0
DWIDTH 16 0
BBX 16 9 0 5
BITMAP
0180
0180
0180
0180
0180
0180
0180
0180
FFFF
ENDCHAR
STARTCHAR 253B
ENCODING 9531
SWIDTH 1000 0
DWIDTH 16 0
BBX 16 9 0 5
BITMAP
0180
0180
0180
0180
0180
0180
0180
FFFF
FFFF
ENDCHAR
STARTCHAR 253C
ENCODING 9532
SWIDTH 1000 0
DWIDTH 16 0
BBX 17 17 0 -3
BITMAP
008000
008000
008000
008000
008000
008000
008000
008000
FFFF80
008000
008000
008000
008000
008000
008000
008000
008000
ENDCHAR
STARTCHAR 253F
ENCODING 9535
SWIDTH 1000 0
DWIDTH 16 0
BBX 16 16 0 -2
BITMAP
0080
0080
0080
0080
0080
0080
0080
FFFF
FFFF
0080
0080
0080
0080
0080
0080
0080
ENDCHAR
STARTCHAR 2542
ENCODING 9538
SWIDTH 1000 0
DWIDTH 16 0
BBX 16 16 0 -2
BITMAP
0180
0180
0180
0180
0180
0180
0180
0180
FFFF
0180
0180
0180
0180
0180
0180
0180
ENDCHAR
STARTCHAR 254B
ENCODING 9547
SWIDTH 1000 0
DWIDTH 16 0
BBX 16 16 0 -2
BITMAP
0180
0180
0180
0180
0180
0180
0180
FFFF
FFFF
0180
0180
0180
0180
0180
0180
0180
ENDCHAR
STARTCHAR 25A0
ENCODING 9632
SWIDTH 1000 0
DWIDTH 16 0
BBX 12 12 2 0
BITMAP
FFF0
FFF0
FFF0
FFF0
FFF0
FFF0
FFF0
FFF0
FFF0
FFF0
FFF0
FFF0
ENDCHAR
STARTCHAR 25A1
ENCODING 9633
SWIDTH 1000 0
DWIDTH 16 0
BBX 12 12 2 0
BITMAP
FFF0
8010
8010
8010
8010
8010
8010
8010
8010
8010
8010
FFF0
ENDCHAR
STARTCHAR 25B1
ENCODING 9649
SWIDTH 1000 0
DWIDTH 16 0
BBX 14 6 1 3
BITMAP
3FFC
2004
4008
4008
8010
FFF0
ENDCHAR
STARTCHAR 25B2
ENCODING 9650
SWIDTH 1000 0
DWIDTH 16 0
BBX 12 12 2 1
BITMAP
0400
0600
0F00
0F00
1F80
1F80
3FC0
3FC0
7FE0
7FE0
FFF0
FFF0
ENDCHAR
STARTCHAR 25B3
ENCODING 9651
SWIDTH 1000 0
DWIDTH 16 0
BBX 12 12 2 1
BITMAP
0600
0600
0900
0900
1080
2080
2040
4040
4020
8020
8010
FFF0
ENDCHAR
STARTCHAR 25B6
ENCODING 9654
SWIDTH 1000 0
DWIDTH 16 0
BBX 12 12 2 0
BITMAP
C000
F000
FC00
FF00
FFC0
FFF0
FFE0
FF80
FF00
FC00
F000
C000
ENDCHAR
STARTCHAR 25B7
ENCODING 9655
SWIDTH 1000 0
DWIDTH 16 0
BBX 12 12 2 0
BITMAP
C000
B000
8C00
8300
80C0
8030
8030
80C0
8300
8C00
9000
E000
ENDCHAR
STARTCHAR 25BC
ENCODING 9660
SWIDTH 1000 0
DWIDTH 16 0
BBX 12 12 2 -1
BITMAP
FFF0
FFF0
7FE0
7FE0
3FC0
3FC0
1F80
1F80
0F00
0F00
0600
0400
ENDCHAR
STARTCHAR 25BD
ENCODING 9661
SWIDTH 1000 0
DWIDTH 16 0
BBX 12 12 2 -1
BITMAP
FFF0
8010
8020
4020
4040
2040
2080
1080
0900
0900
0600
0600
ENDCHAR
STARTCHAR 25C0
ENCODING 9664
SWIDTH 1000 0
DWIDTH 16 0
BBX 12 12 2 0
BITMAP
0030
00F0
03F0
0FF0
3FF0
FFF0
7FF0
1FF0
0FF0
03F0
00F0
0030
ENDCHAR
STARTCHAR 25C1
ENCODING 9665
SWIDTH 1000 0
DWIDTH 16 0
BBX 12 12 2 0
BITMAP
0030
00D0
0310
0C10
3010
C010
C010
3010
0C10
0310
0090
0070
ENDCHAR
STARTCHAR 25C6
ENCODING 9670
SWIDTH 1000 0
DWIDTH 16 0
BBX 14 14 1 -1
BITMAP
0300
0780
0FC0
1FE0
3FF0
7FF8
FFFC
FFFC
7FF8
3FF0
1FE0
0FC0
0780
0300
ENDCHAR
STARTCHAR 25C7
ENCODING 9671
SWIDTH 1000 0
DWIDTH 16 0
BBX 14 14 1 -1
BITMAP
0300
0480
0840
1020
2010
4008
8004
8004
4008
2010
1020
0840
0480
0300
ENDCHAR
STARTCHAR 25C9
ENCODING 9673
SWIDTH 1000 0
DWIDTH 16 0
BBX 14 14 1 -1
BITMAP
0FC0
1860
2010
4788
CFCC
9FE4
9FE4
9FE4
9FE4
4FC8
4788
2010
1860
0780
ENDCHAR
STARTCHAR 25CB
ENCODING 9675
SWIDTH 1000 0
DWIDTH 16 0
BBX 14 14 1 -1
BITMAP
0FC0
1860
2010
4008
C00C
8004
8004
8004
8004
C00C
4008
2010
1860
0FC0
ENDCHAR
STARTCHAR 25CE
ENCODING 9678
SWIDTH 1000 0
DWIDTH 16 0
BBX 14 14 1 -1
BITMAP
0FC0
1860
2010
4788
C84C
9024
9024
9024
9024
4848
4788
2010
1860
0780
ENDCHAR
STARTCHAR 25CF
ENCODING 9679
SWIDTH 1000 0
DWIDTH 16 0
BBX 13 13 1 -1
BITMAP
0F80
3FE0
7FF0
7FF0
FFF8
FFF8
FFF8
FFF8
FFF8
7FF0
7FF0
3FE0
0F80
ENDCHAR
STARTCHAR 25D0
ENCODING 9680
SWIDTH 1000 0
DWIDTH 16 0
BBX 14 14 1 -1
BITMAP
0FC0
1E20
3E10
7E08
FE04
FE04
FE04
FE04
FE04
7E08
7E08
3E10
1E20
07C0
ENDCHAR
STARTCHAR 25D1
ENCODING 9681
SWIDTH 1000 0
DWIDTH 16 0
BBX 14 14 1 -1
BITMAP
0F80
11E0
21F0
41F8
81F8
81FC
81FC
81FC
81FC
41F8
41F8
21F0
19E0
0780
ENDCHAR
STARTCHAR 25D2
ENCODING 9682
SWIDTH 1000 0
DWIDTH 16 0
BBX 14 14 1 -1
BITMAP
0FC0
1860
2010
4008
8004
8004
8004
FFFC
FFFC
7FF8
7FF8
3FF0
1FE0
0780
ENDCHAR
STARTCHAR 25D3
ENCODING 9683
SWIDTH 1000 0
DWIDTH 16 0
BBX 14 14 1 -1
BITMAP
0FC0
1FE0
3FF0
7FF8
FFFC
FFFC
FFFC
8004
8004
8008
4008
2010
1860
0780
ENDCHAR
STARTCHAR 25E6
ENCODING 9702
SWIDTH 1000 0
DWIDTH 16 0
BBX 6 6 5 3
BITMAP
78
CC
84
84
CC
78
ENDCHAR
STARTCHAR 25EF
ENCODING 9711
SWIDTH 1000 0
DWIDTH 16 0
BBX 14 14 1 -1
BITMAP
0FC0
3070
4018
4008
800C
8004
8004
8004
8004
8008
8008
4010
3020
0FC0
ENDCHAR
STARTCHAR 2600
ENCODING 9728
SWIDTH 1000 0
DWIDTH 16 0
BBX 15 15 1 -2
BITMAP
0100
0100
2108
1010
0780
0FC0
1FE0
FFEE
1FE0
1FE0
0FC0
1790
2108
0100
0100
ENDCHAR
STARTCHAR 2601
ENCODING 9729
SWIDTH 1000 0
DWIDTH 16 0
BBX 14 11 1 -1
BITMAP
0F00
1F80
1FD8
1FFC
3FFC
7FFC
FFF8
FFFC
FDFC
78F8
0070
ENDCHAR
STARTCHAR 2602
ENCODING 9730
SWIDTH 1000 0
DWIDTH 16 0
BBX 15 14 1 -1
BITMAP
0100
0FE0
3FF8
7FFC
7FFC
9112
0100
0100
0100
0100
0100
0100
0900
0700
ENDCHAR
STARTCHAR 2603
ENCODING 9731
SWIDTH 1000 0
DWIDTH 16 0
BBX 14 15 1 -1
BITMAP
8200
82CC
1120
0210
4E14
31E0
2490
A010
1124
2210
C008
8208
8008
8208
4010
ENDCHAR
STARTCHAR 2605
ENCODING 9733
SWIDTH 1000 0
DWIDTH 16 0
BBX 14 14 1 -1
BITMAP
0200
0300
0300
0300
0780
FFFC
3FF8
1FE0
0FC0
0FC0
1FE0
1CE0
1020
2010
ENDCHAR
STARTCHAR 2606
ENCODING 9734
SWIDTH 1000 0
DWIDTH 16 0
BBX 14 14 1 -1
BITMAP
0200
0300
0300
0500
0480
FCFC
4008
2010
1860
1040
1020
17A0
2860
3030
ENDCHAR
STARTCHAR 260E
ENCODING 9742
SWIDTH 1000 0
DWIDTH 16 0
BBX 14 12 1 0
BITMAP
3FF0
FFFC
E85C
CFCC
1FE0
1860
3030
3030
7038
F87C
FFFC
FFFC
ENDCHAR
STARTCHAR 2616
ENCODING 9750
SWIDTH 1000 0
DWIDTH 16 0
BBX 13 13 1 1
BITMAP
0300
0CC0
3030
4010
4010
4008
4008
4008
4008
4008
4008
8008
7FF8
ENDCHAR
STARTCHAR 2617
ENCODING 9751
SWIDTH 1000 0
DWIDTH 16 0
BBX 12 13 2 0
BITMAP
0600
0F00
3FC0
7FE0
7FE0
FFF0
FFF0
FFF0
FFF0
FFF0
FFF0
FFF0
FFF0
ENDCHAR
STARTCHAR 261E
ENCODING 9758
SWIDTH 1000 0
DWIDTH 16 0
BBX 14 7 1 3
BITMAP
67FC
9884
A378
BDA0
A160
B9C0
E7C0
ENDCHAR
STARTCHAR 2640
ENCODING 9792
SWIDTH 1000 0
DWIDTH 16 0
BBX 11 14 3 -2
BITMAP
0E00
1100
2080
2080
2080
1100
0E00
0400
0400
FFE0
0400
0400
0400
0400
ENDCHAR
STARTCHAR 2642
ENCODING 9794
SWIDTH 1000 0
DWIDTH 16 0
BBX 13 13 1 -1
BITMAP
01F8
0018
0028
0048
0088
0108
3E00
4600
8200
8200
8200
4400
3800
ENDCHAR
STARTCHAR 2660
ENCODING 9824
SWIDTH 1000 0
DWIDTH 16 0
BBX 12 14 2 -1
BITMAP
0600
0F00
1F80
1F80
3FC0
7FE0
FFF0
FFF0
FFF0
FFF0
7AE0
0200
0600
0700
ENDCHAR
STARTCHAR 2661
ENCODING 9825
SWIDTH 1000 0
DWIDTH 16 0
BBX 12 13 2 -1
BITMAP
79E0
4620
8410
8010
8010
8010
4020
4020
2040
2080
1080
0900
0600
ENDCHAR
STARTCHAR 2662
ENCODING 9826
SWIDTH 1000 0
DWIDTH 16 0
BBX 12 14 2 -1
BITMAP
0600
0900
1080
2080
2040
4020
8010
8020
4020
2040
1080
1100
0900
0600
ENDCHAR
STARTCHAR 2663
ENCODING 9827
SWIDTH 1000 0
DWIDTH 16 0
BBX 14 14 1 -2
BITMAP
0780
0FC0
0FC0
0FC0
0FC0
7FF8
FFFC
FFFC
FFFC
FEFC
7A78
0200
0300
0700
ENDCHAR
STARTCHAR 2664
ENCODING 9828
SWIDTH 1000 0
DWIDTH 16 0
BBX 12 15 2 -1
BITMAP
0600
0900
1080
2040
4020
4020
8010
8010
8010
C030
7FE0
0600
0A00
0900
0F00
ENDCHAR
STARTCHAR 2665
ENCODING 9829
SWIDTH 1000 0
DWIDTH 16 0
BBX 12 13 2 -1
BITMAP
70E0
F9F0
FFF0
FFF0
FFF0
FFF0
7FE0
7FE0
3FC0
1FC0
1F80
0F00
0600
ENDCHAR
STARTCHAR 2666
ENCODING 9830
SWIDTH 1000 0
DWIDTH 16 0
BBX 12 14 2 -1
BITMAP
0600
0F00
1F80
1F80
3FC0
7FE0
FFF0
7FE0
7FE0
3FC0
1F80
0F00
0F00
0600
ENDCHAR
STARTCHAR 2667
ENCODING 9831
SWIDTH 1000 0
DWIDTH 16 0
BBX 14 15 1 -2
BITMAP
0780
0CC0
0840
0840
0840
7CF8
C00C
8004
8004
C30C
7FF8
0300
0500
0480
0780
ENDCHAR
STARTCHAR 2668
ENCODING 9832
SWIDTH 1000 0
DWIDTH 16 0
BBX 14 11 1 2
BITMAP
1200
1240
1240
1240
0920
0920
4928
8924
9244
6008
1FF0
ENDCHAR
STARTCHAR 2669
ENCODING 9833
SWIDTH 1000 0
DWIDTH 16 0
BBX 5 14 4 -1
BITMAP
08
08
08
08
08
08
08
08
08
08
08
78
F8
F0
ENDCHAR
STARTCHAR 266A
ENCODING 9834
SWIDTH 1000 0
DWIDTH 16 0
BBX 11 14 3 -1
BITMAP
0800
0C00
0E00
0B00
09C0
0860
0820
0820
0840
0880
0800
7800
F800
F000
ENDCHAR
STARTCHAR 266B
ENCODING 9835
SWIDTH 1000 0
DWIDTH 16 0
BBX 12 14 1 0
BITMAP
00F0
0FF0
0F10
0810
0810
0810
0810
0810
0810
08F0
08F0
78E0
F800
F000
ENDCHAR
STARTCHAR 266C
ENCODING 9836
SWIDTH 1000 0
DWIDTH 16 0
BBX 12 14 1 0
BITMAP
00F0
0FF0
0E10
08F0
0FF0
0E10
0810
0810
0810
08F0
08F0
78E0
F800
F000
ENDCHAR
STARTCHAR 266D
ENCODING 9837
SWIDTH 1000 0
DWIDTH 16 0
BBX 6 14 6 -1
BITMAP
80
80
80
80
80
B8
C4
84
84
88
88
90
E0
80
ENDCHAR
STARTCHAR 266E
ENCODING 9838
SWIDTH 1000 0
DWIDTH 16 0
BBX 4 14 6 -1
BITMAP
80
80
80
90
F0
D0
90
90
B0
D0
10
10
10
10
ENDCHAR
STARTCHAR 266F
ENCODING 9839
SWIDTH 1000 0
DWIDTH 16 0
BBX 10 14 3 -1
BITMAP
0200
1200
1200
13C0
1E00
F200
1200
1200
13C0
3E00
D200
1200
1200
1000
ENDCHAR
STARTCHAR 2713
ENCODING 10003
SWIDTH 1000 0
DWIDTH 16 0
BBX 10 10 4 2
BITMAP
00C0
0080
0100
0200
0200
8400
8800
5000
6000
2000
ENDCHAR
STARTCHAR 2756
ENCODING 10070
SWIDTH 1000 0
DWIDTH 16 0
BBX 14 14 1 -1
BITMAP
0300
0780
0FC0
0FC0
37B0
7B78
FCFC
FCFC
7B78
37B0
0FC0
0FC0
0780
0300
ENDCHAR
STARTCHAR 2776
ENCODING 10102
SWIDTH 1000 0
DWIDTH 16 0
BBX 15 14 1 -1
BITMAP
07C0
1FF0
3EF8
7EFC
FEFC
FEFE
FEFE
FEFE
FEFE
7EFC
7EFC
3C78
1FF0
07C0
ENDCHAR
STARTCHAR 2777
ENCODING 10103
SWIDTH 1000 0
DWIDTH 16 0
BBX 15 14 0 -1
BITMAP
07E0
1FF0
3C38
7B9C
FBDE
FFDE
FFBE
FF7E
FEFE
7DFC
7BDC
3818
1FF0
07C0
ENDCHAR
STARTCHAR 2778
ENCODING 10104
SWIDTH 1000 0
DWIDTH 16 0
BBX 14 14 1 -1
BITMAP
0FC0
3FF0
7B78
77B8
F3BC
FFBC
FCFC
FF7C
FFBC
77B8
7738
3870
1FE0
0FC0
ENDCHAR
STARTCHAR 2779
ENCODING 10105
SWIDTH 1000 0
DWIDTH 16 0
BBX 15 16 1 -2
BITMAP
07C0
0FE0
3FF8
3F78
7E7C
FD7E
FB7E
FF7E
FF7E
E01E
FF7E
7F7C
7E3C
3FF8
1FF0
07C0
ENDCHAR
STARTCHAR 277A
ENCODING 10106
SWIDTH 1000 0
DWIDTH 16 0
BBX 14 14 1 -1
BITMAP
0FC0
3FF0
7838
77F8
F7FC
F47C
F33C
FFBC
FFBC
77B8
77F8
3870
1FE0
0FC0
ENDCHAR
STARTCHAR 277B
ENCODING 10107
SWIDTH 1000 0
DWIDTH 16 0
BBX 14 14 1 -1
BITMAP
0FC0
3FF0
7F78
7B38
FFFC
F7FC
F37C
F7BC
F7BC
77B8
7B38
3C70
1FE0
0FC0
ENDCHAR
STARTCHAR 277C
ENCODING 10108
SWIDTH 1000 0
DWIDTH 16 0
BBX 14 15 1 -1
BITMAP
0780
1FE0
3FF0
7038
77B8
F77C
FF7C
FEFC
FEFC
FEFC
7DF8
7DF8
3DF0
1FE0
0FC0
ENDCHAR
STARTCHAR 277D
ENCODING 10109
SWIDTH 1000 0
DWIDTH 16 0
BBX 14 14 1 -1
BITMAP
0FC0
3FF0
7B78
77B8
F7BC
F37C
FCFC
FB7C
F7BC
77B8
73B8
3870
1FE0
0FC0
ENDCHAR
STARTCHAR 277E
ENCODING 10110
SWIDTH 1000 0
DWIDTH 16 0
BBX 14 14 1 -1
BITMAP
0FC0
3FF0
7B78
77F8
F7BC
F7BC
F7BC
FBBC
FFBC
73B8
7778
38F0
1FE0
0FC0
ENDCHAR
STARTCHAR 277F
ENCODING 10111
SWIDTH 1000 0
DWIDTH 16 0
BBX 15 15 0 -2
BITMAP
07C0
1FF0
3FF8
675C
77FC
F6EE
F6EE
F6EE
F6EE
F6EE
77EC
775C
3FF8
1FF0
07C0
ENDCHAR
STARTCHAR 2934
ENCODING 10548
SWIDTH 1000 0
DWIDTH 16 0
BBX 13 12 1 1
BITMAP
0020
0070
00A8
0128
0020
0020
0020
0020
0020
0040
00C0
FF00
ENDCHAR
STARTCHAR 2935
ENCODING 10549
SWIDTH 1000 0
DWIDTH 16 0
BBX 13 12 1 -1
BITMAP
FF00
00C0
0040
0020
0020
0020
0020
0020
0128
00A8
0070
0020
ENDCHAR
STARTCHAR 29BF
ENCODING 10687
SWIDTH 1000 0
DWIDTH 16 0
BBX 14 14 1 -1
BITMAP
0FC0
1860
2010
4008
C00C
8304
8784
8784
8304
4008
4008
2010
1860
0780
ENDCHAR
STARTCHAR 29FA
ENCODING 10746
SWIDTH 1000 0
DWIDTH 16 0
BBX 8 9 4 -1
BITMAP
24
24
24
24
FF
24
24
24
24
ENDCHAR
STARTCHAR 29FB
ENCODING 10747
SWIDTH 1000 0
DWIDTH 16 0
BBX 10 9 3 -1
BITMAP
2500
2500
2500
2500
FFC0
2500
2500
2500
2500
ENDCHAR
STARTCHAR 2E83
ENCODING 11907
SWIDTH 1000 0
DWIDTH 16 0
BBX 10 12 4 1
BITMAP
C000
8000
8000
8000
8000
8000
8000
8000
8040
8040
8040
FFC0
ENDCHAR
STARTCHAR 2E85
ENCODING 11909
SWIDTH 1000 0
DWIDTH 16 0
BBX 8 14 3 -2
BITMAP
02
03
04
08
08
1C
28
48
88
08
08
08
08
08
ENDCHAR
STARTCHAR 2E87
ENCODING 11911
SWIDTH 1000 0
DWIDTH 16 0
BBX 14 14 1 -1
BITMAP
0010
3FF0
2010
2010
2010
2010
2010
2010
2010
4010
400C
400C
8004
0004
ENDCHAR
STARTCHAR 2E89
ENCODING 11913
SWIDTH 1000 0
DWIDTH 16 0
BBX 6 14 6 -1
BITMAP
0C
C8
88
88
88
88
88
88
88
88
08
08
78
10
ENDCHAR
STARTCHAR 2E8E
ENCODING 11918
SWIDTH 1000 0
DWIDTH 16 0
BBX 14 13 1 0
BITMAP
0008
7FF0
0880
0880
0880
0880
0880
1080
1080
1088
2088
40FC
8000
ENDCHAR
STARTCHAR 2E8F
ENCODING 11919
SWIDTH 1000 0
DWIDTH 16 0
BBX 14 13 1 0
BITMAP
08C0
1020
1010
2018
4CC8
0880
0880
0880
0880
1888
1088
2084
C0FC
ENDCHAR
STARTCHAR 2E90
ENCODING 11920
SWIDTH 1000 0
DWIDTH 16 0
BBX 14 14 1 -1
BITMAP
0200
0200
0200
0208
7FF0
0300
0300
0300
0500
0508
0908
1108
21FC
C000
ENDCHAR
STARTCHAR 2E92
ENCODING 11922
SWIDTH 1000 0
DWIDTH 16 0
BBX 12 13 3 -1
BITMAP
0040
FFE0
8040
8040
8040
FFC0
8040
8000
8000
8020
8020
8020
FFF0
ENDCHAR
STARTCHAR 2E93
ENCODING 11923
SWIDTH 1000 0
DWIDTH 16 0
BBX 13 13 2 0
BITMAP
0200
0400
0400
0800
50C0
3180
1900
0A00
0400
0860
1030
23F8
FC08
ENDCHAR
STARTCHAR 2E94
ENCODING 11924
SWIDTH 1000 0
DWIDTH 16 0
BBX 11 12 4 1
BITMAP
6000
4000
4100
7F00
4100
8200
8200
8200
FE00
8200
0200
0260
ENDCHAR
STARTCHAR 2E96
ENCODING 11926
SWIDTH 1000 0
DWIDTH 16 0
BBX 7 14 4 -1
BITMAP
18
10
10
54
56
56
50
90
10
10
10
10
10
10
ENDCHAR
STARTCHAR 2E97
ENCODING 11927
SWIDTH 1000 0
DWIDTH 16 0
BBX 15 13 1 0
BITMAP
0600
0400
0400
0400
2498
2448
4444
4426
4422
8400
0400
3C00
0C00
ENDCHAR
STARTCHAR 2E98
ENCODING 11928
SWIDTH 1000 0
DWIDTH 16 0
BBX 9 14 4 -1
BITMAP
0C00
0800
0880
FF80
0800
0800
0800
0F00
F800
8800
0800
0800
0800
3800
ENDCHAR
STARTCHAR 2E99
ENCODING 11929
SWIDTH 1000 0
DWIDTH 16 0
BBX 12 15 2 -1
BITMAP
1800
1000
2010
3FF0
20C0
6080
5080
9100
0900
0600
0600
0980
1060
6030
8000
ENDCHAR
STARTCHAR 2E9B
ENCODING 11931
SWIDTH 1000 0
DWIDTH 16 0
BBX 13 15 1 -1
BITMAP
0010
7FF0
0200
2200
2200
4210
7FF8
4200
0580
0500
0908
0908
3108
41F8
8000
ENDCHAR
STARTCHAR 2E9E
ENCODING 11934
SWIDTH 1000 0
DWIDTH 16 0
BBX 14 14 1 0
BITMAP
0180
0108
01FC
0500
0900
16F0
3020
4840
8680
0300
0200
0C00
3000
C000
ENDCHAR
STARTCHAR 2E9F
ENCODING 11935
SWIDTH 1000 0
DWIDTH 16 0
BBX 13 13 2 0
BITMAP
3FE0
4040
4C40
4240
4048
FFF0
4840
4640
4240
8058
FFE0
0040
0180
ENDCHAR
STARTCHAR 2EA0
ENCODING 11936
SWIDTH 1000 0
DWIDTH 16 0
BBX 14 14 1 -1
BITMAP
0010
3FF8
2010
2010
3FF0
2100
2108
3FFC
2080
2080
2040
2148
3E28
C01C
ENDCHAR
STARTCHAR 2EA1
ENCODING 11937
SWIDTH 1000 0
DWIDTH 16 0
BBX 6 14 5 -1
BITMAP
20
10
10
84
64
28
08
10
10
20
60
20
20
20
ENDCHAR
STARTCHAR 2EA3
ENCODING 11939
SWIDTH 1000 0
DWIDTH 16 0
BBX 14 4 1 5
BITMAP
2010
2488
444C
C444
ENDCHAR
STARTCHAR 2EA4
ENCODING 11940
SWIDTH 1000 0
DWIDTH 16 0
BBX 12 8 2 3
BITMAP
0060
07C0
F820
8830
4420
2240
2280
0080
ENDCHAR
STARTCHAR 2EA6
ENCODING 11942
SWIDTH 1000 0
DWIDTH 16 0
BBX 7 14 4 -2
BITMAP
06
04
84
44
24
24
04
04
3C
C4
84
04
04
04
ENDCHAR
STARTCHAR 2EA8
ENCODING 11944
SWIDTH 1000 0
DWIDTH 16 0
BBX 6 13 4 -1
BITMAP
24
18
18
28
C8
0C
1C
34
44
84
04
4C
38
ENDCHAR
STARTCHAR 2EAA
ENCODING 11946
SWIDTH 1000 0
DWIDTH 16 0
BBX 9 14 4 -1
BITMAP
0100
7F80
0400
0C00
6800
4800
4B00
4C00
4800
4800
4800
4F00
F000
8000
ENDCHAR
STARTCHAR 2EAB
ENCODING 11947
SWIDTH 1000 0
DWIDTH 16 0
BBX 13 7 2 2
BITMAP
0010
FFF8
8910
8910
8910
8910
F6F0
ENDCHAR
STARTCHAR 2EAD
ENCODING 11949
SWIDTH 1000 0
DWIDTH 16 0
BBX 9 14 3 -1
BITMAP
0C00
0800
0900
7780
0200
0400
0800
1E00
2900
C880
0800
0800
0800
0800
ENDCHAR
STARTCHAR 2EB2
ENCODING 11954
SWIDTH 1000 0
DWIDTH 16 0
BBX 13 7 2 2
BITMAP
0010
FFF8
8910
8910
8910
8910
F6F0
ENDCHAR
STARTCHAR 2EB9
ENCODING 11961
SWIDTH 1000 0
DWIDTH 16 0
BBX 13 11 2 1
BITMAP
0600
0430
04A0
3F40
0480
0518
FAE0
0400
1800
2000
C000
ENDCHAR
STARTCHAR 2EBD
ENCODING 11965
SWIDTH 1000 0
DWIDTH 16 0
BBX 12 13 2 -1
BITMAP
0C00
3020
C1F0
8020
8020
8820
F1E0
8020
8020
8020
8820
FBE0
8020
ENDCHAR
STARTCHAR 2EBE
ENCODING 11966
SWIDTH 1000 0
DWIDTH 16 0
BBX 14 5 1 5
BITMAP
0C60
0844
FFFC
0840
0840
ENDCHAR
STARTCHAR 2EBF
ENCODING 11967
SWIDTH 1000 0
DWIDTH 16 0
BBX 14 5 1 5
BITMAP
1860
1448
FDFC
1040
1040
ENDCHAR
STARTCHAR 2EC0
ENCODING 11968
SWIDTH 1000 0
DWIDTH 16 0
BBX 14 5 1 5
BITMAP
0C60
0844
F87C
0840
0840
ENDCHAR
STARTCHAR 2EC1
ENCODING 11969
SWIDTH 1000 0
DWIDTH 16 0
BBX 15 16 0 -2
BITMAP
0080
0108
00FC
0100
3FFE
2104
2170
2788
21FC
2000
2360
2240
4244
4444
887E
B000
ENDCHAR
STARTCHAR 2EC2
ENCODING 11970
SWIDTH 1000 0
DWIDTH 16 0
BBX 9 14 3 -1
BITMAP
0C00
0800
0900
7700
0200
0480
0900
1E00
6900
8880
0800
0800
0800
0800
ENDCHAR
STARTCHAR 2EC3
ENCODING 11971
SWIDTH 1000 0
DWIDTH 16 0
BBX 13 8 2 4
BITMAP
0010
FFF8
0900
0920
7FF0
4920
4920
76E0
ENDCHAR
STARTCHAR 2EC4
ENCODING 11972
SWIDTH 1000 0
DWIDTH 16 0
BBX 14 14 1 -1
BITMAP
0004
FFFC
0480
0488
7FFC
4488
4488
48A8
48A8
50F8
4008
4008
7FF8
4008
ENDCHAR
STARTCHAR 2ECA
ENCODING 11978
SWIDTH 1000 0
DWIDTH 16 0
BBX 8 14 4 -1
BITMAP
02
7F
42
42
42
7E
10
53
5C
50
50
56
F8
80
ENDCHAR
STARTCHAR 2ECC
ENCODING 11980
SWIDTH 1000 0
DWIDTH 16 0
BBX 13 13 1 0
BITMAP
C000
6000
2000
0000
0000
2000
E000
2000
2000
2000
5000
C800
87F8
ENDCHAR
STARTCHAR 2ECD
ENCODING 11981
SWIDTH 1000 0
DWIDTH 16 0
BBX 13 13 1 0
BITMAP
6000
1000
0000
C000
2000
0000
2000
F000
2000
2000
2000
D800
87F8
ENDCHAR
STARTCHAR 2ECF
ENCODING 11983
SWIDTH 1000 0
DWIDTH 16 0
BBX 6 13 6 -1
BITMAP
FC
88
90
90
88
88
84
84
84
98
80
80
80
ENDCHAR
STARTCHAR 2ED1
ENCODING 11985
SWIDTH 1000 0
DWIDTH 16 0
BBX 14 14 1 -1
BITMAP
0010
1FE0
1020
1FC0
1020
1FC0
1004
FFFC
1210
1130
10C0
1040
1E30
600C
ENDCHAR
STARTCHAR 2ED2
ENCODING 11986
SWIDTH 1000 0
DWIDTH 16 0
BBX 12 14 2 0
BITMAP
0020
3FC0
2040
3FC0
2000
2040
3F80
2010
DFE0
1080
1040
20E0
FF10
8010
ENDCHAR
STARTCHAR 2ED6
ENCODING 11990
SWIDTH 1000 0
DWIDTH 16 0
BBX 6 13 6 -1
BITMAP
FC
88
90
90
88
88
84
84
84
98
80
80
80
ENDCHAR
STARTCHAR 2ED8
ENCODING 11992
SWIDTH 1000 0
DWIDTH 16 0
BBX 12 14 2 -2
BITMAP
0600
0410
7FE0
7FE0
0410
FBE0
0060
3FC0
3FC0
2040
3FC0
2040
2040
21C0
ENDCHAR
STARTCHAR 2EDE
ENCODING 11998
SWIDTH 1000 0
DWIDTH 16 0
BBX 7 15 4 -1
BITMAP
10
2C
2E
7A
80
7C
7C
44
7C
40
7E
40
7E
40
40
ENDCHAR
STARTCHAR 2EDF
ENCODING 11999
SWIDTH 1000 0
DWIDTH 16 0
BBX 8 14 3 0
BITMAP
0C
0A
11
21
6A
37
3E
22
3E
22
22
27
F9
80
ENDCHAR
STARTCHAR 2EE4
ENCODING 12004
SWIDTH 1000 0
DWIDTH 16 0
BBX 14 15 1 -1
BITMAP
0200
0410
3BF8
2210
2210
3FF0
2210
3FF0
2910
0920
0950
09FC
1184
21FC
C000
ENDCHAR
STARTCHAR 2EE8
ENCODING 12008
SWIDTH 1000 0
DWIDTH 16 0
BBX 14 14 1 0
BITMAP
0300
0210
7FE0
0230
3FC0
0208
7DF0
0800
1FE0
2480
4300
8780
187C
E000
ENDCHAR
STARTCHAR 2EE9
ENCODING 12009
SWIDTH 1000 0
DWIDTH 16 0
BBX 14 15 1 -1
BITMAP
0CC0
0888
3FF0
0884
FFFC
0200
3FF8
2210
3FF0
2210
2210
3DF0
1CF8
600C
8000
ENDCHAR
STARTCHAR 2EEB
ENCODING 12011
SWIDTH 1000 0
DWIDTH 16 0
BBX 14 14 1 -1
BITMAP
0300
0208
7DF0
0880
0700
0780
187C
F020
1FE0
1020
1FE0
1020
2020
4020
ENDCHAR
STARTCHAR 2EED
ENCODING 12013
SWIDTH 1000 0
DWIDTH 16 0
BBX 13 14 2 -1
BITMAP
0300
3220
23C0
2208
DDF0
D2D8
9A90
8A50
9790
8B90
9250
A210
8210
FDF0
ENDCHAR
STARTCHAR 2EEF
ENCODING 12015
SWIDTH 1000 0
DWIDTH 16 0
BBX 13 14 2 -1
BITMAP
0600
0410
7BE0
10C0
1108
EEF0
7FF0
4420
7FE0
4420
4420
7FE8
0408
07F8
ENDCHAR
STARTCHAR 2EF2
ENCODING 12018
SWIDTH 1000 0
DWIDTH 16 0
BBX 14 13 1 1
BITMAP
1800
1780
2110
7EF0
BFF0
2210
1FE0
7FF8
4210
7FF0
4210
7FE4
03FC
ENDCHAR
STARTCHAR 2F00
ENCODING 12032
SWIDTH 1000 0
DWIDTH 16 0
BBX 14 2 1 6
BITMAP
0008
FFFC
ENDCHAR
STARTCHAR 2F01
ENCODING 12033
SWIDTH 1000 0
DWIDTH 16 0
BBX 2 13 7 0
BITMAP
C0
80
80
80
80
80
80
80
80
80
80
80
80
ENDCHAR
STARTCHAR 2F02
ENCODING 12034
SWIDTH 1000 0
DWIDTH 16 0
BBX 6 5 5 5
BITMAP
C0
20
18
0C
04
ENDCHAR
STARTCHAR 2F03
ENCODING 12035
SWIDTH 1000 0
DWIDTH 16 0
BBX 5 13 5 -1
BITMAP
18
10
10
10
10
10
10
10
20
20
20
40
80
ENDCHAR
STARTCHAR 2F04
ENCODING 12036
SWIDTH 1000 0
DWIDTH 16 0
BBX 12 12 2 0
BITMAP
0080
7FC0
0300
0600
0800
1000
2000
6000
4010
8010
8030
7FF0
ENDCHAR
STARTCHAR 2F05
ENCODING 12037
SWIDTH 1000 0
DWIDTH 16 0
BBX 5 13 5 0
BITMAP
18
10
10
10
10
10
10
10
10
10
10
F0
20
ENDCHAR
STARTCHAR 2F06
ENCODING 12038
SWIDTH 1000 0
DWIDTH 16 0
BBX 14 10 1 2
BITMAP
0030
3FF0
0000
0000
0000
0000
0000
0000
0008
FFFC
ENDCHAR
STARTCHAR 2F07
ENCODING 12039
SWIDTH 1000 0
DWIDTH 16 0
BBX 7 4 7 7
BITMAP
C0
80
80
82
ENDCHAR
STARTCHAR 2F08
ENCODING 12040
SWIDTH 1000 0
DWIDTH 16 0
BBX 14 14 1 -1
BITMAP
0300
0200
0200
0200
0200
0300
0500
0500
0480
0840
1860
3030
400C
8000
ENDCHAR
STARTCHAR 2F09
ENCODING 12041
SWIDTH 1000 0
DWIDTH 16 0
BBX 14 13 1 -1
BITMAP
08C0
0C80
0880
0880
0880
0880
0880
0880
1088
1088
2088
40FC
8000
ENDCHAR
STARTCHAR 2F0A
ENCODING 12042
SWIDTH 1000 0
DWIDTH 16 0
BBX 13 14 2 -2
BITMAP
0200
3E00
0400
0200
0200
0200
0600
0500
0D00
0880
1040
2020
4010
8008
ENDCHAR
STARTCHAR 2F0B
ENCODING 12043
SWIDTH 1000 0
DWIDTH 16 0
BBX 14 13 1 0
BITMAP
07C0
0080
0080
0C80
0840
0840
1040
1020
1020
2010
4018
400C
8004
ENDCHAR
STARTCHAR 2F0C
ENCODING 12044
SWIDTH 1000 0
DWIDTH 16 0
BBX 13 14 2 -2
BITMAP
0010
FFF8
8010
8010
8010
8010
8010
8010
8010
8010
8010
8010
8010
8070
ENDCHAR
STARTCHAR 2F0D
ENCODING 12045
SWIDTH 1000 0
DWIDTH 16 0
BBX 14 5 1 5
BITMAP
4000
7FFC
4008
C010
8000
ENDCHAR
STARTCHAR 2F0E
ENCODING 12046
SWIDTH 1000 0
DWIDTH 16 0
BBX 5 13 6 0
BITMAP
80
48
50
10
20
20
20
40
C0
40
40
40
40
ENDCHAR
STARTCHAR 2F0F
ENCODING 12047
SWIDTH 1000 0
DWIDTH 16 0
BBX 14 13 1 -2
BITMAP
0040
1FE0
1040
1040
1040
1040
1040
1040
1040
2048
2044
4044
807C
ENDCHAR
STARTCHAR 2F10
ENCODING 12048
SWIDTH 1000 0
DWIDTH 16 0
BBX 13 12 2 -1
BITMAP
C018
8010
8010
8010
8010
8010
8010
8010
8010
8010
8010
FFF0
ENDCHAR
STARTCHAR 2F11
ENCODING 12049
SWIDTH 1000 0
DWIDTH 16 0
BBX 12 13 2 -1
BITMAP
0010
7FF0
0810
0810
0820
0820
0820
1020
1020
2020
2020
43E0
8000
ENDCHAR
STARTCHAR 2F12
ENCODING 12050
SWIDTH 1000 0
DWIDTH 16 0
BBX 13 14 1 -1
BITMAP
0300
0200
0200
0208
3FF8
0208
0208
0408
0408
0C08
0818
1010
20F0
C000
ENDCHAR
STARTCHAR 2F13
ENCODING 12051
SWIDTH 1000 0
DWIDTH 16 0
BBX 13 13 1 0
BITMAP
1800
1008
2FF8
2008
4008
8008
0010
0010
0010
0010
0030
03E0
0040
ENDCHAR
STARTCHAR 2F14
ENCODING 12052
SWIDTH 1000 0
DWIDTH 16 0
BBX 11 13 4 -1
BITMAP
C000
8000
8180
8300
8C00
B000
C000
8000
8040
8040
8040
8060
FFC0
ENDCHAR
STARTCHAR 2F15
ENCODING 12053
SWIDTH 1000 0
DWIDTH 16 0
BBX 12 14 2 -1
BITMAP
0020
FFF0
8000
8000
8000
8000
8000
8000
8000
8000
8000
8010
FFF0
8000
ENDCHAR
STARTCHAR 2F16
ENCODING 12054
SWIDTH 1000 0
DWIDTH 16 0
BBX 12 12 2 1
BITMAP
0030
FFC0
4000
4000
4000
4000
4000
4000
4000
4000
4030
7FF0
ENDCHAR
STARTCHAR 2F17
ENCODING 12055
SWIDTH 1000 0
DWIDTH 16 0
BBX 12 14 2 -1
BITMAP
0600
0400
0400
0400
0400
0410
FFE0
0400
0400
0400
0400
0400
0400
0400
ENDCHAR
STARTCHAR 2F18
ENCODING 12056
SWIDTH 1000 0
DWIDTH 16 0
BBX 7 14 6 -1
BITMAP
C0
80
80
80
80
C0
B8
8C
82
80
80
80
80
80
ENDCHAR
STARTCHAR 2F19
ENCODING 12057
SWIDTH 1000 0
DWIDTH 16 0
BBX 8 13 5 -2
BITMAP
02
FF
82
82
82
82
82
82
82
82
8E
80
80
ENDCHAR
STARTCHAR 2F1A
ENCODING 12058
SWIDTH 1000 0
DWIDTH 16 0
BBX 13 13 1 -1
BITMAP
0008
3FF0
2000
2000
2000
2000
2000
2000
2000
4000
4000
4000
8000
ENDCHAR
STARTCHAR 2F1B
ENCODING 12059
SWIDTH 1000 0
DWIDTH 16 0
BBX 13 13 2 0
BITMAP
0300
0200
0400
0400
0400
0800
0800
10C0
1020
1030
27F0
F818
0008
ENDCHAR
STARTCHAR 2F1C
ENCODING 12060
SWIDTH 1000 0
DWIDTH 16 0
BBX 14 13 1 -1
BITMAP
7FF0
1020
1020
1060
0840
04C0
0480
0300
0300
06C0
0860
301C
C000
ENDCHAR
STARTCHAR 2F1D
ENCODING 12061
SWIDTH 1000 0
DWIDTH 16 0
BBX 11 13 3 -1
BITMAP
0040
FFE0
8040
8040
8040
8040
8040
8040
8040
8040
FFC0
8040
8040
ENDCHAR
STARTCHAR 2F1E
ENCODING 12062
SWIDTH 1000 0
DWIDTH 16 0
BBX 13 14 2 -2
BITMAP
0010
FFF8
8010
8010
8010
8010
8010
8010
8010
8010
8010
8010
FFF0
8010
ENDCHAR
STARTCHAR 2F1F
ENCODING 12063
SWIDTH 1000 0
DWIDTH 16 0
BBX 13 13 1 0
BITMAP
0300
0200
0200
0200
0210
7FF0
0200
0200
0200
0200
0200
0208
FFF8
ENDCHAR
STARTCHAR 2F20
ENCODING 12064
SWIDTH 1000 0
DWIDTH 16 0
BBX 13 13 1 0
BITMAP
0300
0200
0200
0200
0208
FFF8
0200
0200
0200
0200
0200
0200
0210
ENDCHAR
STARTCHAR 2F21
ENCODING 12065
SWIDTH 1000 0
DWIDTH 16 0
BBX 14 14 1 -1
BITMAP
0600
0400
0420
0BF0
0840
1440
2480
4280
0100
0380
04C0
1830
601C
8000
ENDCHAR
STARTCHAR 2F22
ENCODING 12066
SWIDTH 1000 0
DWIDTH 16 0
BBX 14 14 1 -1
BITMAP
0200
0400
2420
2BE0
1840
1840
2880
4580
0300
0300
04C0
1870
601C
8000
ENDCHAR
STARTCHAR 2F23
ENCODING 12067
SWIDTH 1000 0
DWIDTH 16 0
BBX 12 14 2 -1
BITMAP
0400
0600
0C00
0BF0
1020
1840
2640
4180
8100
0300
0600
0800
3000
C000
ENDCHAR
STARTCHAR 2F24
ENCODING 12068
SWIDTH 1000 0
DWIDTH 16 0
BBX 14 13 1 0
BITMAP
0300
0200
0200
0208
7FF0
0300
0500
0480
04C0
0860
1030
201C
C000
ENDCHAR
STARTCHAR 2F25
ENCODING 12069
SWIDTH 1000 0
DWIDTH 16 0
BBX 14 14 1 -1
BITMAP
0200
0400
0400
040C
7BF0
0840
1040
1040
2880
2780
01C0
0260
0C18
F008
ENDCHAR
STARTCHAR 2F26
ENCODING 12070
SWIDTH 1000 0
DWIDTH 16 0
BBX 14 13 1 -2
BITMAP
0010
1FF0
0040
0180
0100
0104
FFFC
0100
0100
0100
0100
0100
0700
ENDCHAR
STARTCHAR 2F27
ENCODING 12071
SWIDTH 1000 0
DWIDTH 16 0
BBX 15 7 0 5
BITMAP
0180
0100
0104
3FFE
4006
4008
C000
ENDCHAR
STARTCHAR 2F28
ENCODING 12072
SWIDTH 1000 0
DWIDTH 16 0
BBX 11 13 3 -1
BITMAP
0180
0100
0100
0120
FFC0
4100
2100
1100
1100
0100
0100
0100
0F00
ENDCHAR
STARTCHAR 2F29
ENCODING 12073
SWIDTH 1000 0
DWIDTH 16 0
BBX 13 14 2 -1
BITMAP
0300
0200
0200
0200
3240
2220
2210
4210
4218
8208
8208
0200
0200
0E00
ENDCHAR
STARTCHAR 2F2A
ENCODING 12074
SWIDTH 1000 0
DWIDTH 16 0
BBX 14 14 1 -1
BITMAP
0200
0200
0200
0208
7FF0
0300
0300
0300
0500
0508
0908
1108
21FC
C000
ENDCHAR
STARTCHAR 2F2B
ENCODING 12075
SWIDTH 1000 0
DWIDTH 16 0
BBX 13 14 1 -1
BITMAP
0010
3FF8
2010
2010
2010
3FF0
2000
2000
2000
2000
4000
4000
8000
8000
ENDCHAR
STARTCHAR 2F2C
ENCODING 12076
SWIDTH 1000 0
DWIDTH 16 0
BBX 11 14 3 -1
BITMAP
0C00
0800
C860
8840
8840
8840
8840
8840
FFC0
8800
1000
1000
2000
4000
ENDCHAR
STARTCHAR 2F2D
ENCODING 12077
SWIDTH 1000 0
DWIDTH 16 0
BBX 13 14 2 -1
BITMAP
0400
0600
0400
C418
8410
8410
8410
8410
8410
8410
8410
8410
FBF0
8000
ENDCHAR
STARTCHAR 2F2E
ENCODING 12078
SWIDTH 1000 0
DWIDTH 16 0
BBX 13 12 1 0
BITMAP
1110
1998
2220
2220
4440
8880
4440
2220
2110
1110
1198
1088
ENDCHAR
STARTCHAR 2F2F
ENCODING 12079
SWIDTH 1000 0
DWIDTH 16 0
BBX 13 12 1 1
BITMAP
0010
FFF8
0200
0200
0200
0200
0200
0200
0200
0200
0208
FFF8
ENDCHAR
STARTCHAR 2F30
ENCODING 12080
SWIDTH 1000 0
DWIDTH 16 0
BBX 12 12 3 0
BITMAP
0040
FFE0
0040
0040
0040
FFC0
8040
8000
8000
8020
8020
FFF0
ENDCHAR
STARTCHAR 2F31
ENCODING 12081
SWIDTH 1000 0
DWIDTH 16 0
BBX 13 14 2 -1
BITMAP
0600
0400
0410
FFF8
8410
8410
8410
8410
8410
8410
8410
8470
0400
0400
ENDCHAR
STARTCHAR 2F32
ENCODING 12082
SWIDTH 1000 0
DWIDTH 16 0
BBX 12 13 2 0
BITMAP
0020
7FC0
0400
0400
0400
0410
FFE0
0400
0400
0400
0400
0400
0400
ENDCHAR
STARTCHAR 2F33
ENCODING 12083
SWIDTH 1000 0
DWIDTH 16 0
BBX 13 13 2 0
BITMAP
0200
0400
0400
0800
50C0
3180
1900
0A00
0400
0860
1030
23F8
FC08
ENDCHAR
STARTCHAR 2F34
ENCODING 12084
SWIDTH 1000 0
DWIDTH 16 0
BBX 15 14 0 -2
BITMAP
00C0
0080
0082
3F7C
2000
2000
2000
2000
2000
2000
4000
4000
4000
8000
ENDCHAR
STARTCHAR 2F35
ENCODING 12085
SWIDTH 1000 0
DWIDTH 16 0
BBX 14 14 1 -1
BITMAP
1000
F800
1000
2000
2000
4800
7C00
0800
5000
3000
3000
2C00
43FC
8000
ENDCHAR
STARTCHAR 2F36
ENCODING 12086
SWIDTH 1000 0
DWIDTH 16 0
BBX 14 14 1 -2
BITMAP
0840
0C60
0840
0840
0840
0848
FFFC
0840
0840
0840
1040
1040
2040
4040
ENDCHAR
STARTCHAR 2F37
ENCODING 12087
SWIDTH 1000 0
DWIDTH 16 0
BBX 12 14 2 -1
BITMAP
0C00
0900
08C0
0840
0830
1FC0
E400
0400
0200
0200
0110
0190
00D0
0030
ENDCHAR
STARTCHAR 2F38
ENCODING 12088
SWIDTH 1000 0
DWIDTH 16 0
BBX 12 14 2 -1
BITMAP
0040
FFE0
0040
0040
0040
7FC0
4000
8020
FFF0
0020
0020
0020
0040
0380
ENDCHAR
STARTCHAR 2F39
ENCODING 12089
SWIDTH 1000 0
DWIDTH 16 0
BBX 13 12 2 0
BITMAP
0040
7FE0
0040
0040
0040
0040
7FC0
0040
0040
0040
0048
FFF8
ENDCHAR
STARTCHAR 2F3A
ENCODING 12090
SWIDTH 1000 0
DWIDTH 16 0
BBX 11 14 3 -1
BITMAP
0100
0200
0C00
1000
E180
0300
0400
1800
6060
0080
0300
0600
1800
E000
ENDCHAR
STARTCHAR 2F3B
ENCODING 12091
SWIDTH 1000 0
DWIDTH 16 0
BBX 10 14 3 -2
BITMAP
0100
0200
0C00
10C0
6100
0200
0400
1E00
2400
C400
0400
0400
0400
0400
ENDCHAR
STARTCHAR 2F3C
ENCODING 12092
SWIDTH 1000 0
DWIDTH 16 0
BBX 15 13 0 0
BITMAP
0400
0300
0180
00C0
0600
0410
2408
240C
2404
6426
4422
C420
07F0
ENDCHAR
STARTCHAR 2F3D
ENCODING 12093
SWIDTH 1000 0
DWIDTH 16 0
BBX 12 14 3 -1
BITMAP
1800
1300
1080
1020
0FC0
F800
08C0
0980
0500
0600
0E00
1120
60A0
8070
ENDCHAR
STARTCHAR 2F3E
ENCODING 12094
SWIDTH 1000 0
DWIDTH 16 0
BBX 14 13 1 0
BITMAP
0008
FFFC
0000
0010
3FF8
2010
2010
2010
3FF0
2000
4000
4000
8000
ENDCHAR
STARTCHAR 2F3F
ENCODING 12095
SWIDTH 1000 0
DWIDTH 16 0
BBX 15 14 1 -2
BITMAP
0010
01E0
3F00
0100
0108
3FF0
0100
0104
FFFE
0100
0100
0100
0100
0700
ENDCHAR
STARTCHAR 2F40
ENCODING 12096
SWIDTH 1000 0
DWIDTH 16 0
BBX 12 15 3 -2
BITMAP
0600
0400
0410
FFE0
0400
0440
FFC0
20C0
2080
1100
0E00
0E00
11C0
6070
8000
ENDCHAR
STARTCHAR 2F41
ENCODING 12097
SWIDTH 1000 0
DWIDTH 16 0
BBX 13 14 1 -1
BITMAP
0300
0200
0210
03E0
0200
0220
3DF0
0840
08C0
0580
0300
04C0
1878
E008
ENDCHAR
STARTCHAR 2F42
ENCODING 12098
SWIDTH 1000 0
DWIDTH 16 0
BBX 13 15 1 -1
BITMAP
0300
0200
0208
FFF8
1040
1040
0880
0880
0500
0300
0300
0480
1860
6018
8000
ENDCHAR
STARTCHAR 2F43
ENCODING 12099
SWIDTH 1000 0
DWIDTH 16 0
BBX 13 14 2 -2
BITMAP
00C0
0080
1880
0C80
0480
2080
1880
1890
0098
07E0
F880
0080
0080
0080
ENDCHAR
STARTCHAR 2F44
ENCODING 12100
SWIDTH 1000 0
DWIDTH 16 0
BBX 12 14 2 -1
BITMAP
00C0
0780
3800
2000
2000
2010
3FE0
2100
2100
2100
4100
4100
8100
0100
ENDCHAR
STARTCHAR 2F45
ENCODING 12101
SWIDTH 1000 0
DWIDTH 16 0
BBX 12 14 2 -1
BITMAP
0600
0400
0410
FBE0
0800
0800
0FE0
0820
1020
1020
3020
2040
4440
83C0
ENDCHAR
STARTCHAR 2F46
ENCODING 12102
SWIDTH 1000 0
DWIDTH 16 0
BBX 14 14 1 0
BITMAP
0020
7FF0
0200
0200
0200
0208
7FF0
0580
0500
0500
0908
1108
21FC
C000
ENDCHAR
STARTCHAR 2F47
ENCODING 12103
SWIDTH 1000 0
DWIDTH 16 0
BBX 11 13 3 -1
BITMAP
0040
FFE0
8040
8040
8040
8040
FFC0
8040
8040
8040
8040
8040
FFC0
ENDCHAR
STARTCHAR 2F48
ENCODING 12104
SWIDTH 1000 0
DWIDTH 16 0
BBX 11 12 3 -1
BITMAP
0040
FFE0
8040
8040
8040
8340
FC40
8040
8040
8040
8040
FFC0
ENDCHAR
STARTCHAR 2F49
ENCODING 12105
SWIDTH 1000 0
DWIDTH 16 0
BBX 13 14 1 -1
BITMAP
0010
1FF8
1010
1010
1FF0
1010
1010
1010
1FF0
1010
2010
2010
40F0
8000
ENDCHAR
STARTCHAR 2F4A
ENCODING 12106
SWIDTH 1000 0
DWIDTH 16 0
BBX 14 15 1 -1
BITMAP
0300
0200
0200
0208
FFF8
0700
0700
0A80
0A40
1220
2210
420C
8200
0200
0200
ENDCHAR
STARTCHAR 2F4B
ENCODING 12107
SWIDTH 1000 0
DWIDTH 16 0
BBX 13 14 2 -1
BITMAP
1800
1000
2010
3FF8
6410
4420
8640
0600
0600
0900
0880
1040
2030
C010
ENDCHAR
STARTCHAR 2F4C
ENCODING 12108
SWIDTH 1000 0
DWIDTH 16 0
BBX 11 13 4 0
BITMAP
0C00
0800
0800
0800
C800
8880
8F00
8800
8800
8800
8800
8800
8860
ENDCHAR
STARTCHAR 2F4D
ENCODING 12109
SWIDTH 1000 0
DWIDTH 16 0
BBX 14 14 1 -1
BITMAP
0008
FFFC
0600
0400
0C20
0BF0
1040
2C40
4680
0300
0200
0400
1800
6000
ENDCHAR
STARTCHAR 2F4E
ENCODING 12110
SWIDTH 1000 0
DWIDTH 16 0
BBX 12 14 2 -2
BITMAP
0100
1F80
1100
1110
1110
21F0
2000
C000
3FC0
0900
0600
0600
19E0
E030
ENDCHAR
STARTCHAR 2F4F
ENCODING 12111
SWIDTH 1000 0
DWIDTH 16 0
BBX 14 13 1 0
BITMAP
1FF0
2220
2220
2220
2224
FFFC
2220
2220
2220
4224
7DF8
0020
00C0
ENDCHAR
STARTCHAR 2F50
ENCODING 12112
SWIDTH 1000 0
DWIDTH 16 0
BBX 14 14 1 0
BITMAP
30C0
2080
2080
208C
2290
3EA0
20C0
2080
2080
2080
2084
2E84
F084
80FC
ENDCHAR
STARTCHAR 2F51
ENCODING 12113
SWIDTH 1000 0
DWIDTH 16 0
BBX 13 14 2 -1
BITMAP
0040
01E0
0E00
7400
0430
0FC0
7400
0408
07F0
FC00
0408
0408
0408
07F8
ENDCHAR
STARTCHAR 2F52
ENCODING 12114
SWIDTH 1000 0
DWIDTH 16 0
BBX 13 14 1 0
BITMAP
0070
0380
3D00
2100
2100
2108
3FF8
2080
2080
2080
2040
2148
3E28
C018
ENDCHAR
STARTCHAR 2F53
ENCODING 12115
SWIDTH 1000 0
DWIDTH 16 0
BBX 14 14 1 0
BITMAP
1800
1018
1FE0
2010
4FF0
4000
8020
3FE0
0020
0024
0024
0014
001C
000C
ENDCHAR
STARTCHAR 2F54
ENCODING 12116
SWIDTH 1000 0
DWIDTH 16 0
BBX 14 14 1 -1
BITMAP
0180
0100
0100
010C
7D98
0590
0960
0940
0920
1110
2108
4104
8100
0700
ENDCHAR
STARTCHAR 2F55
ENCODING 12117
SWIDTH 1000 0
DWIDTH 16 0
BBX 13 14 1 -2
BITMAP
0300
0200
0200
0218
2220
2220
2340
2300
4500
0480
0C40
0820
3018
C008
ENDCHAR
STARTCHAR 2F56
ENCODING 12118
SWIDTH 1000 0
DWIDTH 16 0
BBX 14 12 1 0
BITMAP
01F0
3F40
2240
2240
2220
2220
2220
2220
2210
4210
4208
820C
ENDCHAR
STARTCHAR 2F57
ENCODING 12119
SWIDTH 1000 0
DWIDTH 16 0
BBX 13 13 1 0
BITMAP
0CC0
1020
1018
2058
4868
0880
0480
0300
0300
0680
0C60
1038
E000
ENDCHAR
STARTCHAR 2F58
ENCODING 12120
SWIDTH 1000 0
DWIDTH 16 0
BBX 12 14 2 -2
BITMAP
0040
20E0
1D00
0300
0CC0
3020
40C0
1080
0900
0500
0200
0D80
1060
E010
ENDCHAR
STARTCHAR 2F59
ENCODING 12121
SWIDTH 1000 0
DWIDTH 16 0
BBX 10 14 3 -1
BITMAP
0080
30C0
2080
2080
2080
3F80
0080
0080
7F80
1080
2080
2080
4080
8080
ENDCHAR
STARTCHAR 2F5A
ENCODING 12122
SWIDTH 1000 0
DWIDTH 16 0
BBX 12 13 2 0
BITMAP
3180
2100
2100
2110
3EE0
2000
2080
3FC0
2080
4080
4080
8080
0080
ENDCHAR
STARTCHAR 2F5B
ENCODING 12123
SWIDTH 1000 0
DWIDTH 16 0
BBX 13 14 1 0
BITMAP
0010
7FF8
0080
1080
2080
2088
3FF0
0280
0480
0880
1080
6080
8080
0380
ENDCHAR
STARTCHAR 2F5C
ENCODING 12124
SWIDTH 1000 0
DWIDTH 16 0
BBX 13 14 2 -2
BITMAP
0300
3200
2200
2210
5FE0
4200
8200
8200
0208
FFF0
0200
0200
0200
0200
ENDCHAR
STARTCHAR 2F5D
ENCODING 12125
SWIDTH 1000 0
DWIDTH 16 0
BBX 14 15 1 -1
BITMAP
0300
02C0
0220
0220
0208
FFFC
0200
0300
0500
0480
0C40
0820
3018
400C
8000
ENDCHAR
STARTCHAR 2F5E
ENCODING 12126
SWIDTH 1000 0
DWIDTH 16 0
BBX 13 14 1 0
BITMAP
0300
0200
0208
7FF0
0500
0440
28E0
1880
0900
0240
0430
0878
FF88
8000
ENDCHAR
STARTCHAR 2F5F
ENCODING 12127
SWIDTH 1000 0
DWIDTH 16 0
BBX 12 12 2 1
BITMAP
0030
FFC0
0400
0400
0400
0420
7FC0
0500
0480
0440
0440
0410
ENDCHAR
STARTCHAR 2F60
ENCODING 12128
SWIDTH 1000 0
DWIDTH 16 0
BBX 14 14 1 -2
BITMAP
0030
2FC0
3340
2220
2220
2220
2220
2220
2210
2250
4248
42E8
9D24
9004
ENDCHAR
STARTCHAR 2F61
ENCODING 12129
SWIDTH 1000 0
DWIDTH 16 0
BBX 13 14 2 0
BITMAP
0010
FFF8
1000
1000
1080
1FC0
1880
1480
2280
2288
2088
2288
FCF8
8000
ENDCHAR
STARTCHAR 2F62
ENCODING 12130
SWIDTH 1000 0
DWIDTH 16 0
BBX 14 14 1 -1
BITMAP
1830
1020
1024
FFFC
1020
1020
1020
1020
1FE0
1020
1020
1020
1FE0
1020
ENDCHAR
STARTCHAR 2F63
ENCODING 12131
SWIDTH 1000 0
DWIDTH 16 0
BBX 13 13 2 0
BITMAP
0300
3200
2200
2210
5FE0
4200
8200
0220
3FC0
0200
0200
0200
0208
ENDCHAR
STARTCHAR 2F64
ENCODING 12132
SWIDTH 1000 0
DWIDTH 16 0
BBX 14 14 1 -2
BITMAP
0008
3FFC
2208
2208
2208
3FF8
2208
2208
3FF8
2208
2208
4208
4208
8038
ENDCHAR
STARTCHAR 2F65
ENCODING 12133
SWIDTH 1000 0
DWIDTH 16 0
BBX 13 12 2 -1
BITMAP
0010
FFF8
8410
8410
8410
8410
FFF0
8410
8410
8410
8410
FBF0
ENDCHAR
STARTCHAR 2F66
ENCODING 12134
SWIDTH 1000 0
DWIDTH 16 0
BBX 13 12 2 -1
BITMAP
0010
7FF8
0220
0200
2200
3230
23C0
2200
5200
4A00
8600
81F8
ENDCHAR
STARTCHAR 2F67
ENCODING 12135
SWIDTH 1000 0
DWIDTH 16 0
BBX 14 14 1 -1
BITMAP
0180
0108
1FFC
1000
5000
5000
5000
1000
3000
D000
9000
2000
2000
4000
ENDCHAR
STARTCHAR 2F68
ENCODING 12136
SWIDTH 1000 0
DWIDTH 16 0
BBX 14 9 1 3
BITMAP
3F20
0330
674C
1490
0860
1030
200C
4004
8000
ENDCHAR
STARTCHAR 2F69
ENCODING 12137
SWIDTH 1000 0
DWIDTH 16 0
BBX 11 14 3 -1
BITMAP
0C00
0800
1040
FFE0
8040
8040
8040
8040
FFC0
8040
8040
8040
FFC0
8040
ENDCHAR
STARTCHAR 2F6A
ENCODING 12138
SWIDTH 1000 0
DWIDTH 16 0
BBX 14 14 1 -2
BITMAP
0180
0100
0108
3FFC
2110
2100
2110
3EE0
2420
2240
4180
41C0
4630
9808
ENDCHAR
STARTCHAR 2F6B
ENCODING 12139
SWIDTH 1000 0
DWIDTH 16 0
BBX 12 12 3 0
BITMAP
0040
FFE0
9240
9240
9240
9240
9240
9240
9240
9240
9240
9250
ENDCHAR
STARTCHAR 2F6C
ENCODING 12140
SWIDTH 1000 0
DWIDTH 16 0
BBX 11 14 3 -2
BITMAP
0040
FFE0
8040
8040
8040
FFC0
8040
8040
FFC0
8040
8040
8040
FFC0
8040
ENDCHAR
STARTCHAR 2F6D
ENCODING 12141
SWIDTH 1000 0
DWIDTH 16 0
BBX 14 14 1 -2
BITMAP
0020
3FF0
0060
0C80
0300
0108
7FFC
0510
0920
1100
2100
C100
0100
0700
ENDCHAR
STARTCHAR 2F6E
ENCODING 12142
SWIDTH 1000 0
DWIDTH 16 0
BBX 13 14 2 -1
BITMAP
1000
1800
3030
2FC0
4200
4200
0218
7FE0
0500
0480
0840
1030
6018
8000
ENDCHAR
STARTCHAR 2F6F
ENCODING 12143
SWIDTH 1000 0
DWIDTH 16 0
BBX 14 13 0 -1
BITMAP
0004
3FF8
0400
0400
0800
0808
1FFC
2808
4808
8808
0808
0FF8
0808
ENDCHAR
STARTCHAR 2F70
ENCODING 12144
SWIDTH 1000 0
DWIDTH 16 0
BBX 14 13 1 -1
BITMAP
0010
1FE0
0000
0000
000C
3FF0
1100
1930
3118
2108
4104
8104
0700
ENDCHAR
STARTCHAR 2F71
ENCODING 12145
SWIDTH 1000 0
DWIDTH 16 0
BBX 13 14 2 0
BITMAP
0600
0400
0410
FFF8
8810
8910
8910
9090
BF50
A050
8010
8010
80F0
8000
ENDCHAR
STARTCHAR 2F72
ENCODING 12146
SWIDTH 1000 0
DWIDTH 16 0
BBX 15 13 0 -1
BITMAP
0078
0780
3900
0100
0104
3FF8
0380
0540
0930
1118
2106
C100
0100
ENDCHAR
STARTCHAR 2F73
ENCODING 12147
SWIDTH 1000 0
DWIDTH 16 0
BBX 15 14 0 -1
BITMAP
0180
0100
0104
7EFE
4008
C480
0440
0840
0820
0820
1010
2008
4004
8000
ENDCHAR
STARTCHAR 2F74
ENCODING 12148
SWIDTH 1000 0
DWIDTH 16 0
BBX 13 13 1 1
BITMAP
0300
0200
0210
FFF8
0000
2020
2040
1040
1040
0880
0880
0880
0108
ENDCHAR
STARTCHAR 2F75
ENCODING 12149
SWIDTH 1000 0
DWIDTH 16 0
BBX 14 14 1 -1
BITMAP
20C0
3080
2080
2504
59F8
9220
9220
1020
1020
1020
1020
1020
1020
10E0
ENDCHAR
STARTCHAR 2F76
ENCODING 12150
SWIDTH 1000 0
DWIDTH 16 0
BBX 13 14 1 -1
BITMAP
0300
4210
2220
1220
1240
0208
FFF8
0700
0E80
0A40
1220
6218
8200
0200
ENDCHAR
STARTCHAR 2F77
ENCODING 12151
SWIDTH 1000 0
DWIDTH 16 0
BBX 13 14 2 -1
BITMAP
0300
0400
4860
3080
1900
0A20
0410
FFF8
8208
1240
2230
4218
8208
0200
ENDCHAR
STARTCHAR 2F78
ENCODING 12152
SWIDTH 1000 0
DWIDTH 16 0
BBX 12 13 2 -1
BITMAP
3800
2020
3FC0
4200
8200
0210
FFE0
6230
4220
4220
4220
4220
7DE0
ENDCHAR
STARTCHAR 2F79
ENCODING 12153
SWIDTH 1000 0
DWIDTH 16 0
BBX 13 14 2 -1
BITMAP
0010
FFF8
8010
8CD0
8890
8A90
B990
9990
9550
9150
A210
C210
8010
8070
ENDCHAR
STARTCHAR 2F7A
ENCODING 12154
SWIDTH 1000 0
DWIDTH 16 0
BBX 14 14 1 -1
BITMAP
10C0
0880
0910
7FF8
0200
0200
7FF0
0200
0208
FFFC
0200
0200
0200
0200
ENDCHAR
STARTCHAR 2F7B
ENCODING 12155
SWIDTH 1000 0
DWIDTH 16 0
BBX 14 14 1 -2
BITMAP
0408
FFFC
0408
8508
64C8
2448
0408
1428
2448
4588
8508
0408
0408
1C38
ENDCHAR
STARTCHAR 2F7C
ENCODING 12156
SWIDTH 1000 0
DWIDTH 16 0
BBX 12 14 2 -1
BITMAP
0C00
0860
0940
3E80
0910
0BF0
F400
0C40
18C0
2B00
CC00
0820
0830
0FE0
ENDCHAR
STARTCHAR 2F7D
ENCODING 12157
SWIDTH 1000 0
DWIDTH 16 0
BBX 14 14 1 -1
BITMAP
0004
FFFC
0200
0208
7FFC
4488
4488
4488
4488
4488
4488
4488
4488
4498
ENDCHAR
STARTCHAR 2F7E
ENCODING 12158
SWIDTH 1000 0
DWIDTH 16 0
BBX 13 14 1 -2
BITMAP
0300
0220
03C0
FE00
0220
3FC0
0200
0208
7FF0
0E80
1240
2230
C208
0200
ENDCHAR
STARTCHAR 2F7F
ENCODING 12159
SWIDTH 1000 0
DWIDTH 16 0
BBX 14 15 1 -1
BITMAP
000C
FFFC
1020
1020
1FE0
1020
1020
1FE0
1020
1020
1078
FFA0
8020
0020
0020
ENDCHAR
STARTCHAR 2F80
ENCODING 12160
SWIDTH 1000 0
DWIDTH 16 0
BBX 14 14 1 0
BITMAP
0300
0210
3FF0
0214
FFF8
0210
7FF0
0210
0208
3FF0
0204
FFF8
0200
0200
ENDCHAR
STARTCHAR 2F81
ENCODING 12161
SWIDTH 1000 0
DWIDTH 16 0
BBX 13 14 2 -2
BITMAP
0600
0400
0410
FFF8
8B10
8890
9650
A410
8710
8890
9050
A010
8010
8070
ENDCHAR
STARTCHAR 2F82
ENCODING 12162
SWIDTH 1000 0
DWIDTH 16 0
BBX 13 14 2 -1
BITMAP
0010
FFF8
8200
8200
8220
FDF0
8020
8020
FFE0
8220
8200
8200
FFF8
8000
ENDCHAR
STARTCHAR 2F83
ENCODING 12163
SWIDTH 1000 0
DWIDTH 16 0
BBX 11 14 3 -2
BITMAP
0C00
0800
0840
F7E0
8040
8040
FFC0
8040
8040
FFC0
8040
8040
FFC0
8040
ENDCHAR
STARTCHAR 2F84
ENCODING 12164
SWIDTH 1000 0
DWIDTH 16 0
BBX 13 13 1 1
BITMAP
0008
FFF8
0400
0440
0820
3FD0
4308
0200
0220
3FC0
0200
0200
0208
ENDCHAR
STARTCHAR 2F85
ENCODING 12165
SWIDTH 1000 0
DWIDTH 16 0
BBX 12 13 2 -1
BITMAP
0C00
3020
C1F0
8020
8020
8820
F1E0
8020
8020
8020
8020
FFE0
8020
ENDCHAR
STARTCHAR 2F86
ENCODING 12166
SWIDTH 1000 0
DWIDTH 16 0
BBX 13 13 2 0
BITMAP
03E0
FC00
0400
0408
FFF0
0400
0420
7FF0
4020
4020
4020
4020
7FE0
ENDCHAR
STARTCHAR 2F87
ENCODING 12167
SWIDTH 1000 0
DWIDTH 16 0
BBX 13 14 1 -1
BITMAP
3030
2020
2420
3E28
44F0
45A0
6920
9920
0928
12F0
2020
2020
4020
8020
ENDCHAR
STARTCHAR 2F88
ENCODING 12168
SWIDTH 1000 0
DWIDTH 16 0
BBX 12 14 2 -1
BITMAP
0600
0840
37E0
2C40
2640
2240
2050
FFE0
2640
2440
2440
4440
4040
81C0
ENDCHAR
STARTCHAR 2F89
ENCODING 12169
SWIDTH 1000 0
DWIDTH 16 0
BBX 12 14 2 -1
BITMAP
0040
3FE0
2040
2040
3FC0
2040
2040
3FE0
2230
2240
2180
2480
F870
8010
ENDCHAR
STARTCHAR 2F8A
ENCODING 12170
SWIDTH 1000 0
DWIDTH 16 0
BBX 13 15 1 -1
BITMAP
0800
0C00
1FC0
1080
2110
7FF8
A110
2110
2110
3FF0
2010
2008
2008
2008
3FF8
ENDCHAR
STARTCHAR 2F8B
ENCODING 12171
SWIDTH 1000 0
DWIDTH 16 0
BBX 14 14 1 -2
BITMAP
1020
1020
1020
D5AC
9528
9528
9528
9528
9528
FDF8
1020
2020
4020
8020
ENDCHAR
STARTCHAR 2F8C
ENCODING 12172
SWIDTH 1000 0
DWIDTH 16 0
BBX 14 14 1 -2
BITMAP
0180
0108
01F0
0104
3EFC
2308
2200
221C
3FE0
2200
2208
4208
43FC
8000
ENDCHAR
STARTCHAR 2F8D
ENCODING 12173
SWIDTH 1000 0
DWIDTH 16 0
BBX 13 14 2 0
BITMAP
0600
0400
0420
7FF0
4420
4420
4420
4420
7FE0
0480
0460
0430
FFD8
8008
ENDCHAR
STARTCHAR 2F8E
ENCODING 12174
SWIDTH 1000 0
DWIDTH 16 0
BBX 12 13 3 1
BITMAP
0C00
0800
1040
FFE0
9240
9240
9240
9240
9240
9240
9240
9240
9250
ENDCHAR
STARTCHAR 2F8F
ENCODING 12175
SWIDTH 1000 0
DWIDTH 16 0
BBX 15 14 0 -1
BITMAP
0C04
13FC
2000
2000
CC00
1806
13F8
3810
5010
9010
1010
1010
1010
1070
ENDCHAR
STARTCHAR 2F90
ENCODING 12176
SWIDTH 1000 0
DWIDTH 16 0
BBX 13 14 1 0
BITMAP
0300
0200
0208
7FF0
0618
0910
1920
28C0
48C0
8840
08A0
0F18
7008
4000
ENDCHAR
STARTCHAR 2F91
ENCODING 12177
SWIDTH 1000 0
DWIDTH 16 0
BBX 13 12 2 0
BITMAP
0008
FFF0
0900
0910
FFF8
8910
8910
8910
8910
8F10
8010
8010
ENDCHAR
STARTCHAR 2F92
ENCODING 12178
SWIDTH 1000 0
DWIDTH 16 0
BBX 13 15 2 -2
BITMAP
0040
3FE0
2040
3FC0
2040
2040
3FC0
2040
3FC0
2940
0900
0910
1110
21F8
C000
ENDCHAR
STARTCHAR 2F93
ENCODING 12179
SWIDTH 1000 0
DWIDTH 16 0
BBX 13 15 1 -2
BITMAP
0800
0C00
1FC0
1080
2110
7FF8
A110
2110
3FF0
2110
3FF0
2010
6010
4010
8070
ENDCHAR
STARTCHAR 2F94
ENCODING 12180
SWIDTH 1000 0
DWIDTH 16 0
BBX 14 14 1 0
BITMAP
0020
3FF0
0000
FFFC
0000
3FF0
0000
3FF0
0000
0010
3FF8
2010
2010
3FF0
ENDCHAR
STARTCHAR 2F95
ENCODING 12181
SWIDTH 1000 0
DWIDTH 16 0
BBX 14 14 1 -2
BITMAP
0800
0C40
1030
2318
4708
0480
0840
1030
3FFC
D020
1020
1020
1FE0
1020
ENDCHAR
STARTCHAR 2F96
ENCODING 12182
SWIDTH 1000 0
DWIDTH 16 0
BBX 14 13 1 1
BITMAP
0008
FFFC
0000
0010
3FF0
2010
2010
2010
3FF0
1020
0840
0C40
0484
ENDCHAR
STARTCHAR 2F97
ENCODING 12183
SWIDTH 1000 0
DWIDTH 16 0
BBX 14 14 1 0
BITMAP
0008
FFFC
0700
0C80
1298
6690
0D60
11C0
62A0
04B0
1898
208C
C180
0700
ENDCHAR
STARTCHAR 2F98
ENCODING 12184
SWIDTH 1000 0
DWIDTH 16 0
BBX 9 14 3 -1
BITMAP
0300
0C00
3400
C380
3300
1C00
3200
C500
0900
3280
C480
1880
6180
0700
ENDCHAR
STARTCHAR 2F99
ENCODING 12185
SWIDTH 1000 0
DWIDTH 16 0
BBX 14 15 1 -2
BITMAP
0010
3FF0
2010
2010
3FF0
2010
3FF0
2010
2010
3FF0
2010
0CE0
1018
6004
8000
ENDCHAR
STARTCHAR 2F9A
ENCODING 12186
SWIDTH 1000 0
DWIDTH 16 0
BBX 13 15 2 -2
BITMAP
0200
0200
0220
3FC0
0210
FFF8
0900
2940
6920
4920
8910
9110
1100
2300
4000
ENDCHAR
STARTCHAR 2F9B
ENCODING 12187
SWIDTH 1000 0
DWIDTH 16 0
BBX 13 14 1 -2
BITMAP
0300
0200
0210
3FE0
0200
0208
7FF0
2200
3210
23E0
3200
4A00
4700
81F8
ENDCHAR
STARTCHAR 2F9C
ENCODING 12188
SWIDTH 1000 0
DWIDTH 16 0
BBX 14 14 1 -2
BITMAP
0010
3FF8
2010
2010
2010
3FF0
2110
0100
3108
31F0
2900
4500
8380
80FC
ENDCHAR
STARTCHAR 2F9D
ENCODING 12189
SWIDTH 1000 0
DWIDTH 16 0
BBX 14 14 1 -1
BITMAP
0300
0220
1DE0
1020
1FE4
1024
1FE8
1030
1060
7FE0
01A0
0620
1820
E0E0
ENDCHAR
STARTCHAR 2F9E
ENCODING 12190
SWIDTH 1000 0
DWIDTH 16 0
BBX 13 14 2 0
BITMAP
0600
0410
FFE0
0420
7FF0
4420
7FE0
4420
4420
7FE0
0418
FFE0
0400
0400
ENDCHAR
STARTCHAR 2F9F
ENCODING 12191
SWIDTH 1000 0
DWIDTH 16 0
BBX 12 14 2 -1
BITMAP
0600
0400
0420
7BC0
2080
1100
1210
EDE0
0400
0420
FFC0
0400
0400
0400
ENDCHAR
STARTCHAR 2FA0
ENCODING 12192
SWIDTH 1000 0
DWIDTH 16 0
BBX 14 14 1 -1
BITMAP
0008
3FFC
2000
2010
27E0
2000
2004
3FF8
248C
2450
4420
4430
4F8C
9004
ENDCHAR
STARTCHAR 2FA1
ENCODING 12193
SWIDTH 1000 0
DWIDTH 16 0
BBX 14 14 1 -1
BITMAP
0038
03C0
7C10
01E0
3E08
00F0
1F00
2180
1908
11F0
1900
2500
4300
80FC
ENDCHAR
STARTCHAR 2FA2
ENCODING 12194
SWIDTH 1000 0
DWIDTH 16 0
BBX 13 13 2 0
BITMAP
0040
3FC0
2040
3FC0
0000
FFF0
8420
8420
8420
FBE0
8000
8010
FFF8
ENDCHAR
STARTCHAR 2FA3
ENCODING 12195
SWIDTH 1000 0
DWIDTH 16 0
BBX 14 14 1 -1
BITMAP
0004
FFFC
0500
0508
7FFC
4508
4528
4928
51E8
4008
7FF8
4008
4008
7FF8
ENDCHAR
STARTCHAR 2FA4
ENCODING 12196
SWIDTH 1000 0
DWIDTH 16 0
BBX 13 14 1 -2
BITMAP
0020
01D0
FE20
4230
3240
1240
0208
7FF0
0680
0A40
1220
6218
8208
0200
ENDCHAR
STARTCHAR 2FA5
ENCODING 12197
SWIDTH 1000 0
DWIDTH 16 0
BBX 12 13 3 0
BITMAP
0040
FFE0
8840
8840
FFC0
8840
8840
FFC0
8840
0840
FF80
0800
0810
ENDCHAR
STARTCHAR 2FA6
ENCODING 12198
SWIDTH 1000 0
DWIDTH 16 0
BBX 14 15 1 -1
BITMAP
0200
0300
0500
0C80
0840
1020
3FD8
C204
0210
3FE0
2220
1240
1240
0208
FFF8
ENDCHAR
STARTCHAR 2FA7
ENCODING 12199
SWIDTH 1000 0
DWIDTH 16 0
BBX 14 14 1 -1
BITMAP
0010
1FE0
1020
1FC0
1020
1FC0
1004
FFFC
1210
1130
10C0
1040
1E30
600C
ENDCHAR
STARTCHAR 2FA8
ENCODING 12200
SWIDTH 1000 0
DWIDTH 16 0
BBX 13 14 2 -2
BITMAP
0810
FDF8
8910
F9F0
8910
F9F0
8910
8010
8010
8010
8010
8010
8010
8070
ENDCHAR
STARTCHAR 2FA9
ENCODING 12201
SWIDTH 1000 0
DWIDTH 16 0
BBX 14 14 1 -2
BITMAP
0600
0420
3BF0
2020
3FE0
2010
3FF0
2010
3FF0
2210
0204
FFF8
0200
0200
ENDCHAR
STARTCHAR 2FAA
ENCODING 12202
SWIDTH 1000 0
DWIDTH 16 0
BBX 14 14 1 -2
BITMAP
0300
0210
3FF8
0214
7FF8
0210
7FF0
0210
6318
12A0
0A40
7230
820C
0E00
ENDCHAR
STARTCHAR 2FAB
ENCODING 12203
SWIDTH 1000 0
DWIDTH 16 0
BBX 15 14 0 -2
BITMAP
0840
0C60
0840
1084
1FF8
3088
5FF8
9080
1088
1FF8
1080
1084
1FFE
1000
ENDCHAR
STARTCHAR 2FAC
ENCODING 12204
SWIDTH 1000 0
DWIDTH 16 0
BBX 14 14 1 -1
BITMAP
0004
FFFC
0200
0208
7FFC
4208
52C8
4A28
4208
52C8
4A28
4208
4208
4238
ENDCHAR
STARTCHAR 2FAD
ENCODING 12205
SWIDTH 1000 0
DWIDTH 16 0
BBX 12 15 2 -2
BITMAP
0600
0420
FFF0
0400
7FE0
0410
FBE0
0040
3FE0
2440
2440
3BC0
2040
2040
21C0
ENDCHAR
STARTCHAR 2FAE
ENCODING 12206
SWIDTH 1000 0
DWIDTH 16 0
BBX 13 15 2 -1
BITMAP
0D80
0900
0910
79E0
0900
0910
79E0
0900
1D18
E9F8
9100
1100
2100
4100
8000
ENDCHAR
STARTCHAR 2FAF
ENCODING 12207
SWIDTH 1000 0
DWIDTH 16 0
BBX 14 14 1 -1
BITMAP
0004
FFFC
0200
0208
7FFC
4488
4488
4788
4488
4488
4788
4488
4488
7B78
ENDCHAR
STARTCHAR 2FB0
ENCODING 12208
SWIDTH 1000 0
DWIDTH 16 0
BBX 13 14 2 -2
BITMAP
1880
1090
FFE0
1080
1F80
0420
7FE0
4420
7FE0
4420
0408
FFF0
0400
0400
ENDCHAR
STARTCHAR 2FB1
ENCODING 12209
SWIDTH 1000 0
DWIDTH 16 0
BBX 13 16 2 -2
BITMAP
0600
0400
7FC0
0880
FFF8
0040
3FC0
2040
3FC0
0120
3FC0
2110
FFF8
0100
0100
0100
ENDCHAR
STARTCHAR 2FB2
ENCODING 12210
SWIDTH 1000 0
DWIDTH 16 0
BBX 13 13 2 1
BITMAP
0D80
0900
0910
F9F8
0900
0900
F9F0
0900
0910
F9F0
0900
0900
0908
ENDCHAR
STARTCHAR 2FB3
ENCODING 12211
SWIDTH 1000 0
DWIDTH 16 0
BBX 11 14 3 -1
BITMAP
0C00
0840
F780
2180
2200
2220
DDC0
0080
7FC0
4080
7F80
4080
4080
7F80
ENDCHAR
STARTCHAR 2FB4
ENCODING 12212
SWIDTH 1000 0
DWIDTH 16 0
BBX 14 15 1 -1
BITMAP
0004
7FF8
0210
3FF8
2010
2010
3FF0
2010
3FF0
2010
3FF0
2000
1CF0
600C
8000
ENDCHAR
STARTCHAR 2FB5
ENCODING 12213
SWIDTH 1000 0
DWIDTH 16 0
BBX 14 14 1 -2
BITMAP
0010
3FF8
21D0
2E10
2250
2FD0
2A50
2A50
2FD0
4A50
420C
424C
9FAC
9024
ENDCHAR
STARTCHAR 2FB6
ENCODING 12214
SWIDTH 1000 0
DWIDTH 16 0
BBX 14 14 1 -2
BITMAP
0040
3FE8
0F70
3258
D22C
1234
124C
FFD0
1258
1260
2258
2224
4214
820C
ENDCHAR
STARTCHAR 2FB7
ENCODING 12215
SWIDTH 1000 0
DWIDTH 16 0
BBX 14 15 1 -2
BITMAP
0300
0300
0480
0B40
1230
3FEC
D020
1FE0
1020
1020
1FF8
1120
10C0
1E70
600C
ENDCHAR
STARTCHAR 2FB8
ENCODING 12216
SWIDTH 1000 0
DWIDTH 16 0
BBX 12 14 2 -1
BITMAP
2080
1100
1110
EEE0
0840
7FE0
4040
4040
7FC0
4040
7FC0
4040
4040
7FC0
ENDCHAR
STARTCHAR 2FB9
ENCODING 12217
SWIDTH 1000 0
DWIDTH 16 0
BBX 13 14 1 0
BITMAP
03E0
3E00
0208
FFF8
0700
0AC0
3230
C228
3DE0
2020
3FE0
2020
2020
3FE0
ENDCHAR
STARTCHAR 2FBA
ENCODING 12218
SWIDTH 1000 0
DWIDTH 16 0
BBX 14 14 1 -1
BITMAP
0008
3FF8
2100
3FF0
2100
2110
3FE0
2100
3FFC
2008
0248
4928
4908
8838
ENDCHAR
STARTCHAR 2FBB
ENCODING 12219
SWIDTH 1000 0
DWIDTH 16 0
BBX 14 14 1 -2
BITMAP
0020
1FF0
1020
13E0
5220
6DDC
8038
1FE0
1FE0
1020
1FE0
1020
1020
10E0
ENDCHAR
STARTCHAR 2FBC
ENCODING 12220
SWIDTH 1000 0
DWIDTH 16 0
BBX 13 14 2 -2
BITMAP
0600
0410
FBE0
3FC0
2040
2040
1F90
FFF8
8010
9F90
9090
9F90
9010
8070
ENDCHAR
STARTCHAR 2FBD
ENCODING 12221
SWIDTH 1000 0
DWIDTH 16 0
BBX 15 14 1 -1
BITMAP
0208
3C10
2220
3C44
2288
3E10
2020
2140
7E86
2408
2210
5F20
E140
8080
ENDCHAR
STARTCHAR 2FBE
ENCODING 12222
SWIDTH 1000 0
DWIDTH 16 0
BBX 13 14 2 -2
BITMAP
C018
99D0
9090
9990
9090
BFF0
8010
8010
8010
8010
8010
8010
8010
8070
ENDCHAR
STARTCHAR 2FBF
ENCODING 12223
SWIDTH 1000 0
DWIDTH 16 0
BBX 13 14 2 0
BITMAP
8898
A510
DA90
A650
8990
B650
8210
FFF0
8000
6060
4380
7C10
4010
7FF8
ENDCHAR
STARTCHAR 2FC0
ENCODING 12224
SWIDTH 1000 0
DWIDTH 16 0
BBX 13 14 2 -1
BITMAP
0010
FFE0
0060
3FC0
2040
3FC0
0010
FFF8
8950
91F0
A010
9F90
8210
8270
ENDCHAR
STARTCHAR 2FC1
ENCODING 12225
SWIDTH 1000 0
DWIDTH 16 0
BBX 14 15 1 -1
BITMAP
0200
0410
3BF8
2210
2210
3FF0
2210
3FF0
2910
0920
0950
09FC
1184
21FC
C000
ENDCHAR
STARTCHAR 2FC2
ENCODING 12226
SWIDTH 1000 0
DWIDTH 16 0
BBX 14 14 1 0
BITMAP
0C00
0FC0
1080
3110
6FF0
A110
3FF0
2110
2110
3FF0
2000
0890
444C
8444
ENDCHAR
STARTCHAR 2FC3
ENCODING 12227
SWIDTH 1000 0
DWIDTH 16 0
BBX 13 14 1 -1
BITMAP
0200
0420
3BE0
3FE0
2020
3FE0
2008
3FF0
2008
3FF8
52C8
4B48
4910
8070
ENDCHAR
STARTCHAR 2FC4
ENCODING 12228
SWIDTH 1000 0
DWIDTH 16 0
BBX 13 14 2 -2
BITMAP
0600
0420
07C0
0410
FBF8
A490
9510
AE90
9650
9550
9990
A690
8210
FDF0
ENDCHAR
STARTCHAR 2FC5
ENCODING 12229
SWIDTH 1000 0
DWIDTH 16 0
BBX 16 14 0 0
BITMAP
0080
0082
3F7C
2244
3FFE
2244
2244
3DBC
2660
254E
4670
4442
4F43
907E
ENDCHAR
STARTCHAR 2FC6
ENCODING 12230
SWIDTH 1000 0
DWIDTH 16 0
BBX 14 14 1 -2
BITMAP
0300
0208
7FF0
3260
2760
5E90
8A40
3030
460C
8BC0
3900
C700
0CE0
7010
ENDCHAR
STARTCHAR 2FC7
ENCODING 12231
SWIDTH 1000 0
DWIDTH 16 0
BBX 15 14 0 0
BITMAP
00C0
0082
3FFE
2000
2318
2292
2F7C
2738
26B8
2A54
5252
5290
4210
8210
ENDCHAR
STARTCHAR 2FC8
ENCODING 12232
SWIDTH 1000 0
DWIDTH 16 0
BBX 14 15 1 -2
BITMAP
0C40
0848
7FF8
0840
0FC0
0840
77B8
0210
3FF8
2210
3FF0
2210
3DF0
18F8
E00C
ENDCHAR
STARTCHAR 2FC9
ENCODING 12233
SWIDTH 1000 0
DWIDTH 16 0
BBX 15 14 1 -2
BITMAP
0070
7F80
0204
7FF8
1A60
239E
C500
19E0
219C
D130
15C0
3930
4108
0700
ENDCHAR
STARTCHAR 2FCA
ENCODING 12234
SWIDTH 1000 0
DWIDTH 16 0
BBX 14 14 1 -1
BITMAP
0010
3FF8
2110
3FF0
2110
3FF0
2110
0110
3FE0
0104
7EF8
2498
444C
C444
ENDCHAR
STARTCHAR 2FCB
ENCODING 12235
SWIDTH 1000 0
DWIDTH 16 0
BBX 14 15 1 -2
BITMAP
0080
24D0
14A0
14A8
FFFC
0240
1230
3FF8
6214
2E50
2A50
2A50
2A50
3210
2230
ENDCHAR
STARTCHAR 2FCC
ENCODING 12236
SWIDTH 1000 0
DWIDTH 16 0
BBX 14 14 2 -1
BITMAP
0020
7FF0
4A20
7BE0
0A00
FBF8
8A10
8A10
FBF0
8A10
FBF0
8A18
0808
0FFC
ENDCHAR
STARTCHAR 2FCD
ENCODING 12237
SWIDTH 1000 0
DWIDTH 16 0
BBX 14 13 1 -1
BITMAP
4FC8
4FC8
4848
4FC8
4848
4FC8
4408
7CF8
0484
7CF8
2490
4490
8490
ENDCHAR
STARTCHAR 2FCE
ENCODING 12238
SWIDTH 1000 0
DWIDTH 16 0
BBX 14 14 1 0
BITMAP
1030
1220
7C24
15F8
6820
4420
7DFC
4488
7888
4C50
2820
2E58
F08C
8300
ENDCHAR
STARTCHAR 2FCF
ENCODING 12239
SWIDTH 1000 0
DWIDTH 16 0
BBX 15 14 0 0
BITMAP
0708
387C
2208
3C78
2008
3FF0
11C8
1530
1510
1548
152C
112C
FBCC
8206
ENDCHAR
STARTCHAR 2FD0
ENCODING 12240
SWIDTH 1000 0
DWIDTH 16 0
BBX 13 14 1 -1
BITMAP
0300
1FE0
1020
1FE0
1FE0
1FE0
7FF8
4110
7FF0
7FF0
0440
FBF8
1040
6040
ENDCHAR
STARTCHAR 2FD1
ENCODING 12241
SWIDTH 1000 0
DWIDTH 16 0
BBX 13 14 2 -1
BITMAP
0600
0408
FBF0
7AF0
54A0
5490
B5C8
0520
2030
3FE0
2020
5FE0
4020
8020
ENDCHAR
STARTCHAR 2FD2
ENCODING 12242
SWIDTH 1000 0
DWIDTH 16 0
BBX 13 15 2 -1
BITMAP
0300
3220
23F0
2200
2208
DDF0
D898
AD50
C650
FFF0
9890
9090
A950
C650
B9B0
ENDCHAR
STARTCHAR 2FD3
ENCODING 12243
SWIDTH 1000 0
DWIDTH 16 0
BBX 13 14 2 -2
BITMAP
2300
2210
DBE0
5A18
53F0
AA10
0BF0
FA20
FBE0
8BF0
FA20
8BC8
8A08
9BF8
ENDCHAR
STARTCHAR 2FD4
ENCODING 12244
SWIDTH 1000 0
DWIDTH 16 0
BBX 15 14 1 0
BITMAP
1800
1F80
2308
7CF0
A490
1CE0
3488
7FF8
74F8
04A8
34C8
7FB8
7484
17FE
ENDCHAR
STARTCHAR 2FD5
ENCODING 12245
SWIDTH 1000 0
DWIDTH 16 0
BBX 14 14 1 -1
BITMAP
0300
0580
08C0
3FF8
4004
F7B8
54A8
2310
7FF8
4488
4488
7FF8
4488
4498
ENDCHAR
STARTCHAR 2FF0
ENCODING 12272
SWIDTH 1000 0
DWIDTH 16 0
BBX 1 1 7 0
BITMAP
80
ENDCHAR
STARTCHAR 2FF1
ENCODING 12273
SWIDTH 1000 0
DWIDTH 16 0
BBX 0 0 1 -1
BITMAP
ENDCHAR
STARTCHAR 2FF2
ENCODING 12274
SWIDTH 1000 0
DWIDTH 16 0
BBX 12 1 2 -1
BITMAP
ABD0
ENDCHAR
STARTCHAR 2FF3
ENCODING 12275
SWIDTH 1000 0
DWIDTH 16 0
BBX 12 5 2 -1
BITMAP
ABD0
0000
0000
0000
57A0
ENDCHAR
STARTCHAR 2FF4
ENCODING 12276
SWIDTH 1000 0
DWIDTH 16 0
BBX 12 11 2 -1
BITMAP
AAF0
8000
0000
8040
0000
8040
0040
8000
8040
1540
8000
ENDCHAR
STARTCHAR 2FF5
ENCODING 12277
SWIDTH 1000 0
DWIDTH 16 0
BBX 6 8 5 2
BITMAP
B4
84
00
84
84
00
84
04
ENDCHAR
STARTCHAR 2FF6
ENCODING 12278
SWIDTH 1000 0
DWIDTH 16 0
BBX 12 9 2 -1
BITMAP
ABD0
1080
0000
1080
1080
1080
1080
0000
1080
ENDCHAR
STARTCHAR 2FF7
ENCODING 12279
SWIDTH 1000 0
DWIDTH 16 0
BBX 12 8 2 -1
BITMAP
AF50
0000
0000
1760
1000
0000
1000
1000
ENDCHAR
STARTCHAR 2FF8
ENCODING 12280
SWIDTH 1000 0
DWIDTH 16 0
BBX 12 12 2 -1
BITMAP
AF50
0000
0000
1760
1000
0000
1000
1000
0000
1000
0000
1000
ENDCHAR
STARTCHAR 2FF9
ENCODING 12281
SWIDTH 1000 0
DWIDTH 16 0
BBX 8 9 3 2
BITMAP
F5
01
00
01
01
00
01
00
01
ENDCHAR
STARTCHAR 2FFA
ENCODING 12282
SWIDTH 1000 0
DWIDTH 16 0
BBX 4 10 2 0
BITMAP
90
10
80
10
80
90
90
80
00
80
ENDCHAR
STARTCHAR 2FFB
ENCODING 12283
SWIDTH 1000 0
DWIDTH 16 0
BBX 12 11 2 -1
BITMAP
DB80
8000
0000
8000
8010
0010
8080
0010
8000
D990
0010
ENDCHAR
STARTCHAR 3000
ENCODING 12288
SWIDTH 1000 0
DWIDTH 16 0
BBX 0 0 0 0
BITMAP
ENDCHAR
STARTCHAR 3001
ENCODING 12289
SWIDTH 1000 0
DWIDTH 16 0
BBX 3 3 1 0
BITMAP
C0
60
20
ENDCHAR
STARTCHAR 3002
ENCODING 12290
SWIDTH 1000 0
DWIDTH 16 0
BBX 4 4 1 -1
BITMAP
60
90
90
60
ENDCHAR
STARTCHAR 3003
ENCODING 12291
SWIDTH 1000 0
DWIDTH 16 0
BBX 7 7 4 2
BITMAP
32
26
24
24
48
88
90
ENDCHAR
STARTCHAR 3004
ENCODING 12292
SWIDTH 1000 0
DWIDTH 16 0
BBX 15 15 1 -1
BITMAP
0E60
3050
6048
4044
8142
81C2
8102
8102
8F02
8802
4804
4408
2410
1C60
0080
ENDCHAR
STARTCHAR 3005
ENCODING 12293
SWIDTH 1000 0
DWIDTH 16 0
BBX 11 9 2 3
BITMAP
0400
0800
0840
17E0
2080
2100
CE00
0200
0100
ENDCHAR
STARTCHAR 3006
ENCODING 12294
SWIDTH 1000 0
DWIDTH 16 0
BBX 10 12 3 0
BITMAP
0080
0040
0180
0200
3C00
4400
4A00
9200
A000
A000
C000
8000
ENDCHAR
STARTCHAR 3007
ENCODING 12295
SWIDTH 1000 0
DWIDTH 16 0
BBX 12 13 2 0
BITMAP
0F00
10C0
6060
4020
8010
8010
8010
8010
8010
4020
6060
30C0
0F00
ENDCHAR
STARTCHAR 3008
ENCODING 12296
SWIDTH 1000 0
DWIDTH 16 0
BBX 6 14 9 -1
BITMAP
04
08
10
20
20
40
80
80
40
20
20
10
08
04
ENDCHAR
STARTCHAR 3009
ENCODING 12297
SWIDTH 1000 0
DWIDTH 16 0
BBX 6 14 1 -1
BITMAP
80
40
20
10
10
08
04
04
08
10
20
20
40
80
ENDCHAR
STARTCHAR 300A
ENCODING 12298
SWIDTH 1000 0
DWIDTH 16 0
BBX 6 14 9 -1
BITMAP
14
28
28
50
50
A0
A0
A0
A0
50
50
28
28
14
ENDCHAR
STARTCHAR 300B
ENCODING 12299
SWIDTH 1000 0
DWIDTH 16 0
BBX 6 14 1 -1
BITMAP
A0
A0
50
50
28
14
14
14
14
28
50
50
A0
A0
ENDCHAR
STARTCHAR 300C
ENCODING 12300
SWIDTH 1000 0
DWIDTH 16 0
BBX 4 12 11 1
BITMAP
F0
80
80
80
80
80
80
80
80
80
80
80
ENDCHAR
STARTCHAR 300D
ENCODING 12301
SWIDTH 1000 0
DWIDTH 16 0
BBX 4 12 1 -1
BITMAP
10
10
10
10
10
10
10
10
10
10
10
F0
ENDCHAR
STARTCHAR 300E
ENCODING 12302
SWIDTH 1000 0
DWIDTH 16 0
BBX 6 11 9 2
BITMAP
FC
84
BC
A0
A0
A0
A0
A0
A0
A0
A0
ENDCHAR
STARTCHAR 300F
ENCODING 12303
SWIDTH 1000 0
DWIDTH 16 0
BBX 6 11 1 -1
BITMAP
1C
14
14
14
14
14
14
14
F4
04
FC
ENDCHAR
STARTCHAR 3010
ENCODING 12304
SWIDTH 1000 0
DWIDTH 16 0
BBX 3 14 11 -1
BITMAP
E0
C0
C0
80
80
80
80
80
80
80
80
C0
C0
E0
ENDCHAR
STARTCHAR 3011
ENCODING 12305
SWIDTH 1000 0
DWIDTH 16 0
BBX 3 14 2 -1
BITMAP
E0
60
60
20
20
20
20
20
20
20
20
60
60
E0
ENDCHAR
STARTCHAR 3012
ENCODING 12306
SWIDTH 1000 0
DWIDTH 16 0
BBX 12 13 2 -1
BITMAP
FFF0
FFF0
0000
0000
FFF0
FFF0
0600
0600
0600
0600
0600
0600
0600
ENDCHAR
STARTCHAR 3013
ENCODING 12307
SWIDTH 1000 0
DWIDTH 16 0
BBX 12 7 2 3
BITMAP
FFF0
FFF0
FFF0
0000
0000
FFF0
FFF0
ENDCHAR
STARTCHAR 3014
ENCODING 12308
SWIDTH 1000 0
DWIDTH 16 0
BBX 4 14 11 -1
BITMAP
20
C0
80
80
80
80
80
80
80
80
80
80
C0
30
ENDCHAR
STARTCHAR 3015
ENCODING 12309
SWIDTH 1000 0
DWIDTH 16 0
BBX 4 14 1 -1
BITMAP
40
30
10
10
10
10
10
10
10
10
10
10
30
C0
ENDCHAR
STARTCHAR 3016
ENCODING 12310
SWIDTH 1000 0
DWIDTH 16 0
BBX 5 14 10 -1
BITMAP
F8
90
90
A0
A0
A0
A0
A0
A0
A0
A0
90
90
F8
ENDCHAR
STARTCHAR 3017
ENCODING 12311
SWIDTH 1000 0
DWIDTH 16 0
BBX 5 14 1 -1
BITMAP
F8
88
48
48
28
28
28
28
28
28
48
48
88
F8
ENDCHAR
STARTCHAR 3018
ENCODING 12312
SWIDTH 1000 0
DWIDTH 16 0
BBX 5 14 10 -1
BITMAP
18
68
90
A0
A0
A0
A0
A0
A0
A0
A0
98
48
38
ENDCHAR
STARTCHAR 3019
ENCODING 12313
SWIDTH 1000 0
DWIDTH 16 0
BBX 5 14 1 -1
BITMAP
C0
B0
48
28
28
28
28
28
28
28
28
C8
90
E0
ENDCHAR
STARTCHAR 301C
ENCODING 12316
SWIDTH 1000 0
DWIDTH 16 0
BBX 12 4 2 4
BITMAP
3800
CC10
0310
01E0
ENDCHAR
STARTCHAR 301D
ENCODING 12317
SWIDTH 1000 0
DWIDTH 16 0
BBX 4 6 11 8
BITMAP
80
40
30
80
60
10
ENDCHAR
STARTCHAR 301F
ENCODING 12319
SWIDTH 1000 0
DWIDTH 16 0
BBX 4 6 1 -1
BITMAP
80
60
10
C0
20
10
ENDCHAR
STARTCHAR 3020
ENCODING 12320
SWIDTH 1000 0
DWIDTH 16 0
BBX 15 10 0 1
BITMAP
3FF8
0000
3FF8
0100
9D72
9932
4924
2448
1390
0FE0
ENDCHAR
STARTCHAR 3033
ENCODING 12339
SWIDTH 1000 0
DWIDTH 16 0
BBX 6 13 4 -1
BITMAP
0C
04
08
08
10
10
20
20
40
40
40
80
80
ENDCHAR
STARTCHAR 3034
ENCODING 12340
SWIDTH 1000 0
DWIDTH 16 0
BBX 9 13 4 -1
BITMAP
0C00
0400
0800
0800
1000
1000
2000
2180
4380
4100
4000
8000
8000
ENDCHAR
STARTCHAR 3035
ENCODING 12341
SWIDTH 1000 0
DWIDTH 16 0
BBX 7 14 4 1
BITMAP
80
80
40
40
20
10
10
08
08
04
04
06
06
02
ENDCHAR
STARTCHAR 3036
ENCODING 12342
SWIDTH 1000 0
DWIDTH 16 0
BBX 15 15 0 -1
BITMAP
07C0
1830
2008
4004
5FF4
8002
8002
9FF2
8102
8102
4104
4104
2108
1830
07C0
ENDCHAR
STARTCHAR 303B
ENCODING 12347
SWIDTH 1000 0
DWIDTH 16 0
BBX 7 10 4 2
BITMAP
20
10
0C
10
20
30
18
06
18
E0
ENDCHAR
STARTCHAR 303C
ENCODING 12348
SWIDTH 1000 0
DWIDTH 16 0
BBX 14 14 1 -1
BITMAP
FFFC
800C
8014
8024
8044
8084
8104
8204
8404
8804
9004
A004
C004
FFFC
ENDCHAR
STARTCHAR 303D
ENCODING 12349
SWIDTH 1000 0
DWIDTH 16 0
BBX 11 14 3 -1
BITMAP
6000
A600
1A00
0200
0100
0100
0100
0080
0080
0080
0040
0040
0020
0020
ENDCHAR
STARTCHAR 3041
ENCODING 12353
SWIDTH 1000 0
DWIDTH 16 0
BBX 10 11 3 0
BITMAP
0800
0B00
7C00
1000
1F00
34C0
5440
9840
98C0
E980
0600
ENDCHAR
STARTCHAR 3042
ENCODING 12354
SWIDTH 1000 0
DWIDTH 16 0
BBX 12 14 2 -1
BITMAP
0800
0400
0980
7E00
0800
0B80
1D60
2A10
4A10
8C10
8810
F820
00C0
0100
ENDCHAR
STARTCHAR 3043
ENCODING 12355
SWIDTH 1000 0
DWIDTH 16 0
BBX 10 8 3 1
BITMAP
C000
8180
8080
8040
9040
5040
5000
3000
ENDCHAR
STARTCHAR 3044
ENCODING 12356
SWIDTH 1000 0
DWIDTH 16 0
BBX 12 11 2 1
BITMAP
8000
4080
8040
8020
8030
8010
8810
4800
5000
3000
1000
ENDCHAR
STARTCHAR 3045
ENCODING 12357
SWIDTH 1000 0
DWIDTH 16 0
BBX 7 11 4 0
BITMAP
20
1C
00
1C
E2
02
02
02
04
08
30
ENDCHAR
STARTCHAR 3046
ENCODING 12358
SWIDTH 1000 0
DWIDTH 16 0
BBX 8 14 4 -1
BITMAP
20
1E
20
00
1E
62
81
01
01
01
02
04
18
20
ENDCHAR
STARTCHAR 3047
ENCODING 12359
SWIDTH 1000 0
DWIDTH 16 0
BBX 10 10 3 1
BITMAP
1000
0E00
0800
4700
3E00
0C00
1C00
3200
6200
C3C0
ENDCHAR
STARTCHAR 3048
ENCODING 12360
SWIDTH 1000 0
DWIDTH 16 0
BBX 12 13 2 0
BITMAP
1000
0F00
0800
0000
4380
3D00
0200
0400
0E00
1100
2100
4100
80F0
ENDCHAR
STARTCHAR 3049
ENCODING 12361
SWIDTH 1000 0
DWIDTH 16 0
BBX 10 10 3 0
BITMAP
2000
1100
1CC0
7040
2000
2F80
3040
E040
A0C0
6780
ENDCHAR
STARTCHAR 304A
ENCODING 12362
SWIDTH 1000 0
DWIDTH 16 0
BBX 12 12 2 1
BITMAP
1000
1040
1630
F810
1000
1000
17E0
3830
5010
9030
D3E0
3000
ENDCHAR
STARTCHAR 304B
ENCODING 12363
SWIDTH 1000 0
DWIDTH 16 0
BBX 13 12 2 1
BITMAP
0800
0800
0840
1E20
F110
1108
2138
2108
4100
4200
CA00
8400
ENDCHAR
STARTCHAR 304C
ENCODING 12364
SWIDTH 1000 0
DWIDTH 16 0
BBX 14 13 2 1
BITMAP
0018
0834
0810
1040
1E20
F110
2108
2138
2108
4100
4200
D200
8C00
ENDCHAR
STARTCHAR 304D
ENCODING 12365
SWIDTH 1000 0
DWIDTH 16 0
BBX 10 13 3 0
BITMAP
3800
0800
0B80
7C00
04C0
8300
7E00
0100
3F80
6080
4000
6000
1F00
ENDCHAR
STARTCHAR 304E
ENCODING 12366
SWIDTH 1000 0
DWIDTH 16 0
BBX 13 15 3 -1
BITMAP
0020
3018
1868
0B20
FC00
04C0
0700
FE00
0200
0100
7F00
C000
8000
C300
3F00
ENDCHAR
STARTCHAR 304F
ENCODING 12367
SWIDTH 1000 0
DWIDTH 16 0
BBX 7 14 4 -1
BITMAP
04
02
04
18
20
40
80
C0
20
10
08
04
02
02
ENDCHAR
STARTCHAR 3050
ENCODING 12368
SWIDTH 1000 0
DWIDTH 16 0
BBX 10 14 4 -1
BITMAP
0400
0200
0400
18C0
2340
4080
8000
C000
6000
1000
0800
0400
0600
0200
ENDCHAR
STARTCHAR 3051
ENCODING 12369
SWIDTH 1000 0
DWIDTH 16 0
BBX 11 14 3 -1
BITMAP
0180
8080
4080
C080
DFE0
8080
8080
8080
C080
C080
8100
8100
8200
0400
ENDCHAR
STARTCHAR 3052
ENCODING 12370
SWIDTH 1000 0
DWIDTH 16 0
BBX 14 15 2 -1
BITMAP
0008
00A4
4050
4050
4040
4870
87C0
8040
8040
A040
A040
C080
C080
4100
0200
ENDCHAR
STARTCHAR 3053
ENCODING 12371
SWIDTH 1000 0
DWIDTH 16 0
BBX 10 10 3 2
BITMAP
3F00
0400
1800
0000
0000
0000
0000
8000
4000
3FC0
ENDCHAR
STARTCHAR 3054
ENCODING 12372
SWIDTH 1000 0
DWIDTH 16 0
BBX 12 13 3 1
BITMAP
0020
0010
0070
3F20
0400
1800
0000
0000
0000
0000
8000
4000
3FC0
ENDCHAR
STARTCHAR 3055
ENCODING 12373
SWIDTH 1000 0
DWIDTH 16 0
BBX 10 13 3 0
BITMAP
1800
0800
0440
0580
FE00
0200
0200
0100
7F80
8180
8000
4000
3F00
ENDCHAR
STARTCHAR 3056
ENCODING 12374
SWIDTH 1000 0
DWIDTH 16 0
BBX 13 14 3 0
BITMAP
0020
1858
0828
08E0
0B00
FC00
0400
0200
0200
7F00
8100
8000
4000
3F00
ENDCHAR
STARTCHAR 3057
ENCODING 12375
SWIDTH 1000 0
DWIDTH 16 0
BBX 9 12 4 1
BITMAP
C000
4000
4000
8000
8000
8000
8000
8080
8080
8100
C300
7C00
ENDCHAR
STARTCHAR 3058
ENCODING 12376
SWIDTH 1000 0
DWIDTH 16 0
BBX 9 12 4 1
BITMAP
C000
4300
4480
8200
8000
8000
8000
8080
8080
8100
C300
7C00
ENDCHAR
STARTCHAR 3059
ENCODING 12377
SWIDTH 1000 0
DWIDTH 16 0
BBX 14 14 1 -1
BITMAP
0100
0100
0100
87FC
7900
0100
0700
0880
0880
0780
0180
0100
0200
0C00
ENDCHAR
STARTCHAR 305A
ENCODING 12378
SWIDTH 1000 0
DWIDTH 16 0
BBX 14 15 1 -2
BITMAP
0008
0334
0108
0100
87FC
7900
0100
0700
0880
0880
0780
0180
0100
0200
0C00
ENDCHAR
STARTCHAR 305B
ENCODING 12379
SWIDTH 1000 0
DWIDTH 16 0
BBX 14 12 1 1
BITMAP
0060
1860
0840
085C
0FE0
F840
1040
1140
10C0
0800
0800
07F0
ENDCHAR
STARTCHAR 305C
ENCODING 12380
SWIDTH 1000 0
DWIDTH 16 0
BBX 16 14 0 0
BITMAP
0002
0009
0034
0C24
0420
042E
87F2
7820
0820
08A0
0860
0800
0400
03F8
ENDCHAR
STARTCHAR 305D
ENCODING 12381
SWIDTH 1000 0
DWIDTH 16 0
BBX 12 12 2 0
BITMAP
2180
3F00
0200
0400
08F0
3F00
F200
0400
0400
0400
0400
03C0
ENDCHAR
STARTCHAR 305E
ENCODING 12382
SWIDTH 1000 0
DWIDTH 16 0
BBX 13 14 2 0
BITMAP
0018
03A8
3D90
0200
0400
08F0
3F00
F400
0400
0800
0800
0800
0780
03C0
ENDCHAR
STARTCHAR 305F
ENCODING 12383
SWIDTH 1000 0
DWIDTH 16 0
BBX 12 13 2 0
BITMAP
1000
0800
0800
1600
F800
11E0
2280
2100
2000
4000
4400
C200
81F0
ENDCHAR
STARTCHAR 3060
ENCODING 12384
SWIDTH 1000 0
DWIDTH 16 0
BBX 13 13 2 0
BITMAP
0010
0848
0830
0A10
FC00
1000
13E0
2080
2000
4000
4400
C200
81F0
ENDCHAR
STARTCHAR 3061
ENCODING 12385
SWIDTH 1000 0
DWIDTH 16 0
BBX 11 14 2 -1
BITMAP
1000
0800
0800
1700
F800
1000
2000
27C0
3820
2020
0020
0040
0380
0400
ENDCHAR
STARTCHAR 3062
ENCODING 12386
SWIDTH 1000 0
DWIDTH 16 0
BBX 12 14 2 0
BITMAP
0020
1850
0820
1700
F800
1000
2000
27C0
3C20
3020
2020
0040
0180
0600
ENDCHAR
STARTCHAR 3063
ENCODING 12387
SWIDTH 1000 0
DWIDTH 16 0
BBX 10 7 3 -1
BITMAP
0F80
30C0
C040
0040
0080
0100
1E00
ENDCHAR
STARTCHAR 3064
ENCODING 12388
SWIDTH 1000 0
DWIDTH 16 0
BBX 12 9 2 1
BITMAP
07C0
3820
C010
0010
0010
0010
0020
00C0
0F00
ENDCHAR
STARTCHAR 3065
ENCODING 12389
SWIDTH 1000 0
DWIDTH 16 0
BBX 14 13 2 1
BITMAP
0018
0024
0010
07C0
3820
C010
0010
0010
0010
0020
00C0
0700
0800
ENDCHAR
STARTCHAR 3066
ENCODING 12390
SWIDTH 1000 0
DWIDTH 16 0
BBX 13 11 1 0
BITMAP
0078
8F80
7300
0200
0400
0400
0400
0400
0400
0200
01E0
ENDCHAR
STARTCHAR 3067
ENCODING 12391
SWIDTH 1000 0
DWIDTH 16 0
BBX 14 11 1 0
BITMAP
0078
8F80
7308
0224
0410
0400
0400
0400
0600
0200
01E0
ENDCHAR
STARTCHAR 3068
ENCODING 12392
SWIDTH 1000 0
DWIDTH 16 0
BBX 10 12 3 1
BITMAP
3000
1000
1100
1180
1600
0800
3000
4000
8000
8000
C0C0
7FC0
ENDCHAR
STARTCHAR 3069
ENCODING 12393
SWIDTH 1000 0
DWIDTH 16 0
BBX 12 13 3 1
BITMAP
0020
20D0
2020
2100
2080
1300
1C00
3000
4000
8000
8000
C000
7FC0
ENDCHAR
STARTCHAR 306A
ENCODING 12394
SWIDTH 1000 0
DWIDTH 16 0
BBX 12 13 2 0
BITMAP
1000
0800
0800
1E40
F030
2030
2080
4080
4080
C080
8FC0
10B0
0F10
ENDCHAR
STARTCHAR 306B
ENCODING 12395
SWIDTH 1000 0
DWIDTH 16 0
BBX 12 12 2 0
BITMAP
4000
4060
47C0
4100
8000
8000
8000
A000
C000
C400
C3F0
4000
ENDCHAR
STARTCHAR 306C
ENCODING 12396
SWIDTH 1000 0
DWIDTH 16 0
BBX 13 12 2 1
BITMAP
0200
0200
4380
5C60
2420
6410
A410
9810
99D0
9A30
E238
01C8
ENDCHAR
STARTCHAR 306D
ENCODING 12397
SWIDTH 1000 0
DWIDTH 16 0
BBX 14 13 1 0
BITMAP
1000
0800
0800
0CE0
7910
0E08
1808
3808
6808
C8E8
A918
191C
08E4
ENDCHAR
STARTCHAR 306E
ENCODING 12398
SWIDTH 1000 0
DWIDTH 16 0
BBX 12 11 2 0
BITMAP
0F80
3460
4420
4410
8C10
8810
8810
9020
F060
60C0
0300
ENDCHAR
STARTCHAR 306F
ENCODING 12399
SWIDTH 1000 0
DWIDTH 16 0
BBX 13 12 2 1
BITMAP
40C0
40C0
4080
4FF0
8080
8080
8080
A080
C780
C860
C898
4780
ENDCHAR
STARTCHAR 3070
ENCODING 12400
SWIDTH 1000 0
DWIDTH 16 0
BBX 14 13 2 0
BITMAP
002C
8094
4090
4080
40F0
8F80
8080
8080
A080
C080
C7E0
C8B0
C788
ENDCHAR
STARTCHAR 3071
ENCODING 12401
SWIDTH 1000 0
DWIDTH 16 0
BBX 13 13 2 0
BITMAP
0038
40A8
40B8
4080
4FF0
8080
8080
8080
A080
C780
C8F0
C898
4780
ENDCHAR
STARTCHAR 3072
ENCODING 12402
SWIDTH 1000 0
DWIDTH 16 0
BBX 13 12 2 0
BITMAP
0080
1880
F040
20A0
2060
4050
4048
4040
4040
4080
2180
1E00
ENDCHAR
STARTCHAR 3073
ENCODING 12403
SWIDTH 1000 0
DWIDTH 16 0
BBX 14 14 2 0
BITMAP
0010
000C
00B4
1890
F040
20C0
2060
4050
4048
4040
4040
4080
2180
1E00
ENDCHAR
STARTCHAR 3074
ENCODING 12404
SWIDTH 1000 0
DWIDTH 16 0
BBX 13 13 2 0
BITMAP
0038
00A8
18B8
F040
20C0
2060
4050
4048
4040
4040
4080
2180
1E00
ENDCHAR
STARTCHAR 3075
ENCODING 12405
SWIDTH 1000 0
DWIDTH 16 0
BBX 14 12 1 1
BITMAP
0400
0380
01C0
0300
0200
0200
0120
0898
108C
A044
4840
0780
ENDCHAR
STARTCHAR 3076
ENCODING 12406
SWIDTH 1000 0
DWIDTH 16 0
BBX 14 12 1 1
BITMAP
040C
0394
01C8
0300
0200
0200
0120
0898
108C
A044
4840
0780
ENDCHAR
STARTCHAR 3077
ENCODING 12407
SWIDTH 1000 0
DWIDTH 16 0
BBX 14 12 1 1
BITMAP
041C
0394
01DC
0300
0200
0200
0120
0898
108C
A044
4840
0780
ENDCHAR
STARTCHAR 3078
ENCODING 12408
SWIDTH 1000 0
DWIDTH 16 0
BBX 14 8 1 2
BITMAP
0600
0A00
1100
10C0
A060
4030
001C
000C
ENDCHAR
STARTCHAR 3079
ENCODING 12409
SWIDTH 1000 0
DWIDTH 16 0
BBX 14 10 1 2
BITMAP
0030
0048
0020
0620
0900
1080
A040
4030
0018
000C
ENDCHAR
STARTCHAR 307A
ENCODING 12410
SWIDTH 1000 0
DWIDTH 16 0
BBX 14 10 1 2
BITMAP
0020
0050
0050
0620
0900
1080
A040
4030
0018
000C
ENDCHAR
STARTCHAR 307B
ENCODING 12411
SWIDTH 1000 0
DWIDTH 16 0
BBX 13 12 2 1
BITMAP
4030
47C0
4080
4080
88F0
8780
8080
A080
C780
C8F0
C898
4780
ENDCHAR
STARTCHAR 307C
ENCODING 12412
SWIDTH 1000 0
DWIDTH 16 0
BBX 14 15 2 -1
BITMAP
0008
0024
8010
47D0
4080
4080
88B0
87C0
8080
A080
C080
C7C0
88B0
8780
8000
ENDCHAR
STARTCHAR 307D
ENCODING 12413
SWIDTH 1000 0
DWIDTH 16 0
BBX 14 14 2 0
BITMAP
0008
0014
8014
47C8
4080
4080
88B0
87C0
8080
A080
C080
87E0
8890
8780
ENDCHAR
STARTCHAR 307E
ENCODING 12414
SWIDTH 1000 0
DWIDTH 16 0
BBX 10 13 3 0
BITMAP
0800
0400
0400
FFC0
0800
0800
7F80
0400
0400
0400
7E00
8580
7840
ENDCHAR
STARTCHAR 307F
ENCODING 12415
SWIDTH 1000 0
DWIDTH 16 0
BBX 13 13 2 -1
BITMAP
0600
3A00
0400
0440
0420
0820
7FA0
9060
9070
A088
C080
0300
0400
ENDCHAR
STARTCHAR 3080
ENCODING 12416
SWIDTH 1000 0
DWIDTH 16 0
BBX 13 13 2 0
BITMAP
3000
1000
1600
FC20
1010
1008
7078
9000
9040
F040
2020
2060
1FC0
ENDCHAR
STARTCHAR 3081
ENCODING 12417
SWIDTH 1000 0
DWIDTH 16 0
BBX 12 12 2 0
BITMAP
0200
4200
43C0
3E60
2430
6410
A410
9810
8810
9420
E040
0380
ENDCHAR
STARTCHAR 3082
ENCODING 12418
SWIDTH 1000 0
DWIDTH 16 0
BBX 10 13 3 0
BITMAP
2000
1000
1000
1200
FC00
2000
2000
EE80
3040
2040
2040
3080
1F00
ENDCHAR
STARTCHAR 3083
ENCODING 12419
SWIDTH 1000 0
DWIDTH 16 0
BBX 10 11 3 0
BITMAP
0C00
6200
2780
3840
7040
D040
0B80
0800
0800
0400
0400
ENDCHAR
STARTCHAR 3084
ENCODING 12420
SWIDTH 1000 0
DWIDTH 16 0
BBX 14 14 1 -1
BITMAP
0200
0180
1080
10F8
0B0C
0C04
B804
440C
04F8
0200
0200
0200
0100
0100
ENDCHAR
STARTCHAR 3085
ENCODING 12421
SWIDTH 1000 0
DWIDTH 16 0
BBX 10 10 3 0
BITMAP
0400
4200
4F80
9240
A240
A240
C240
CC80
4700
0800
ENDCHAR
STARTCHAR 3086
ENCODING 12422
SWIDTH 1000 0
DWIDTH 16 0
BBX 12 14 2 -1
BITMAP
0700
0100
C100
47C0
8920
9110
A110
A110
C110
C920
47C0
0200
0400
0800
ENDCHAR
STARTCHAR 3087
ENCODING 12423
SWIDTH 1000 0
DWIDTH 16 0
BBX 8 10 4 0
BITMAP
18
08
10
0F
10
10
10
78
8E
71
ENDCHAR
STARTCHAR 3088
ENCODING 12424
SWIDTH 1000 0
DWIDTH 16 0
BBX 10 13 3 0
BITMAP
1C00
0C00
0C00
0800
07C0
0800
0800
0800
0800
7C00
8700
8480
7840
ENDCHAR
STARTCHAR 3089
ENCODING 12425
SWIDTH 1000 0
DWIDTH 16 0
BBX 9 13 4 0
BITMAP
3000
1C00
0000
0000
8000
8000
8F00
B080
C080
8080
0100
0E00
3000
ENDCHAR
STARTCHAR 308A
ENCODING 12426
SWIDTH 1000 0
DWIDTH 16 0
BBX 7 13 5 0
BITMAP
80
9C
A4
C2
C2
82
82
82
02
04
08
10
60
ENDCHAR
STARTCHAR 308B
ENCODING 12427
SWIDTH 1000 0
DWIDTH 16 0
BBX 10 12 3 1
BITMAP
4700
3A00
0400
0800
1000
2F00
7080
C040
8040
3840
2480
3F00
ENDCHAR
STARTCHAR 308C
ENCODING 12428
SWIDTH 1000 0
DWIDTH 16 0
BBX 14 13 1 0
BITMAP
1000
0800
0800
08E0
7920
0E20
1820
2820
6820
4824
A824
1838
0800
ENDCHAR
STARTCHAR 308D
ENCODING 12429
SWIDTH 1000 0
DWIDTH 16 0
BBX 11 13 2 -1
BITMAP
0380
3D00
0200
0400
0800
1780
3860
4020
8020
0020
0040
0380
0C00
ENDCHAR
STARTCHAR 308E
ENCODING 12430
SWIDTH 1000 0
DWIDTH 16 0
BBX 10 11 3 -1
BITMAP
3000
1000
2000
D780
28C0
3040
6040
A040
E080
2700
2000
ENDCHAR
STARTCHAR 308F
ENCODING 12431
SWIDTH 1000 0
DWIDTH 16 0
BBX 13 13 1 0
BITMAP
1000
0800
0800
0800
7DE0
0A10
0C08
1808
2808
4808
A810
1860
0880
ENDCHAR
STARTCHAR 3090
ENCODING 12432
SWIDTH 1000 0
DWIDTH 16 0
BBX 12 13 2 -1
BITMAP
2300
1E00
0200
0200
07C0
1C60
2810
4810
8810
9390
A260
C260
01C0
ENDCHAR
STARTCHAR 3091
ENCODING 12433
SWIDTH 1000 0
DWIDTH 16 0
BBX 14 13 1 0
BITMAP
11C0
0F00
0600
0BC0
1C20
2F20
0960
0780
0400
1870
3C8C
E304
0300
ENDCHAR
STARTCHAR 3092
ENCODING 12434
SWIDTH 1000 0
DWIDTH 16 0
BBX 11 13 2 0
BITMAP
0C00
0400
0900
7E00
1000
2C20
3260
C380
8600
0A00
1200
1000
0FE0
ENDCHAR
STARTCHAR 3093
ENCODING 12435
SWIDTH 1000 0
DWIDTH 16 0
BBX 12 12 2 1
BITMAP
0400
0200
0400
0800
0800
1000
2C00
3210
6210
4210
8220
81C0
ENDCHAR
STARTCHAR 3094
ENCODING 12436
SWIDTH 1000 0
DWIDTH 16 0
BBX 12 14 3 0
BITMAP
2020
1C90
1240
0000
0F00
B100
C080
0080
0080
0080
0100
0200
0C00
3000
ENDCHAR
STARTCHAR 3095
ENCODING 12437
SWIDTH 1000 0
DWIDTH 16 0
BBX 11 10 3 0
BITMAP
1000
1000
1000
3C80
E440
2420
44E0
4400
C800
9800
ENDCHAR
STARTCHAR 3096
ENCODING 12438
SWIDTH 1000 0
DWIDTH 16 0
BBX 9 11 4 0
BITMAP
0200
8200
8200
9F80
8200
8200
C200
C200
8400
8400
0800
ENDCHAR
STARTCHAR 3099
ENCODING 12441
SWIDTH 1000 0
DWIDTH 16 0
BBX 3 3 12 11
BITMAP
60
A0
40
ENDCHAR
STARTCHAR 309A
ENCODING 12442
SWIDTH 1000 0
DWIDTH 16 0
BBX 3 3 12 10
BITMAP
E0
A0
E0
ENDCHAR
STARTCHAR 309B
ENCODING 12443
SWIDTH 1000 0
DWIDTH 16 0
BBX 4 3 1 11
BITMAP
60
D0
40
ENDCHAR
STARTCHAR 309C
ENCODING 12444
SWIDTH 1000 0
DWIDTH 16 0
BBX 3 3 1 10
BITMAP
E0
A0
E0
ENDCHAR
STARTCHAR 309D
ENCODING 12445
SWIDTH 1000 0
DWIDTH 16 0
BBX 6 9 5 1
BITMAP
80
80
40
20
30
18
0C
1C
60
ENDCHAR
STARTCHAR 309E
ENCODING 12446
SWIDTH 1000 0
DWIDTH 16 0
BBX 8 10 5 2
BITMAP
02
89
44
40
30
18
0C
1C
20
40
ENDCHAR
STARTCHAR 309F
ENCODING 12447
SWIDTH 1000 0
DWIDTH 16 0
BBX 10 14 3 0
BITMAP
0400
0400
0FC0
0800
1000
2000
2E00
7100
C100
8100
0100
4200
2400
3800
ENDCHAR
STARTCHAR 30A0
ENCODING 12448
SWIDTH 1000 0
DWIDTH 16 0
BBX 8 4 4 4
BITMAP
FF
00
00
FF
ENDCHAR
STARTCHAR 30A1
ENCODING 12449
SWIDTH 1000 0
DWIDTH 16 0
BBX 10 10 3 -1
BITMAP
8FC0
7180
0300
0C00
0400
0800
0800
1000
1000
2000
ENDCHAR
STARTCHAR 30A2
ENCODING 12450
SWIDTH 1000 0
DWIDTH 16 0
BBX 11 13 3 -1
BITMAP
00E0
FF60
0080
0100
0E00
0400
0400
0800
0800
0800
1000
2000
4000
ENDCHAR
STARTCHAR 30A3
ENCODING 12451
SWIDTH 1000 0
DWIDTH 16 0
BBX 8 9 3 1
BITMAP
01
02
0C
1C
64
84
04
04
04
ENDCHAR
STARTCHAR 30A4
ENCODING 12452
SWIDTH 1000 0
DWIDTH 16 0
BBX 10 12 2 1
BITMAP
0040
0080
0100
0200
0E00
1200
6200
8200
0200
0200
0200
0200
ENDCHAR
STARTCHAR 30A5
ENCODING 12453
SWIDTH 1000 0
DWIDTH 16 0
BBX 8 11 4 -1
BITMAP
18
08
8F
F1
82
82
02
04
08
10
20
ENDCHAR
STARTCHAR 30A6
ENCODING 12454
SWIDTH 1000 0
DWIDTH 16 0
BBX 10 13 3 -1
BITMAP
0800
0C00
0400
DFC0
6040
4080
4080
4080
0100
0100
0200
0400
1800
ENDCHAR
STARTCHAR 30A7
ENCODING 12455
SWIDTH 1000 0
DWIDTH 16 0
BBX 10 7 3 1
BITMAP
0180
7E00
0800
0800
0800
0800
FFC0
ENDCHAR
STARTCHAR 30A8
ENCODING 12456
SWIDTH 1000 0
DWIDTH 16 0
BBX 13 8 2 3
BITMAP
7FE0
0400
0400
0400
0400
0400
0438
FBC8
ENDCHAR
STARTCHAR 30A9
ENCODING 12457
SWIDTH 1000 0
DWIDTH 16 0
BBX 10 10 3 -1
BITMAP
0600
0200
0200
7FC0
0A00
0A00
1200
2200
4A00
8600
ENDCHAR
STARTCHAR 30AA
ENCODING 12458
SWIDTH 1000 0
DWIDTH 16 0
BBX 12 13 2 0
BITMAP
0200
0100
0100
0130
7FF0
0300
0500
0500
0980
1180
2080
C380
0080
ENDCHAR
STARTCHAR 30AB
ENCODING 12459
SWIDTH 1000 0
DWIDTH 16 0
BBX 12 13 2 0
BITMAP
0400
0200
0200
0220
87F0
7C20
0420
0820
0820
1040
2240
4180
8080
ENDCHAR
STARTCHAR 30AC
ENCODING 12460
SWIDTH 1000 0
DWIDTH 16 0
BBX 14 14 2 -1
BITMAP
0010
000C
0634
0210
0200
87F0
7C20
0420
0820
0840
1040
3040
6380
8080
ENDCHAR
STARTCHAR 30AD
ENCODING 12461
SWIDTH 1000 0
DWIDTH 16 0
BBX 12 13 2 0
BITMAP
0C00
0400
04E0
8F00
7400
0230
03C0
FE00
0200
0200
0100
0100
0100
ENDCHAR
STARTCHAR 30AE
ENCODING 12462
SWIDTH 1000 0
DWIDTH 16 0
BBX 13 15 2 -1
BITMAP
0010
0008
0C38
0410
04C0
8F00
7400
0430
03C0
FE00
0200
0200
0100
0100
0100
ENDCHAR
STARTCHAR 30AF
ENCODING 12463
SWIDTH 1000 0
DWIDTH 16 0
BBX 10 12 3 0
BITMAP
0C00
08C0
0FC0
1080
2080
4100
8200
0200
0400
0800
3000
C000
ENDCHAR
STARTCHAR 30B0
ENCODING 12464
SWIDTH 1000 0
DWIDTH 16 0
BBX 13 15 3 -1
BITMAP
0020
0018
0868
0820
1FC0
10C0
2080
4100
8300
0200
0400
0800
3000
4000
8000
ENDCHAR
STARTCHAR 30B1
ENCODING 12465
SWIDTH 1000 0
DWIDTH 16 0
BBX 12 12 2 0
BITMAP
1800
0800
1030
1FC0
2100
4100
8100
0200
0200
0400
0800
1000
ENDCHAR
STARTCHAR 30B2
ENCODING 12466
SWIDTH 1000 0
DWIDTH 16 0
BBX 14 14 2 -1
BITMAP
0010
000C
1834
0810
1030
1FD0
2100
4100
8200
0200
0200
0400
0800
1000
ENDCHAR
STARTCHAR 30B3
ENCODING 12467
SWIDTH 1000 0
DWIDTH 16 0
BBX 10 8 3 3
BITMAP
7FC0
00C0
0080
0080
0080
0080
0080
FFC0
ENDCHAR
STARTCHAR 30B4
ENCODING 12468
SWIDTH 1000 0
DWIDTH 16 0
BBX 13 12 3 2
BITMAP
0030
0048
0020
80C0
7FC0
0080
0080
0080
0080
0080
8780
7800
ENDCHAR
STARTCHAR 30B5
ENCODING 12469
SWIDTH 1000 0
DWIDTH 16 0
BBX 13 13 1 -1
BITMAP
0080
1840
0840
0840
8878
7FC0
0840
0840
0880
0080
0080
0100
0600
ENDCHAR
STARTCHAR 30B6
ENCODING 12470
SWIDTH 1000 0
DWIDTH 16 0
BBX 14 15 2 -1
BITMAP
0010
000C
31B4
1090
1080
10F0
FF80
1080
1080
1080
0100
0100
0200
0C00
1000
ENDCHAR
STARTCHAR 30B7
ENCODING 12471
SWIDTH 1000 0
DWIDTH 16 0
BBX 12 12 2 0
BITMAP
3000
0C00
0400
C010
3010
1020
0040
0080
0100
0200
4C00
3000
ENDCHAR
STARTCHAR 30B8
ENCODING 12472
SWIDTH 1000 0
DWIDTH 16 0
BBX 12 13 3 1
BITMAP
0020
00D0
3020
0800
0020
C020
2040
0080
0100
0200
0400
9800
6000
ENDCHAR
STARTCHAR 30B9
ENCODING 12473
SWIDTH 1000 0
DWIDTH 16 0
BBX 12 10 2 1
BITMAP
40C0
3F80
0180
0100
0200
0600
0D80
1860
2030
C010
ENDCHAR
STARTCHAR 30BA
ENCODING 12474
SWIDTH 1000 0
DWIDTH 16 0
BBX 13 14 2 0
BITMAP
0010
0048
0038
01D0
3E80
0180
0100
0300
0200
0580
0840
3030
4010
8000
ENDCHAR
STARTCHAR 30BB
ENCODING 12475
SWIDTH 1000 0
DWIDTH 16 0
BBX 12 11 2 1
BITMAP
1800
0800
0800
0870
0FE0
F840
0880
0900
0800
0800
07E0
ENDCHAR
STARTCHAR 30BC
ENCODING 12476
SWIDTH 1000 0
DWIDTH 16 0
BBX 13 12 2 2
BITMAP
0018
1838
0810
0800
0870
0FF0
F840
0880
0900
0800
0800
07E0
ENDCHAR
STARTCHAR 30BD
ENCODING 12477
SWIDTH 1000 0
DWIDTH 16 0
BBX 10 12 3 -1
BITMAP
0080
8040
4040
2080
2080
0100
0100
0200
0400
0400
1800
2000
ENDCHAR
STARTCHAR 30BE
ENCODING 12478
SWIDTH 1000 0
DWIDTH 16 0
BBX 13 15 3 -1
BITMAP
0010
0048
0020
80C0
4040
6080
2080
0080
0100
0200
0200
0400
0800
1000
6000
ENDCHAR
STARTCHAR 30BF
ENCODING 12479
SWIDTH 1000 0
DWIDTH 16 0
BBX 10 12 3 0
BITMAP
0800
08C0
1FC0
3080
2080
4900
8600
0300
0580
1880
2000
C000
ENDCHAR
STARTCHAR 30C0
ENCODING 12480
SWIDTH 1000 0
DWIDTH 16 0
BBX 13 14 3 -1
BITMAP
0020
0058
0828
08A0
1FC0
1080
2180
5100
8E00
0200
0500
1880
2000
C000
ENDCHAR
STARTCHAR 30C1
ENCODING 12481
SWIDTH 1000 0
DWIDTH 16 0
BBX 12 13 2 -1
BITMAP
0080
0040
0780
7A00
0200
0230
FFC0
0200
0200
0400
0400
0800
3000
ENDCHAR
STARTCHAR 30C2
ENCODING 12482
SWIDTH 1000 0
DWIDTH 16 0
BBX 14 14 2 0
BITMAP
002C
0054
0390
7E00
0200
0230
FFF0
0200
0200
0400
0400
0800
1000
2000
ENDCHAR
STARTCHAR 30C3
ENCODING 12483
SWIDTH 1000 0
DWIDTH 16 0
BBX 9 10 4 -1
BITMAP
2100
9080
D100
4100
0200
0400
0400
0800
3000
4000
ENDCHAR
STARTCHAR 30C4
ENCODING 12484
SWIDTH 1000 0
DWIDTH 16 0
BBX 11 11 3 0
BITMAP
1060
8820
C840
4840
0080
0080
0100
0200
0400
1800
2000
ENDCHAR
STARTCHAR 30C5
ENCODING 12485
SWIDTH 1000 0
DWIDTH 16 0
BBX 14 14 2 0
BITMAP
0008
0024
0010
0840
8820
4420
6440
2040
0080
0080
0100
0200
0400
1800
ENDCHAR
STARTCHAR 30C6
ENCODING 12486
SWIDTH 1000 0
DWIDTH 16 0
BBX 12 12 2 -1
BITMAP
00C0
3F00
0000
0000
80F0
7F00
0200
0200
0400
0400
0800
1000
ENDCHAR
STARTCHAR 30C7
ENCODING 12487
SWIDTH 1000 0
DWIDTH 16 0
BBX 14 15 2 -1
BITMAP
0010
000C
00F4
3F10
0000
0000
00F0
FF00
0200
0200
0400
0400
0800
1000
2000
ENDCHAR
STARTCHAR 30C8
ENCODING 12488
SWIDTH 1000 0
DWIDTH 16 0
BBX 7 14 5 -1
BITMAP
80
40
40
40
40
60
58
46
42
40
40
40
40
40
ENDCHAR
STARTCHAR 30C9
ENCODING 12489
SWIDTH 1000 0
DWIDTH 16 0
BBX 8 13 6 0
BITMAP
83
8D
84
80
C0
B0
8C
84
80
80
80
80
80
ENDCHAR
STARTCHAR 30CA
ENCODING 12490
SWIDTH 1000 0
DWIDTH 16 0
BBX 12 13 2 0
BITMAP
0200
0200
0200
0230
FFD0
0200
0200
0200
0400
0400
0800
1000
2000
ENDCHAR
STARTCHAR 30CB
ENCODING 12491
SWIDTH 1000 0
DWIDTH 16 0
BBX 13 8 2 2
BITMAP
01C0
3E00
0000
0000
0000
0000
00F8
FF00
ENDCHAR
STARTCHAR 30CC
ENCODING 12492
SWIDTH 1000 0
DWIDTH 16 0
BBX 11 12 2 0
BITMAP
0040
3FE0
00C0
0080
1080
0D00
0300
02C0
0460
1820
2000
C000
ENDCHAR
STARTCHAR 30CD
ENCODING 12493
SWIDTH 1000 0
DWIDTH 16 0
BBX 12 14 2 -1
BITMAP
0C00
0600
0200
01C0
3EC0
0100
0200
0680
1A60
2230
C210
0200
0200
0200
ENDCHAR
STARTCHAR 30CE
ENCODING 12494
SWIDTH 1000 0
DWIDTH 16 0
BBX 9 12 3 0
BITMAP
0100
0080
0080
0100
0100
0200
0400
0400
0800
1000
6000
8000
ENDCHAR
STARTCHAR 30CF
ENCODING 12495
SWIDTH 1000 0
DWIDTH 16 0
BBX 13 8 1 1
BITMAP
0080
0C40
0420
0810
1010
1008
2008
C000
ENDCHAR
STARTCHAR 30D0
ENCODING 12496
SWIDTH 1000 0
DWIDTH 16 0
BBX 14 11 1 2
BITMAP
0008
0024
0010
0C40
0420
0820
0810
1018
2008
4008
8000
ENDCHAR
STARTCHAR 30D1
ENCODING 12497
SWIDTH 1000 0
DWIDTH 16 0
BBX 14 12 1 1
BITMAP
0018
0024
0024
0018
0C40
0420
0820
0810
1018
2008
4008
8000
ENDCHAR
STARTCHAR 30D2
ENCODING 12498
SWIDTH 1000 0
DWIDTH 16 0
BBX 10 11 3 1
BITMAP
8000
4000
4080
4180
4200
4C00
7000
4000
4000
4000
3FC0
ENDCHAR
STARTCHAR 30D3
ENCODING 12499
SWIDTH 1000 0
DWIDTH 16 0
BBX 12 13 3 1
BITMAP
0020
0050
C020
4100
4080
4300
4C00
7000
4000
4000
4000
40C0
3FC0
ENDCHAR
STARTCHAR 30D4
ENCODING 12500
SWIDTH 1000 0
DWIDTH 16 0
BBX 12 13 3 0
BITMAP
0070
0050
C070
4100
4180
4300
4C00
7000
4000
4000
4000
40C0
3FC0
ENDCHAR
STARTCHAR 30D5
ENCODING 12501
SWIDTH 1000 0
DWIDTH 16 0
BBX 10 11 3 0
BITMAP
01C0
FE40
0080
0080
0100
0100
0200
0400
0800
1000
6000
ENDCHAR
STARTCHAR 30D6
ENCODING 12502
SWIDTH 1000 0
DWIDTH 16 0
BBX 13 14 3 -1
BITMAP
0010
0048
0020
01E0
FEC0
0080
0080
0100
0100
0200
0400
0800
1000
6000
ENDCHAR
STARTCHAR 30D7
ENCODING 12503
SWIDTH 1000 0
DWIDTH 16 0
BBX 13 14 3 -1
BITMAP
0010
0028
0028
01D0
FE40
0080
0080
0100
0100
0200
0400
0800
1000
6000
ENDCHAR
STARTCHAR 30D8
ENCODING 12504
SWIDTH 1000 0
DWIDTH 16 0
BBX 14 6 1 3
BITMAP
0600
0900
10C0
A060
4010
000C
ENDCHAR
STARTCHAR 30D9
ENCODING 12505
SWIDTH 1000 0
DWIDTH 16 0
BBX 14 9 1 3
BITMAP
0058
0028
0610
0900
1080
A060
4030
001C
0004
ENDCHAR
STARTCHAR 30DA
ENCODING 12506
SWIDTH 1000 0
DWIDTH 16 0
BBX 14 10 1 2
BITMAP
0030
0048
0048
0630
0900
1080
A060
4030
001C
0004
ENDCHAR
STARTCHAR 30DB
ENCODING 12507
SWIDTH 1000 0
DWIDTH 16 0
BBX 12 12 2 1
BITMAP
0600
0200
0200
87F0
7A00
0200
2240
2220
4210
8210
0E00
0200
ENDCHAR
STARTCHAR 30DC
ENCODING 12508
SWIDTH 1000 0
DWIDTH 16 0
BBX 14 13 2 1
BITMAP
0018
0624
0210
0200
83F0
7E00
0200
2240
2220
4210
C210
8E00
0200
ENDCHAR
STARTCHAR 30DD
ENCODING 12509
SWIDTH 1000 0
DWIDTH 16 0
BBX 13 13 2 0
BITMAP
0038
0628
0238
0200
83F0
7E00
0200
2240
2220
4210
C210
8E00
0200
ENDCHAR
STARTCHAR 30DE
ENCODING 12510
SWIDTH 1000 0
DWIDTH 16 0
BBX 12 9 2 2
BITMAP
80F0
7F30
0040
0080
1100
0E00
0200
0300
0100
ENDCHAR
STARTCHAR 30DF
ENCODING 12511
SWIDTH 1000 0
DWIDTH 16 0
BBX 8 12 4 0
BITMAP
40
3C
02
00
70
0C
04
00
E0
1C
07
01
ENDCHAR
STARTCHAR 30E0
ENCODING 12512
SWIDTH 1000 0
DWIDTH 16 0
BBX 12 12 2 1
BITMAP
0400
0200
0400
0400
0800
0800
1080
1040
2020
47F0
F830
0010
ENDCHAR
STARTCHAR 30E1
ENCODING 12513
SWIDTH 1000 0
DWIDTH 16 0
BBX 10 12 2 1
BITMAP
00C0
0040
0080
0080
1900
0700
0380
04C0
0840
1000
2000
C000
ENDCHAR
STARTCHAR 30E2
ENCODING 12514
SWIDTH 1000 0
DWIDTH 16 0
BBX 12 10 2 1
BITMAP
01C0
7E00
0800
0800
09F0
FE00
0800
0800
0800
07E0
ENDCHAR
STARTCHAR 30E3
ENCODING 12515
SWIDTH 1000 0
DWIDTH 16 0
BBX 10 11 3 -1
BITMAP
3000
1000
10C0
0F80
F900
0A00
0800
0800
0400
0400
0400
ENDCHAR
STARTCHAR 30E4
ENCODING 12516
SWIDTH 1000 0
DWIDTH 16 0
BBX 12 13 2 0
BITMAP
1800
0800
0830
0BE0
FC40
0840
0480
0400
0400
0400
0200
0200
0200
ENDCHAR
STARTCHAR 30E5
ENCODING 12517
SWIDTH 1000 0
DWIDTH 16 0
BBX 10 7 3 2
BITMAP
7F00
0100
0100
0100
0200
03C0
FC00
ENDCHAR
STARTCHAR 30E6
ENCODING 12518
SWIDTH 1000 0
DWIDTH 16 0
BBX 13 8 2 3
BITMAP
43C0
3CC0
0080
0080
0080
0080
0098
FF78
ENDCHAR
STARTCHAR 30E7
ENCODING 12519
SWIDTH 1000 0
DWIDTH 16 0
BBX 8 8 4 1
BITMAP
03
7D
02
02
7E
02
02
FF
ENDCHAR
STARTCHAR 30E8
ENCODING 12520
SWIDTH 1000 0
DWIDTH 16 0
BBX 10 10 3 1
BITMAP
80C0
7FC0
0080
0080
4380
3C80
0080
0080
8080
7F00
ENDCHAR
STARTCHAR 30E9
ENCODING 12521
SWIDTH 1000 0
DWIDTH 16 0
BBX 10 13 3 -1
BITMAP
4180
3F80
0000
01C0
FEC0
0080
0080
0100
0200
0600
0800
1000
2000
ENDCHAR
STARTCHAR 30EA
ENCODING 12522
SWIDTH 1000 0
DWIDTH 16 0
BBX 7 13 4 -1
BITMAP
04
82
42
42
42
42
42
42
02
04
04
08
30
ENDCHAR
STARTCHAR 30EB
ENCODING 12523
SWIDTH 1000 0
DWIDTH 16 0
BBX 14 12 1 0
BITMAP
0200
0100
1900
0900
0900
0904
1108
1110
1120
21C0
4100
8000
ENDCHAR
STARTCHAR 30EC
ENCODING 12524
SWIDTH 1000 0
DWIDTH 16 0
BBX 11 12 3 0
BITMAP
C000
6000
6000
6000
4020
4040
4080
4100
4600
5C00
7000
6000
ENDCHAR
STARTCHAR 30ED
ENCODING 12525
SWIDTH 1000 0
DWIDTH 16 0
BBX 10 9 3 2
BITMAP
FFC0
80C0
4080
4080
4080
4080
4080
7FC0
4000
ENDCHAR
STARTCHAR 30EE
ENCODING 12526
SWIDTH 1000 0
DWIDTH 16 0
BBX 8 10 4 -1
BITMAP
83
FD
82
82
82
04
04
08
10
20
ENDCHAR
STARTCHAR 30EF
ENCODING 12527
SWIDTH 1000 0
DWIDTH 16 0
BBX 10 11 3 0
BITMAP
FFC0
4040
4080
4080
4080
4100
0100
0200
0400
0800
1000
ENDCHAR
STARTCHAR 30F0
ENCODING 12528
SWIDTH 1000 0
DWIDTH 16 0
BBX 12 14 2 -1
BITMAP
0200
0100
0100
0160
7F80
1100
1100
1100
FFF0
0100
0100
0100
0100
0100
ENDCHAR
STARTCHAR 30F1
ENCODING 12529
SWIDTH 1000 0
DWIDTH 16 0
BBX 13 9 2 1
BITMAP
4060
3FE0
0080
0500
0200
0400
0400
0400
FFF8
ENDCHAR
STARTCHAR 30F2
ENCODING 12530
SWIDTH 1000 0
DWIDTH 16 0
BBX 10 11 3 0
BITMAP
7FC0
0040
0080
8380
7C80
0100
0100
0200
0400
0800
3000
ENDCHAR
STARTCHAR 30F3
ENCODING 12531
SWIDTH 1000 0
DWIDTH 16 0
BBX 11 11 3 1
BITMAP
C000
3000
1020
0040
0040
0080
0100
0200
0C00
9000
6000
ENDCHAR
STARTCHAR 30F4
ENCODING 12532
SWIDTH 1000 0
DWIDTH 16 0
BBX 13 14 3 -1
BITMAP
0020
0010
0868
0820
8FC0
F0C0
4080
4080
C080
0100
0100
0200
0400
1800
ENDCHAR
STARTCHAR 30F5
ENCODING 12533
SWIDTH 1000 0
DWIDTH 16 0
BBX 10 11 3 -1
BITMAP
0800
0400
0400
7FC0
0880
0880
1080
1100
2500
4300
8000
ENDCHAR
STARTCHAR 30F6
ENCODING 12534
SWIDTH 1000 0
DWIDTH 16 0
BBX 10 11 3 -1
BITMAP
2000
1000
21C0
3E00
4200
8400
0400
0400
0800
1000
2000
ENDCHAR
STARTCHAR 30F7
ENCODING 12535
SWIDTH 1000 0
DWIDTH 16 0
BBX 14 15 2 -1
BITMAP
0008
0024
0010
C0F0
7F60
4040
4040
4040
4080
0080
0100
0200
0400
0800
1000
ENDCHAR
STARTCHAR 30F8
ENCODING 12536
SWIDTH 1000 0
DWIDTH 16 0
BBX 15 15 1 -1
BITMAP
0008
0016
008A
0088
00B0
3FC0
0880
0880
0880
8BF8
7480
0080
0080
0080
0080
ENDCHAR
STARTCHAR 30F9
ENCODING 12537
SWIDTH 1000 0
DWIDTH 16 0
BBX 15 13 1 1
BITMAP
0008
0006
001A
0038
3FF0
0040
0080
0300
0200
0200
0200
87F8
7800
ENDCHAR
STARTCHAR 30FA
ENCODING 12538
SWIDTH 1000 0
DWIDTH 16 0
BBX 13 14 3 -1
BITMAP
0010
0048
0020
80E0
7F80
0080
0080
FF00
0100
0200
0200
0400
0800
3000
ENDCHAR
STARTCHAR 30FB
ENCODING 12539
SWIDTH 1000 0
DWIDTH 16 0
BBX 2 2 7 5
BITMAP
C0
C0
ENDCHAR
STARTCHAR 30FC
ENCODING 12540
SWIDTH 1000 0
DWIDTH 16 0
BBX 13 2 1 6
BITMAP
8078
7F80
ENDCHAR
STARTCHAR 30FD
ENCODING 12541
SWIDTH 1000 0
DWIDTH 16 0
BBX 6 6 5 4
BITMAP
C0
20
10
08
0C
04
ENDCHAR
STARTCHAR 30FE
ENCODING 12542
SWIDTH 1000 0
DWIDTH 16 0
BBX 8 9 5 3
BITMAP
02
09
84
40
20
30
10
08
08
ENDCHAR
STARTCHAR 30FF
ENCODING 12543
SWIDTH 1000 0
DWIDTH 16 0
BBX 10 13 3 -1
BITMAP
00C0
FF80
0080
0080
0080
0080
0080
0080
0080
0080
0080
0080
0080
ENDCHAR
STARTCHAR 31F0
ENCODING 12784
SWIDTH 1000 0
DWIDTH 16 0
BBX 8 10 4 0
BITMAP
08
1F
23
42
84
04
08
30
40
80
ENDCHAR
STARTCHAR 31F1
ENCODING 12785
SWIDTH 1000 0
DWIDTH 16 0
BBX 10 9 3 1
BITMAP
1000
0800
8040
6080
2080
0100
0600
4800
3000
ENDCHAR
STARTCHAR 31F2
ENCODING 12786
SWIDTH 1000 0
DWIDTH 16 0
BBX 10 9 3 -1
BITMAP
0100
3F00
0200
0400
0400
0A00
1180
20C0
C040
ENDCHAR
STARTCHAR 31F3
ENCODING 12787
SWIDTH 1000 0
DWIDTH 16 0
BBX 6 11 6 -1
BITMAP
C0
40
40
40
70
48
44
40
40
40
40
ENDCHAR
STARTCHAR 31F4
ENCODING 12788
SWIDTH 1000 0
DWIDTH 16 0
BBX 8 9 4 -1
BITMAP
83
7E
06
64
1C
0E
13
21
C0
ENDCHAR
STARTCHAR 31F5
ENCODING 12789
SWIDTH 1000 0
DWIDTH 16 0
BBX 10 6 3 1
BITMAP
1200
1100
2080
20C0
4040
8040
ENDCHAR
STARTCHAR 31F6
ENCODING 12790
SWIDTH 1000 0
DWIDTH 16 0
BBX 7 9 5 1
BITMAP
80
84
86
98
E0
80
80
80
7E
ENDCHAR
STARTCHAR 31F7
ENCODING 12791
SWIDTH 1000 0
DWIDTH 16 0
BBX 8 9 4 -1
BITMAP
03
FD
02
02
04
04
08
10
60
ENDCHAR
STARTCHAR 31F8
ENCODING 12792
SWIDTH 1000 0
DWIDTH 16 0
BBX 10 6 3 1
BITMAP
1800
2C00
4600
8300
0080
0040
ENDCHAR
STARTCHAR 31F9
ENCODING 12793
SWIDTH 1000 0
DWIDTH 16 0
BBX 10 10 3 0
BITMAP
0800
0400
0400
7FC0
0400
0500
4480
4440
9440
0C00
ENDCHAR
STARTCHAR 31FA
ENCODING 12794
SWIDTH 1000 0
DWIDTH 16 0
BBX 10 9 3 1
BITMAP
0400
0400
0800
1000
1200
2100
2080
7FC0
E040
ENDCHAR
STARTCHAR 31FB
ENCODING 12795
SWIDTH 1000 0
DWIDTH 16 0
BBX 8 9 4 0
BITMAP
7E
00
03
FD
02
02
04
08
30
ENDCHAR
STARTCHAR 31FC
ENCODING 12796
SWIDTH 1000 0
DWIDTH 16 0
BBX 5 11 6 -1
BITMAP
18
88
88
88
88
88
88
10
10
60
80
ENDCHAR
STARTCHAR 31FD
ENCODING 12797
SWIDTH 1000 0
DWIDTH 16 0
BBX 10 9 3 -1
BITMAP
0400
2400
3400
3400
3440
2480
6580
4600
8400
ENDCHAR
STARTCHAR 31FE
ENCODING 12798
SWIDTH 1000 0
DWIDTH 16 0
BBX 9 9 4 0
BITMAP
C000
4000
4000
4080
4100
4200
4C00
5000
6000
ENDCHAR
STARTCHAR 31FF
ENCODING 12799
SWIDTH 1000 0
DWIDTH 16 0
BBX 8 8 4 1
BITMAP
8F
F1
81
82
82
42
7F
40
ENDCHAR
STARTCHAR 3220
ENCODING 12832
SWIDTH 1000 0
DWIDTH 16 0
BBX 14 14 1 -1
BITMAP
4008
4008
8004
8004
8004
8014
BFF4
8004
8004
8004
8004
8008
4008
4008
ENDCHAR
STARTCHAR 3221
ENCODING 12833
SWIDTH 1000 0
DWIDTH 16 0
BBX 14 14 1 -1
BITMAP
4008
4008
8044
9FE4
8004
8004
8004
8004
8004
8004
8014
9FE8
4008
4008
ENDCHAR
STARTCHAR 3222
ENCODING 12834
SWIDTH 1000 0
DWIDTH 16 0
BBX 14 14 1 -2
BITMAP
4008
4008
8028
9FC4
8004
8004
8044
8F84
8004
8004
8004
8018
5FE8
4008
ENDCHAR
STARTCHAR 3223
ENCODING 12835
SWIDTH 1000 0
DWIDTH 16 0
BBX 16 16 0 -2
BITMAP
2004
4004
400A
5FFA
9289
9289
9289
94A9
94A9
94F9
9809
9009
5FFA
500A
4004
2004
ENDCHAR
STARTCHAR 3224
ENCODING 12836
SWIDTH 1000 0
DWIDTH 16 0
BBX 14 14 1 0
BITMAP
4008
4028
BFF8
8204
8204
8244
9FC4
8444
8444
8444
8444
4458
5BA8
4008
ENDCHAR
STARTCHAR 3225
ENCODING 12837
SWIDTH 1000 0
DWIDTH 16 0
BBX 15 15 0 -2
BITMAP
2008
4004
4184
4104
8112
BFFA
8002
8002
8642
8422
8812
881A
500C
4004
4008
ENDCHAR
STARTCHAR 3226
ENCODING 12838
SWIDTH 1000 0
DWIDTH 16 0
BBX 15 14 1 -1
BITMAP
4008
4604
4404
8402
8412
85E2
9E02
8402
8402
8402
8424
4414
47F4
4008
ENDCHAR
STARTCHAR 3227
ENCODING 12839
SWIDTH 1000 0
DWIDTH 16 0
BBX 14 13 1 0
BITMAP
4008
4088
8388
8084
8484
8884
8884
8844
8844
9024
9034
6018
4008
ENDCHAR
STARTCHAR 3228
ENCODING 12840
SWIDTH 1000 0
DWIDTH 16 0
BBX 15 14 0 -2
BITMAP
2000
4304
4204
8204
8242
8FC2
8242
8242
8242
8442
8452
4854
507C
4008
ENDCHAR
STARTCHAR 3229
ENCODING 12841
SWIDTH 1000 0
DWIDTH 16 0
BBX 15 15 0 -1
BITMAP
4008
4184
4104
8102
8102
8112
BFFA
8102
8102
8102
8102
4104
4104
4108
2008
ENDCHAR
STARTCHAR 322A
ENCODING 12842
SWIDTH 1000 0
DWIDTH 16 0
BBX 15 14 1 -1
BITMAP
4008
4024
4FE4
8824
8822
8FE2
8822
8822
8FE2
8822
9022
5024
60E4
4008
ENDCHAR
STARTCHAR 322B
ENCODING 12843
SWIDTH 1000 0
DWIDTH 16 0
BBX 15 14 0 -1
BITMAP
4004
4184
4104
8112
8112
8922
8942
9182
8282
8242
8222
4434
5804
2008
ENDCHAR
STARTCHAR 322C
ENCODING 12844
SWIDTH 1000 0
DWIDTH 16 0
BBX 15 15 1 -2
BITMAP
0008
4104
4184
8104
811A
BFA2
85A2
8542
8942
8942
9122
9114
6104
4304
4008
ENDCHAR
STARTCHAR 322D
ENCODING 12845
SWIDTH 1000 0
DWIDTH 16 0
BBX 15 15 1 -2
BITMAP
2008
4104
4184
4104
8112
BFFA
8302
8382
8542
8542
8922
911A
4104
4104
4008
ENDCHAR
STARTCHAR 322E
ENCODING 12846
SWIDTH 1000 0
DWIDTH 16 0
BBX 15 15 0 -2
BITMAP
2000
4184
4104
4284
8442
8462
8FD2
910A
A112
8FE2
8D22
8542
4114
5FFC
4004
ENDCHAR
STARTCHAR 322F
ENCODING 12847
SWIDTH 1000 0
DWIDTH 16 0
BBX 15 15 0 -2
BITMAP
2008
4004
4184
4104
8102
8112
9FF2
8102
8102
8102
8102
8104
4114
5EE4
4008
ENDCHAR
STARTCHAR 3230
ENCODING 12848
SWIDTH 1000 0
DWIDTH 16 0
BBX 16 15 0 -1
BITMAP
4004
4012
4FF2
8811
8811
8811
8FF1
8811
8811
8811
8811
4FF2
4812
4004
2004
ENDCHAR
STARTCHAR 3231
ENCODING 12849
SWIDTH 1000 0
DWIDTH 16 0
BBX 16 14 0 -1
BITMAP
4004
4C32
48A2
8AA9
9D71
8825
9FFD
9A61
AA71
A8A9
8929
4A26
4822
4004
ENDCHAR
STARTCHAR 3232
ENCODING 12850
SWIDTH 1000 0
DWIDTH 16 0
BBX 15 14 0 -1
BITMAP
4008
4304
4214
9DE2
8422
87E2
8C22
97E2
9422
A7E2
8422
4424
4464
4008
ENDCHAR
STARTCHAR 3233
ENCODING 12851
SWIDTH 1000 0
DWIDTH 16 0
BBX 15 15 0 -1
BITMAP
2000
4804
4864
4844
BE42
8442
844A
89F2
9C42
AA42
8842
8842
484C
49B4
2000
ENDCHAR
STARTCHAR 3234
ENCODING 12852
SWIDTH 1000 0
DWIDTH 16 0
BBX 14 12 1 0
BITMAP
4208
4248
85C4
8C84
9304
A304
8624
8DE4
B424
8424
4428
47E8
ENDCHAR
STARTCHAR 3235
ENCODING 12853
SWIDTH 1000 0
DWIDTH 16 0
BBX 14 14 1 -1
BITMAP
4008
48C8
7898
ADE4
B894
ABFC
A824
8C34
B9E4
8924
8924
4828
4868
4008
ENDCHAR
STARTCHAR 3236
ENCODING 12854
SWIDTH 1000 0
DWIDTH 16 0
BBX 15 14 0 -2
BITMAP
0004
4114
5F14
9112
9FFE
9112
9F32
9152
9152
9F92
8D12
5994
50B4
4004
ENDCHAR
STARTCHAR 3237
ENCODING 12855
SWIDTH 1000 0
DWIDTH 16 0
BBX 15 14 1 -2
BITMAP
4008
5814
93F4
FE14
8A12
8A12
93F2
B942
D542
9152
9152
9254
5474
4008
ENDCHAR
STARTCHAR 3238
ENCODING 12856
SWIDTH 1000 0
DWIDTH 16 0
BBX 14 14 1 -1
BITMAP
4008
5368
8944
8094
BFF4
A214
A204
83E4
9E24
8424
8424
8848
50C8
4008
ENDCHAR
STARTCHAR 3239
ENCODING 12857
SWIDTH 1000 0
DWIDTH 16 0
BBX 15 14 0 -1
BITMAP
4004
46E4
4494
8882
888A
9BF2
A882
A842
8842
8842
8832
4834
481C
2008
ENDCHAR
STARTCHAR 323A
ENCODING 12858
SWIDTH 1000 0
DWIDTH 16 0
BBX 14 14 1 -1
BITMAP
4010
4028
A9C8
BA84
ACB4
AAA4
AAC4
A894
ABE4
B884
A084
8088
4188
4010
ENDCHAR
STARTCHAR 323B
ENCODING 12859
SWIDTH 1000 0
DWIDTH 16 0
BBX 15 14 1 -2
BITMAP
0008
5224
4D24
8444
9BBA
AFE2
8042
8182
810A
9FF2
8102
4104
4304
4008
ENDCHAR
STARTCHAR 323C
ENCODING 12860
SWIDTH 1000 0
DWIDTH 16 0
BBX 15 14 1 -2
BITMAP
4008
40C4
BC84
BEFC
A302
BE12
A8F2
AA02
B422
9FE2
9522
9534
7FF4
4008
ENDCHAR
STARTCHAR 323D
ENCODING 12861
SWIDTH 1000 0
DWIDTH 16 0
BBX 15 14 1 -1
BITMAP
4008
4304
4304
8482
85E2
8912
B10A
8922
89C2
8902
8902
8914
7FF4
4008
ENDCHAR
STARTCHAR 323E
ENCODING 12862
SWIDTH 1000 0
DWIDTH 16 0
BBX 15 14 0 -1
BITMAP
4004
510C
4AFC
80C2
9932
A61A
89F2
8FF2
8812
8FF2
8FF2
4044
4E3C
4004
ENDCHAR
STARTCHAR 323F
ENCODING 12863
SWIDTH 1000 0
DWIDTH 16 0
BBX 15 15 1 -2
BITMAP
0008
5884
5094
97F4
9092
9912
B272
9002
9222
97FA
932A
9554
5554
59B4
4008
ENDCHAR
STARTCHAR 3240
ENCODING 12864
SWIDTH 1000 0
DWIDTH 16 0
BBX 15 15 1 -2
BITMAP
2008
4004
4C84
4FFC
9292
AA62
9422
87F2
981A
A012
8FE2
8D62
5134
6314
4008
ENDCHAR
STARTCHAR 3241
ENCODING 12865
SWIDTH 1000 0
DWIDTH 16 0
BBX 15 15 1 -2
BITMAP
4008
4C88
48C4
8884
9092
97FA
9082
B1C2
B1C2
D2A2
9292
949C
9084
5084
4008
ENDCHAR
STARTCHAR 3242
ENCODING 12866
SWIDTH 1000 0
DWIDTH 16 0
BBX 14 14 1 -1
BITMAP
4208
4308
8228
9DE4
9024
9024
9FE4
9024
9024
9FE4
9024
9FE8
5028
4008
ENDCHAR
STARTCHAR 3243
ENCODING 12867
SWIDTH 1000 0
DWIDTH 16 0
BBX 15 14 0 0
BITMAP
4008
4014
4FE4
8242
8422
9FD2
9192
8102
8122
8FC2
8104
4114
5EE4
2000
ENDCHAR
STARTCHAR 3251
ENCODING 12881
SWIDTH 1000 0
DWIDTH 16 0
BBX 14 15 1 -2
BITMAP
07C0
1860
2C10
5248
5248
8244
8444
8444
8844
9044
5248
5EE8
2010
1820
07C0
ENDCHAR
STARTCHAR 3252
ENCODING 12882
SWIDTH 1000 0
DWIDTH 16 0
BBX 15 15 1 -2
BITMAP
07C0
1830
2C68
5294
5294
8212
8422
8422
8842
9082
5294
5EF4
2008
1830
07C0
ENDCHAR
STARTCHAR 3253
ENCODING 12883
SWIDTH 1000 0
DWIDTH 16 0
BBX 15 15 1 -2
BITMAP
07C0
1830
2C68
5294
5294
8212
8422
8422
8812
9092
5294
5E64
2008
1830
07C0
ENDCHAR
STARTCHAR 3254
ENCODING 12884
SWIDTH 1000 0
DWIDTH 16 0
BBX 15 16 1 -2
BITMAP
07C0
1820
2018
4C28
5264
92A2
82A2
84A2
8522
89F2
9022
5224
5E74
2008
1830
07C0
ENDCHAR
STARTCHAR 3255
ENCODING 12885
SWIDTH 1000 0
DWIDTH 16 0
BBX 15 16 1 -2
BITMAP
07C0
1820
2010
4CF8
5284
9282
8282
84E2
8412
8812
9092
5294
5E64
2008
1830
07C0
ENDCHAR
STARTCHAR 3256
ENCODING 12886
SWIDTH 1000 0
DWIDTH 16 0
BBX 15 15 1 -2
BITMAP
07C0
1830
2C68
5254
5294
8282
84E2
8492
8892
9092
5294
5E64
2008
1830
07C0
ENDCHAR
STARTCHAR 3257
ENCODING 12887
SWIDTH 1000 0
DWIDTH 16 0
BBX 14 16 1 -2
BITMAP
0780
0840
3030
4DF0
5328
9224
8244
8444
8444
8884
9084
5288
5E88
2010
1860
0780
ENDCHAR
STARTCHAR 3258
ENCODING 12888
SWIDTH 1000 0
DWIDTH 16 0
BBX 15 15 1 -2
BITMAP
07C0
1830
2C68
5294
5294
8292
8462
8462
8892
9092
5294
5E64
2008
1830
07C0
ENDCHAR
STARTCHAR 3259
ENCODING 12889
SWIDTH 1000 0
DWIDTH 16 0
BBX 15 15 1 -2
BITMAP
07C0
1830
2C68
5294
5294
8292
8492
8472
8812
9012
5294
5EE4
2008
1830
07C0
ENDCHAR
STARTCHAR 325A
ENCODING 12890
SWIDTH 1000 0
DWIDTH 16 0
BBX 14 14 1 -1
BITMAP
0FC0
3070
58F8
64A8
A51C
8514
9914
8514
8314
A318
A6A8
5CF0
3020
0FC0
ENDCHAR
STARTCHAR 325B
ENCODING 12891
SWIDTH 1000 0
DWIDTH 16 0
BBX 14 15 1 -2
BITMAP
0F80
1060
2010
78C8
B448
8444
8444
8C44
8244
A244
A248
5C48
2010
1020
0FC0
ENDCHAR
STARTCHAR 325C
ENCODING 12892
SWIDTH 1000 0
DWIDTH 16 0
BBX 15 15 1 -2
BITMAP
07C0
1830
3C78
6294
7294
8212
8422
8C22
8242
B282
6294
5CF4
2008
1830
07C0
ENDCHAR
STARTCHAR 325D
ENCODING 12893
SWIDTH 1000 0
DWIDTH 16 0
BBX 14 14 1 -1
BITMAP
0FC0
3070
5C78
6598
B49C
8414
9864
8424
8214
A398
A718
5CF0
3020
0FC0
ENDCHAR
STARTCHAR 325E
ENCODING 12894
SWIDTH 1000 0
DWIDTH 16 0
BBX 15 16 1 -2
BITMAP
07C0
1820
2010
5C28
7264
82A2
82A2
8CA2
8722
83F2
A222
A624
5C7C
2008
1830
07C0
ENDCHAR
STARTCHAR 325F
ENCODING 12895
SWIDTH 1000 0
DWIDTH 16 0
BBX 14 15 1 -1
BITMAP
0780
1860
2010
5CF8
6488
B504
8564
9894
8414
8214
A398
A728
5CF0
3020
0FC0
ENDCHAR
STARTCHAR 3280
ENCODING 12928
SWIDTH 1000 0
DWIDTH 16 0
BBX 14 15 1 -1
BITMAP
0780
1860
2010
4008
4008
8004
8014
BFF4
8004
8004
8008
8008
4010
3020
0FC0
ENDCHAR
STARTCHAR 3281
ENCODING 12929
SWIDTH 1000 0
DWIDTH 16 0
BBX 14 14 1 -1
BITMAP
0FC0
1060
2010
4048
8F8C
8004
8004
8004
8004
8034
5FC8
2010
1020
0FC0
ENDCHAR
STARTCHAR 3282
ENCODING 12930
SWIDTH 1000 0
DWIDTH 16 0
BBX 14 14 1 -1
BITMAP
0FC0
3070
4038
4FC8
800C
8004
8044
8F84
8004
8008
8028
5FD0
3020
0FC0
ENDCHAR
STARTCHAR 3283
ENCODING 12931
SWIDTH 1000 0
DWIDTH 16 0
BBX 16 15 0 -2
BITMAP
07E0
1818
200C
5FFE
928A
9289
94A9
94F9
9809
9009
5FFA
700A
3004
1818
07E0
ENDCHAR
STARTCHAR 3284
ENCODING 12932
SWIDTH 1000 0
DWIDTH 16 0
BBX 14 14 1 -1
BITMAP
0FC0
3070
4038
5FC8
820C
8244
9FC4
8444
8444
8444
8458
5BB0
3020
0FC0
ENDCHAR
STARTCHAR 3285
ENCODING 12933
SWIDTH 1000 0
DWIDTH 16 0
BBX 15 16 0 -2
BITMAP
07C0
0820
3198
4108
4114
BFFA
8002
8482
8642
8422
8812
5014
4004
2008
1830
07C0
ENDCHAR
STARTCHAR 3286
ENCODING 12934
SWIDTH 1000 0
DWIDTH 16 0
BBX 15 14 1 -1
BITMAP
0FC0
3030
4608
4404
8416
87E2
9C02
8402
8402
8424
4424
27E8
1810
07E0
ENDCHAR
STARTCHAR 3287
ENCODING 12935
SWIDTH 1000 0
DWIDTH 16 0
BBX 14 15 1 -2
BITMAP
0FC0
30F0
4798
4088
848C
8884
8884
8844
8844
9024
A018
4008
2010
1020
0FC0
ENDCHAR
STARTCHAR 3288
ENCODING 12936
SWIDTH 1000 0
DWIDTH 16 0
BBX 15 15 0 -1
BITMAP
07C0
0830
3318
420C
4244
9FC2
8242
8242
8242
8442
8454
4874
3008
1810
07E0
ENDCHAR
STARTCHAR 3289
ENCODING 12937
SWIDTH 1000 0
DWIDTH 16 0
BBX 15 15 0 -1
BITMAP
07C0
0820
3018
418C
4104
8102
8112
BFFA
8102
8102
8104
4104
2108
1910
07E0
ENDCHAR
STARTCHAR 328A
ENCODING 12938
SWIDTH 1000 0
DWIDTH 16 0
BBX 14 15 1 -1
BITMAP
0780
1860
2050
4FC8
4848
8844
8FC4
8844
8844
8FC4
8848
9048
40D0
3020
0FC0
ENDCHAR
STARTCHAR 328B
ENCODING 12939
SWIDTH 1000 0
DWIDTH 16 0
BBX 15 14 1 -1
BITMAP
07E0
19B0
2108
4114
8926
8922
89C2
9182
8242
8424
4814
2008
1810
07E0
ENDCHAR
STARTCHAR 328C
ENCODING 12940
SWIDTH 1000 0
DWIDTH 16 0
BBX 15 14 1 -1
BITMAP
07C0
1830
2188
4104
8114
9FA2
8542
8942
8922
9114
6104
2308
1810
07E0
ENDCHAR
STARTCHAR 328D
ENCODING 12941
SWIDTH 1000 0
DWIDTH 16 0
BBX 15 14 1 -1
BITMAP
07C0
1830
2188
4104
4114
9FE2
8382
8542
8922
911A
4104
2108
1810
07E0
ENDCHAR
STARTCHAR 328E
ENCODING 12942
SWIDTH 1000 0
DWIDTH 16 0
BBX 15 15 1 -1
BITMAP
07C0
0820
3198
4284
4244
8422
8FD2
B10A
9FF2
8922
8544
4554
2AA8
1810
07E0
ENDCHAR
STARTCHAR 328F
ENCODING 12943
SWIDTH 1000 0
DWIDTH 16 0
BBX 15 14 1 -1
BITMAP
0FE0
31B0
4108
4104
8116
8FE2
8102
8102
8102
4114
5FF4
2008
1810
07E0
ENDCHAR
STARTCHAR 3290
ENCODING 12944
SWIDTH 1000 0
DWIDTH 16 0
BBX 16 14 0 -1
BITMAP
07E0
1818
201C
4FF6
4812
8811
8FF1
8811
8811
4812
4FF2
2814
1808
07F0
ENDCHAR
STARTCHAR 3291
ENCODING 12945
SWIDTH 1000 0
DWIDTH 16 0
BBX 14 15 1 -1
BITMAP
0780
0840
30B0
49C8
4A88
BDF4
8A84
8894
9FE4
A9C4
AAA8
4C98
2890
1820
0FC0
ENDCHAR
STARTCHAR 3292
ENCODING 12946
SWIDTH 1000 0
DWIDTH 16 0
BBX 15 14 0 -1
BITMAP
07C0
1830
2308
4214
9FE4
8422
8FE2
97E2
8422
47E4
4424
2468
1830
07C0
ENDCHAR
STARTCHAR 3293
ENCODING 12947
SWIDTH 1000 0
DWIDTH 16 0
BBX 14 14 1 -1
BITMAP
07C0
1860
28D0
4888
968C
84A4
89C4
9E84
A884
8884
4888
2B70
1820
0FC0
ENDCHAR
STARTCHAR 3294
ENCODING 12948
SWIDTH 1000 0
DWIDTH 16 0
BBX 15 14 0 -1
BITMAP
07E0
1A38
230C
45E4
CC86
B302
8212
87F2
9C12
A414
4414
27F8
1810
07E0
ENDCHAR
STARTCHAR 3295
ENCODING 12949
SWIDTH 1000 0
DWIDTH 16 0
BBX 14 15 1 -1
BITMAP
07C0
1860
28D0
5898
6BF8
AC84
B894
A964
8C34
B9E4
8928
8828
48F0
3020
0FC0
ENDCHAR
STARTCHAR 3296
ENCODING 12950
SWIDTH 1000 0
DWIDTH 16 0
BBX 15 15 1 -1
BITMAP
07C0
1820
2238
5E2C
5224
9E2A
92F2
9E62
92A2
92A2
8D24
8A24
5268
3010
0FE0
ENDCHAR
STARTCHAR 3297
ENCODING 12951
SWIDTH 1000 0
DWIDTH 16 0
BBX 15 14 0 -1
BITMAP
07C0
1830
2818
49F4
5714
8512
89F2
9EA2
A8A2
C8A2
4934
2A38
1810
07E0
ENDCHAR
STARTCHAR 3298
ENCODING 12952
SWIDTH 1000 0
DWIDTH 16 0
BBX 14 14 1 -1
BITMAP
0FC0
3060
3270
4B48
898C
B674
A204
9FE4
8224
8424
8448
59D0
3020
0FC0
ENDCHAR
STARTCHAR 3299
ENCODING 12953
SWIDTH 1000 0
DWIDTH 16 0
BBX 14 14 1 -1
BITMAP
0780
1860
2D10
78A8
892C
9B64
8F64
9F94
AB14
A924
4B28
2DF0
1020
0FC0
ENDCHAR
STARTCHAR 329A
ENCODING 12954
SWIDTH 1000 0
DWIDTH 16 0
BBX 15 15 0 -1
BITMAP
07E0
0830
3018
4FF4
4914
8FF2
8912
8FF2
810A
8FF2
4214
4414
2068
1810
07E0
ENDCHAR
STARTCHAR 329B
ENCODING 12955
SWIDTH 1000 0
DWIDTH 16 0
BBX 14 15 1 -2
BITMAP
0FC0
3270
4218
4418
BFFC
8444
8844
8884
9484
8384
8248
4C28
2010
1020
0FC0
ENDCHAR
STARTCHAR 329C
ENCODING 12956
SWIDTH 1000 0
DWIDTH 16 0
BBX 15 14 0 -1
BITMAP
07C0
1830
30D8
49E4
C8D6
8372
BA92
8AB2
8AD2
8A94
5614
33F8
1810
07E0
ENDCHAR
STARTCHAR 329D
ENCODING 12957
SWIDTH 1000 0
DWIDTH 16 0
BBX 15 15 1 -1
BITMAP
07C0
1820
2818
57F4
53E4
9222
93EA
BDF2
9ED2
9512
97E4
58C4
3F38
1810
07E0
ENDCHAR
STARTCHAR 329E
ENCODING 12958
SWIDTH 1000 0
DWIDTH 16 0
BBX 15 14 1 -1
BITMAP
0FE0
1030
2618
59F4
9116
9112
9D12
9112
9112
9F74
5124
5108
3010
0FE0
ENDCHAR
STARTCHAR 329F
ENCODING 12959
SWIDTH 1000 0
DWIDTH 16 0
BBX 15 15 1 -1
BITMAP
07C0
1820
2118
4884
4494
BBF2
9882
8882
97F2
9082
9084
5094
2368
1830
07C0
ENDCHAR
STARTCHAR 32A0
ENCODING 12960
SWIDTH 1000 0
DWIDTH 16 0
BBX 14 16 1 -2
BITMAP
0780
1860
2030
47E8
7CA8
93E4
9224
93E4
93E4
9A24
B3E4
C108
4268
2410
1820
07C0
ENDCHAR
STARTCHAR 32A1
ENCODING 12961
SWIDTH 1000 0
DWIDTH 16 0
BBX 14 14 1 -1
BITMAP
0FC0
1060
6C90
4888
909C
93E4
B1C4
D1A4
92A4
949C
9088
5090
3020
0FC0
ENDCHAR
STARTCHAR 32A2
ENCODING 12962
SWIDTH 1000 0
DWIDTH 16 0
BBX 14 15 1 -2
BITMAP
0FC0
3070
4010
7FE8
AC4C
8FC4
8804
8FC4
8084
BFF4
8088
4088
2390
1060
0F80
ENDCHAR
STARTCHAR 32A3
ENCODING 12963
SWIDTH 1000 0
DWIDTH 16 0
BBX 15 14 1 -1
BITMAP
07C0
1830
2008
4FE4
8104
8102
8922
89C2
8902
8904
4914
36E8
1010
0FE0
ENDCHAR
STARTCHAR 32A4
ENCODING 12964
SWIDTH 1000 0
DWIDTH 16 0
BBX 14 14 1 -1
BITMAP
0F80
1060
6310
4208
8208
8224
83C4
8204
8204
8204
7FF8
2010
1020
0FC0
ENDCHAR
STARTCHAR 32A5
ENCODING 12965
SWIDTH 1000 0
DWIDTH 16 0
BBX 14 15 1 -1
BITMAP
0780
1840
2130
4108
4128
9FE4
9124
9124
9124
9FE4
4108
4108
2110
1860
0780
ENDCHAR
STARTCHAR 32A6
ENCODING 12966
SWIDTH 1000 0
DWIDTH 16 0
BBX 15 15 0 -1
BITMAP
07C0
0830
3018
401C
5FFC
8102
8102
81C2
8122
8112
8104
4104
2108
1910
07E0
ENDCHAR
STARTCHAR 32A7
ENCODING 12967
SWIDTH 1000 0
DWIDTH 16 0
BBX 14 14 1 -1
BITMAP
0FC0
3070
4610
4418
9FEC
8404
8824
8FC4
9104
A104
8118
4EF0
3020
0FC0
ENDCHAR
STARTCHAR 32A8
ENCODING 12968
SWIDTH 1000 0
DWIDTH 16 0
BBX 15 14 0 -1
BITMAP
07E0
1838
230C
420C
5FF6
8402
8412
8FF2
9412
9414
6414
27F8
1810
07E0
ENDCHAR
STARTCHAR 32A9
ENCODING 12969
SWIDTH 1000 0
DWIDTH 16 0
BBX 15 15 1 -1
BITMAP
07C0
1830
2018
5FF4
5204
93E2
9502
9102
97E2
91C2
9224
5414
3FE8
1810
07E0
ENDCHAR
STARTCHAR 32AA
ENCODING 12970
SWIDTH 1000 0
DWIDTH 16 0
BBX 16 15 0 -1
BITMAP
07E0
0830
318C
4186
5FFE
9009
BFF1
8009
8FF1
8CB1
509A
408A
2384
1818
07E0
ENDCHAR
STARTCHAR 32AB
ENCODING 12971
SWIDTH 1000 0
DWIDTH 16 0
BBX 15 15 1 -1
BITMAP
07C0
0820
3018
4F2C
4544
9FFA
B012
87C2
8182
8112
9FE4
4104
2708
1810
07E0
ENDCHAR
STARTCHAR 32AC
ENCODING 12972
SWIDTH 1000 0
DWIDTH 16 0
BBX 15 16 0 -2
BITMAP
07C0
0830
3008
3F44
5284
9DFA
9F12
92F2
9C22
87E2
85A2
45A4
45B4
2A48
1830
07C0
ENDCHAR
STARTCHAR 32AD
ENCODING 12973
SWIDTH 1000 0
DWIDTH 16 0
BBX 15 15 1 -1
BITMAP
07C0
1820
2318
428C
4444
8932
911A
A922
89E2
8902
8904
8914
56E8
3030
0FC0
ENDCHAR
STARTCHAR 32AE
ENCODING 12974
SWIDTH 1000 0
DWIDTH 16 0
BBX 15 14 1 -1
BITMAP
07C0
1830
2108
4EF4
8544
BE32
8FE2
8FE2
8822
8FE4
47C4
2C68
1810
07E0
ENDCHAR
STARTCHAR 32AF
ENCODING 12975
SWIDTH 1000 0
DWIDTH 16 0
BBX 14 14 1 -1
BITMAP
0FE0
3070
5998
57F8
912C
BB64
9004
9264
95F4
9558
9558
59B0
3020
0FC0
ENDCHAR
STARTCHAR 32B0
ENCODING 12976
SWIDTH 1000 0
DWIDTH 16 0
BBX 16 15 0 -1
BITMAP
03C0
0C30
300C
208C
5FFA
8641
84F9
8891
8951
BAA1
8862
48F2
290C
1A08
07F0
ENDCHAR
STARTCHAR 32B1
ENCODING 12977
SWIDTH 1000 0
DWIDTH 16 0
BBX 14 14 1 -1
BITMAP
0FC0
3070
5C78
64B8
B58C
8504
9964
8594
8314
A318
A698
5C70
3020
0FC0
ENDCHAR
STARTCHAR 32B2
ENCODING 12978
SWIDTH 1000 0
DWIDTH 16 0
BBX 15 15 0 -1
BITMAP
07C0
0820
3018
4CF4
5294
9212
8222
8C22
8222
8242
5244
5244
2C48
1810
07E0
ENDCHAR
STARTCHAR 32B3
ENCODING 12979
SWIDTH 1000 0
DWIDTH 16 0
BBX 14 14 1 -1
BITMAP
0FC0
3070
5878
6498
B49C
84A4
9844
84A4
8314
A318
A718
5CF0
3020
0FC0
ENDCHAR
STARTCHAR 32B4
ENCODING 12980
SWIDTH 1000 0
DWIDTH 16 0
BBX 14 14 1 -1
BITMAP
0FC0
3070
5CF8
6318
B31C
8314
8D14
84F4
8214
A298
A6A8
5C70
3020
0FC0
ENDCHAR
STARTCHAR 32B5
ENCODING 12981
SWIDTH 1000 0
DWIDTH 16 0
BBX 15 16 0 -2
BITMAP
07C0
0830
3018
447C
4C54
948A
948A
A48A
A48A
BE8A
848A
4454
4E74
2008
1830
07C0
ENDCHAR
STARTCHAR 32B6
ENCODING 12982
SWIDTH 1000 0
DWIDTH 16 0
BBX 14 16 1 -2
BITMAP
0780
1860
2010
44C8
4C48
9444
9444
A444
A444
BE44
8444
4448
4CE8
2010
1860
0780
ENDCHAR
STARTCHAR 32B7
ENCODING 12983
SWIDTH 1000 0
DWIDTH 16 0
BBX 16 16 0 -2
BITMAP
07C0
0830
3008
4474
4CCA
94C9
9409
A411
A421
BE21
8441
448A
6EFE
3004
1818
07E0
ENDCHAR
STARTCHAR 32B8
ENCODING 12984
SWIDTH 1000 0
DWIDTH 16 0
BBX 15 16 0 -2
BITMAP
07C0
0830
3018
447C
4CCC
940A
940A
A432
A41A
BE0A
84CA
449C
6E74
3008
1810
07E0
ENDCHAR
ENDFONT
